<svg width="171" height="210" viewBox="0 0 171 210" fill="none" xmlns="http://www.w3.org/2000/svg">
<path d="M78.2399 13.4659C78.1954 13.4659 77.8054 12.8633 77.2381 11.3687C76.5123 9.45677 76.8314 17.9676 76.32 35.2191C76.1005 42.6244 75.436 47.2664 74.3099 53.8052C70.1086 78.2015 69.2512 81.0393 69.2117 80.9126C67.7951 76.3722 69.8464 67.2732 71.2926 55.7984C72.09 49.471 73.3895 42.1788 74.1948 35.2541C76.5763 14.7762 76.2659 11.1863 77.0986 6.25688C77.4418 4.22515 78.0464 2.66586 78.5006 2.02087C78.6336 1.83203 78.877 2.95611 78.9629 4.11966C79.0489 5.28321 79.0489 6.71594 78.2396 13.9097C77.4304 21.1035 75.8118 34.015 73.8712 46.1613C71.9306 58.3076 69.7169 69.2975 68.2679 75.9766C66.3675 84.7359 65.5264 87.5677 65.3645 88.359C64.5958 92.117 65.0747 78.4441 66.5014 70.9049C67.637 64.9037 70.0416 54.5881 71.9201 45.2282C75.4074 27.8533 76.722 18.4859 76.8737 16.3574C77.039 14.0371 77.0309 12.1191 77.3023 10.6804C77.4481 9.907 77.6904 9.06476 77.8468 9.14252C78.0031 9.22029 78.0865 10.2485 77.0032 18.3274C75.9199 26.4063 73.6673 41.5048 72.1676 50.8462C70.1604 63.3483 68.962 68.8155 68.3953 72.7942C68.0177 75.5425 67.1569 79.2152 65.9864 83.5105C65.5333 85.2142 65.3665 85.9517 65.5654 85.1536" stroke="#874FFF" stroke-width="4" stroke-linecap="round" stroke-linejoin="round"/>
<path d="M79 4.87017C79.3554 5.29123 81.7704 7.48507 86.7758 14.4293C94.077 24.5587 94.5263 27.9905 95.1278 29.7564C95.4529 30.7109 95.7506 31.8128 95.0597 30.4778C89.8483 20.408 87.2643 15.6424 84.5312 12.5291C83.5396 11.3995 82.4623 10.3296 81.4174 8.83705C80.297 7.23653 79.5101 5.35107 79.2163 4.15259C79.1345 3.81897 79.9246 4.06991 80.5922 4.54309C85.2318 7.83171 89.6816 15.3063 93.3655 22.1664C95.1493 25.4879 95.8976 28.9315 96.6883 31.6349C97.0265 32.7911 97.1698 33.534 96.9377 33.8231C96.7056 34.1122 96.0766 33.9311 95.5153 33.581C91.6815 31.1895 85.783 19.6506 81.7778 13.4363C81.1439 12.4527 80.6787 11.5821 80.7222 11.0237C80.7658 10.4653 81.3362 10.2421 82.0218 10.3272C83.5428 10.5158 84.9648 11.6496 86.5342 12.7613C88.6345 14.2492 90.3977 16.1498 91.7541 17.8273C94.3077 21.68 96.6823 26.8423 98.5885 32.6433C98.9687 34.0046 99.2459 35.2088 100 34.9695" stroke="#874FFF" stroke-width="4" stroke-linecap="round" stroke-linejoin="round"/>
<path d="M99 34.978C99 34.9259 99.6748 34.556 101.76 33.9559C109.904 31.6129 120.16 34.1767 126.878 35.2821C128.944 35.6221 128.271 35.6233 126.783 35.3102C118.943 33.6615 112.228 33.228 108.066 33.4703C106.593 33.5561 115.094 33.3531 128.725 33.1651C133.144 33.1041 132.49 33.5285 130.279 33.8438C117.476 35.6697 108.838 34.2283 106.04 33.6732C103.562 33.1819 111.029 35.5756 114.99 35.9705C116.707 36.0175 119.353 36.0175 121.712 35.9024C124.072 35.7874 126.064 35.5572 128.117 35.3201" stroke="#874FFF" stroke-width="4" stroke-linecap="round" stroke-linejoin="round"/>
<path d="M142.856 12.5301C142.856 12.4792 143.083 11.8042 143.662 10.5965C144.236 9.39751 145.373 8.56105 145.752 7.98855C148.116 4.42441 135.708 26.4128 132.042 33.6808C131.689 34.3803 131.159 34.8599 130.939 34.7557C130.719 34.6515 130.741 33.8883 130.966 33.1241C132.248 28.7581 139.148 13.6256 142.601 5.17448C142.908 4.42305 143.307 3.8686 143.476 4.02722C143.644 4.18585 143.627 5.10599 143.403 6.13124C142.925 8.31585 138.838 17.3539 133.395 29.7819C131.434 34.2601 131.029 34.9887 130.901 34.9999C130.774 35.0111 130.918 34.2732 131.299 33.397C132.149 31.4433 135.573 25.3374 140.439 16.045C144.191 8.87899 146.547 5.40461 146.926 4.94415C147.607 4.11841 143.468 10.8021 138.687 18.8557C131.256 31.3742 130.472 33.889 130.006 34.2679C129.95 34.1295 130.26 33.3196 131.161 31.7214C132.063 30.1233 133.546 27.7614 135.074 25.328" stroke="#874FFF" stroke-width="4" stroke-linecap="round" stroke-linejoin="round"/>
<path d="M145.026 3.76136C145.005 3.74043 144.983 3.7195 145.02 3.37594C145.058 3.03239 145.156 2.36684 145.518 2.11188C145.88 1.85693 146.503 2.03273 147.272 2.69048C149.107 4.26137 150.339 6.40478 151.208 7.85613C151.617 8.53845 151.871 9.17352 152.074 9.83799C152.477 11.1656 152.881 15.785 153.51 23.6734C154.614 37.5211 155.82 46.6076 156.599 52.9552C156.773 54.3669 156.641 56.1749 156.641 55.5471C156.641 54.9192 156.641 51.8133 156.151 44.577C155.66 37.3408 154.679 26.0683 154.114 19.9285C153.548 13.7887 153.429 13.1232 153.368 13.224C151.886 15.6555 155.3 24.1236 156.537 37.9774C157.464 48.3577 156.621 57.5248 156.347 65.4846C156.179 70.3774 156.333 77.0148 156.256 80.0894C156.178 83.164 155.961 82.4775 155.63 71.6279C155.299 60.7782 154.86 39.7862 154.563 28.5724C154.266 17.3586 154.125 16.5591 153.941 16.614C153.758 16.6688 153.535 17.6023 154.042 25.0275C154.548 32.4526 155.789 46.3413 156.437 55.3273C157.347 67.957 156.982 76.1447 156.536 82.5487C156.394 84.5809 155.742 84.0468 155.285 80.8871C153.998 71.9959 153.98 62.2819 154.259 56.9331C154.347 55.2421 155.097 55.7325 155.455 56.4281C156.942 59.3168 156.258 66.7829 155.827 79.019C155.417 85.529 154.62 92.6491 154.288 95.8294C153.956 99.0097 154.114 98.0344 154.276 97.0295" stroke="#874FFF" stroke-width="4" stroke-linecap="round" stroke-linejoin="round"/>
<path d="M86.4983 55.805C90.4984 55.6464 101.272 55.6845 104.248 56.6406C104.512 56.7254 103.846 57.1757 102.872 57.2698C97.828 57.7569 93.5621 56.1981 88.9759 55.5044C86.5198 55.1328 84.1639 55.1818 83.0132 55.1818C76.6383 55.1818 102.288 54.9341 105.924 55.017C106.199 55.0232 105.681 55.7689 105.134 56.1642C102.732 57.9015 94.85 58.6347 85.5842 58.9959C84.1148 59.0532 83.5907 58.495 83.5934 58.1599C83.5961 57.8249 84.1472 57.5078 84.8457 57.2545C90.479 55.2117 99.8416 55.6622 102.709 55.8571C103.486 55.9099 102.816 56.4419 101.495 56.8463C98.244 57.8417 93.9087 58.1455 92.7696 58.2601C98.4946 58.3276 104.289 58.1911 105.6 57.7581C105.851 57.4837 105.263 57.0981 103.7 56.4931" stroke="#874FFF" stroke-width="4" stroke-linecap="round" stroke-linejoin="round"/>
<path d="M130.65 55C129.252 55.205 125.923 55.8225 124.326 55.9536C116.372 56.606 139.496 55.7663 137.418 55.814C134.146 55.8891 126.375 56.1287 123.006 56.3062C119.636 56.4837 120.905 56.6075 123.914 56.6519C131.633 56.7659 137.524 56.5946 138.776 56.6426C140.716 56.717 129.628 57.6511 122.124 57.9601C121.797 57.9736 129.873 57.0563 137.31 55.8633C138.684 55.6429 132.346 56.9984 124.441 58.65C121.972 59.1657 122.758 59.5666 123.517 59.7351C125.015 59.9654 128.874 60.0292 133.905 59.9886C135.838 59.9479 136.513 59.8667 137.993 59.4665" stroke="#874FFF" stroke-width="4" stroke-linecap="round" stroke-linejoin="round"/>
<path d="M144.477 22C144.278 22.5933 141.306 29.2614 139.198 33.4688C137.83 36.1981 143.956 28.8303 144.934 27.5419C145.392 26.9383 145.638 26.3194 145.535 26.2012C145.432 26.083 144.938 26.4542 144.444 27.1382C142.071 30.4261 140.889 33.1459 140.463 33.8212C139.19 35.837 144.059 31.3502 145.024 30.6894C145.502 30.3625 145.538 29.5048 145.562 28.5536C145.614 26.4427 145.265 24.573 145.108 23.9627C144.272 20.7295 146.022 32.9982 146.157 36.5509C146.247 38.9364 144.965 31.136 144.393 29.1503C144.345 28.9863 145.069 29.6088 145.611 30.3385C146.781 31.9114 147.68 33.851 147.993 35.162C148.089 35.566 147.177 35.4047 146.522 35.1199C145.271 34.4227 144.162 33.6018 143.177 32.7833C142.686 32.3608 142.213 31.9236 142.621 32.9979" stroke="#874FFF" stroke-width="4" stroke-linecap="round" stroke-linejoin="round"/>
<path d="M81.6707 26C81.58 26.8497 81.3959 31.7919 80.8793 36.8746C80.8343 37.317 80.6397 36.4932 80.8221 35.885C81.0046 35.2768 81.468 34.8718 82.0039 34.6632C84.612 33.6478 87.5795 35.3888 88.4866 35.5675C90.9596 36.0547 83.7579 33.4902 82.585 32.6542C82.0058 32.2413 81.5431 31.6697 81.1378 31.0632C80.7325 30.4568 80.4202 29.7863 80.2115 29.0831C80.0028 28.38 79.907 27.6645 80.1197 27.5231C80.3323 27.3818 80.8562 27.8363 81.4031 28.6307C83.9333 32.3056 85.1516 35.2157 85.5638 35.872C87.1046 38.3249 82.6468 30.7288 81.9251 28.7756C81.5993 27.8939 81.4854 27.1599 81.7149 26.8048C81.9444 26.4497 82.5539 26.4767 83.1852 26.9069C83.8166 27.337 84.4512 28.1695 85.1762 29.3387C85.9011 30.5078 86.6969 31.9883 86.8752 32.9534C87.0535 33.9186 86.5901 34.3236 86.1096 34.233C85.0181 34.0272 84.1284 32.1668 83.1761 30.6927C82.3428 29.403 81.715 27.7907 81.4678 26.5241C81.3907 26.1286 82.1476 26.279 83 27.1384C83.8524 27.9977 84.9657 29.5727 85.8817 30.8611C86.7977 32.1494 87.4827 33.1034 87.9596 33.1454" stroke="#874FFF" stroke-width="4" stroke-linecap="round" stroke-linejoin="round"/>
<path d="M92.3993 69.16C92.4211 69.16 92.4429 69.16 92.1404 69.1806C91.8378 69.2013 91.2102 69.2426 89.8526 70.9194C86.0703 75.5912 83.7552 80.2361 83.0976 81.3205C82.0225 83.0934 90.1001 71.0842 94.0703 66.1144C94.5026 65.5732 95.2313 65.3754 95.8629 65.1741C96.4945 64.9728 97.1166 64.9067 97.5981 65.1909C99.9698 66.5908 100.55 71.941 102.274 75.3104C104.016 78.7136 107.361 80.7881 107.792 81.3772C109.609 83.8614 99.1277 81.9431 91.796 82.7879C87.1815 83.3197 83.9221 82.7272 83.2322 82.3649C83.23 82.1763 83.934 81.9779 84.7688 81.8757C85.6035 81.7735 86.5477 81.7735 88.4466 81.6357" stroke="#874FFF" stroke-width="4" stroke-linecap="round" stroke-linejoin="round"/>
<path d="M128.2 65C128.164 65 128.127 65 127.866 65.2101C124.043 68.2882 123.456 78.6366 122.671 80.7045C122.321 81.6258 121.971 82.2346 121.532 82.389C121.093 82.5433 120.551 82.2114 120.406 81.7169C119.629 79.0658 122.675 75.3631 124.036 69.381C124.347 68.0132 124.636 67.1272 125.097 66.7125C125.559 66.2977 126.201 66.386 126.994 66.8558C130.528 68.9489 132.742 72.872 134.961 76.598C135.963 78.2817 136.674 80.348 136.991 81.95C137.1 82.5016 136.224 82.5226 135.42 82.4326C131.567 82.0012 124.735 81.6441 120.288 82.244C119.594 82.3377 119.017 82.7383 119 83.0322C118.983 83.3262 119.567 83.6371 120.651 83.7973C123.285 84.1863 127.047 83.9154 129.859 83.8055C129.71 83.6453 127.518 83.4408 125.163 83.2522C124.143 83.1728 123.481 83.1266 121.81 82.8116" stroke="#874FFF" stroke-width="4" stroke-linecap="round" stroke-linejoin="round"/>
<path d="M93.3237 79.3111C93.279 79.3111 92.7647 79.7423 92.0928 80.0295C91.8828 80.1193 92.0574 79.1533 92.336 78.4852C92.6146 77.8171 93.0222 77.2354 93.5197 76.773C94.0172 76.3106 94.5923 75.9851 95.218 76.0005C95.8437 76.0159 96.5026 76.3821 96.9648 76.9063C97.427 77.4305 97.6727 78.1017 97.83 78.8136C97.9873 79.5256 98.0487 80.2578 97.9575 80.9361C97.8663 81.6143 97.6206 82.2164 96.4369 81.9245" stroke="#874FFF" stroke-width="4" stroke-linecap="round" stroke-linejoin="round"/>
<path d="M127.268 79.3771C127.206 79.4224 126.815 79.9986 126.092 80.5735C125.771 80.8285 125.369 80.0698 125.166 79.4024C124.963 78.7351 124.928 77.9421 125.162 77.4723C125.397 77.0026 125.902 76.8803 126.341 77.1186C126.781 77.3569 127.14 77.9596 127.464 78.6191C127.789 79.2785 128.068 79.9764 129 82" stroke="#874FFF" stroke-width="4" stroke-linecap="round" stroke-linejoin="round"/>
<path d="M97.005 99C96.9284 99 97.6767 99.2596 102.899 99.6749C107.334 99.8307 115.393 99.8747 120.198 99.8291C125.003 99.7836 126.31 99.6472 129 100" stroke="#874FFF" stroke-width="4" stroke-linecap="round" stroke-linejoin="round"/>
<path d="M95.0893 100C95.0286 100.021 94.9679 100.042 95.0194 100.408C95.7507 105.613 102.72 111.592 106.838 118.719C107.832 120.418 108.439 121.351 108.895 122.131C109.351 122.911 109.638 123.509 110 125" stroke="#874FFF" stroke-width="4" stroke-linecap="round" stroke-linejoin="round"/>
<path d="M129 101C128.409 101.569 117.895 114.414 111.193 122.062C110.589 122.561 110.051 122.937 109.567 123.374C109.083 123.811 108.669 124.297 109.383 125" stroke="#874FFF" stroke-width="4" stroke-linecap="round" stroke-linejoin="round"/>
<path d="M100 102C100 102.042 99.7981 102.823 99.4612 104.462C99.264 106.319 98.8894 108.836 98.3606 111.458C98.1424 112.57 98.0259 113.237 98 114" stroke="#874FFF" stroke-width="4" stroke-linecap="round" stroke-linejoin="round"/>
<path d="M112 102C111.949 102 111.171 102 109.787 102.326C109.085 102.491 108.663 103.304 108.258 105.672C107.546 112.108 107.116 117.101 107 117.992C106.998 118.08 107.113 117.428 107.231 116.757" stroke="#874FFF" stroke-width="4" stroke-linecap="round" stroke-linejoin="round"/>
<path d="M114 104.754C114.097 104.714 114.787 104.271 115.808 104C116.294 104.888 115.811 108.521 114.877 113.254C114.534 115.115 114.458 115.876 114.548 118" stroke="#874FFF" stroke-width="4" stroke-linecap="round" stroke-linejoin="round"/>
<path d="M121 103C120.966 103 120.932 103 120.775 103.354C120.618 103.709 120.339 104.418 120.187 105.419C120.034 106.419 120.017 107.69 120 109" stroke="#874FFF" stroke-width="4" stroke-linecap="round" stroke-linejoin="round"/>
<path d="M70.7016 69.1267C70.6795 69.0847 70.6574 69.0426 70.4331 69.3216C70.2088 69.6007 69.783 70.202 66.5391 81.1551C63.2951 92.1081 57.2459 113.395 54.1905 123.915C51.135 134.435 51.2567 133.543 53.5201 125.393C55.7835 117.242 60.1849 101.86 62.6237 93.4687C66.2432 81.0154 68.9935 75.8507 69.8077 72.7729C70.0259 71.9478 70.2666 71.1228 70.5661 70.3765C70.8656 69.6302 71.214 68.9868 71.4847 69.0002C71.7554 69.0136 71.9379 69.7032 71.9904 70.5274C72.0429 71.3515 71.96 72.2893 69.6253 80.8085C67.2906 89.3276 62.7067 105.4 59.878 116.219C55.7498 132.01 54.9862 138.736 55.1523 138.046C56.9577 130.551 58.2412 119.867 60.0848 111.834C61.1912 107.013 63.9996 99.8094 67.4636 90.609C69.2403 85.8902 69.533 83.8643 69.7561 82.5043C69.8691 81.8151 69.9348 81.1191 69.7425 81.0645C69.5501 81.0098 69.0857 81.6153 68.6307 82.5286C68.1758 83.4419 67.7445 84.6446 64.9981 94.8498C62.2518 105.055 57.2034 124.226 54.4202 134.593C51.637 144.959 51.2721 145.938 51.0841 145.997C50.8961 146.056 50.8961 145.165 52.4748 138.352C54.0534 131.538 57.2107 118.83 59.1413 111.348C61.072 103.866 61.6802 101.995 61.9438 101.378C62.1078 101.454 61.4357 103.57 59.6549 108.78C58.4436 112.59 56.6079 118.767 54.5321 126.483" stroke="#874FFF" stroke-width="4" stroke-linecap="round" stroke-linejoin="round"/>
<path d="M155.91 86.3887C155.807 85.44 154.682 82.3689 154.002 80.0215C153.956 79.8632 154.631 80.7085 155.026 81.8902C155.942 84.6256 156.224 87.9139 156.734 96.9196C157.157 104.393 157.459 117.79 157.714 125.139C158 133.396 158.229 135.142 158.377 135.994C158.502 136.719 158.27 132.585 157.993 124.922C157.783 119.141 157.791 109.508 157.541 99.7081C157.292 89.9086 156.877 80.2322 156.612 74.916C156.346 69.5998 156.244 68.9372 156.183 69.0043C156.122 69.0714 156.106 69.8881 156.761 84.6465C157.416 99.4049 158.743 128.08 159.437 141.979C160.132 155.878 160.153 154.132 159.668 143.987C159.183 133.843 158.191 115.352 157.628 105.462C157.066 95.5725 156.963 94.8432 156.921 95.649C156.879 96.4547 156.901 98.8176 157.289 108.078C157.678 117.338 158.433 133.424 158.722 141.191C158.973 147.917 158.25 132.934 157.7 116.66C157.485 123.936 157.78 137.9 158.344 144.413C158.588 146.883 158.75 147.658 159.146 148.987" stroke="#874FFF" stroke-width="4" stroke-linecap="round" stroke-linejoin="round"/>
<path d="M32 156V155" stroke="#874FFF" stroke-width="4" stroke-linecap="round" stroke-linejoin="round"/>
<path d="M31.4812 154.482C30.1056 155.017 27.6563 155.846 26.3909 156.081C25.7385 156.203 25.0454 156.161 31.9909 154.426C38.9365 152.69 53.5366 149.218 63.6583 147.153C78.9091 144.041 85.6786 143.963 87.4112 144.007C87.6414 144.013 81.1457 146.144 69.4101 149.833C63.1747 151.794 56.197 153.187 50.9443 154.191C42.3657 155.831 38.2017 156.168 37.6608 156.4C36.6615 156.828 46.8835 153.828 63.633 149.735C73.0992 147.422 84.9006 146.864 91.4525 146.291C98.0045 145.718 99.0447 145.718 99.7379 146.018C100.431 146.318 100.746 146.919 100.497 147.518C100.249 148.116 99.4271 148.696 98.4625 149.271C96.4475 150.473 92.2747 151.908 84.7742 153.893C74.5591 156.596 66.8015 157.398 64.8641 157.39C63.8538 157.386 74.723 153.744 88.6289 149.521C98.5287 146.515 104.196 145.83 107.446 145.584C111.106 145.307 114.078 145.627 115.872 146.14C116.711 146.38 117.298 146.967 117.721 147.575C118.143 148.183 118.357 148.892 118.418 149.591C118.48 150.291 118.384 150.958 118.127 151.636C117.013 154.567 114.247 157.317 112.815 160.274C110.836 164.36 110.311 173.148 107.81 179.261C106.958 181.344 105.24 184.072 104.528 185.082C103.816 186.093 103.992 185.203 104.318 183.733C105.746 177.282 107.609 172.068 110.6 165.553C113.403 159.448 116.405 155.385 117.29 154.597C117.584 154.335 117.882 155.361 117.816 156.998C117.485 165.21 115.409 170.414 113.385 175.795C112.925 177.017 112.496 177.862 112.127 178.586C111.758 179.311 111.422 179.869 111.22 179.735C106.807 176.808 112.742 163.718 114.69 157.228C115.341 155.059 116.359 152.466 117.003 151.583C117.646 150.699 117.961 151.635 118.19 152.583C119.688 158.789 118.857 168.175 117.721 176.491C116.721 183.815 115.023 188.793 114.453 190.456C114.156 191.249 113.841 191.942 113.434 191.997C113.026 192.051 112.535 191.447 112.143 189.819" stroke="#874FFF" stroke-width="4" stroke-linecap="round" stroke-linejoin="round"/>
<path d="M44.7334 147.123C44.4213 147.123 43.7279 146.813 42.8294 146.698C40.2103 146.362 37.0662 154.532 33.5541 158.592C28.3509 164.608 18.5976 170.612 14.2558 175.474C12.5636 177.369 9.13978 179.535 5.04493 182.195C3.45652 183.227 2.887 183.661 9.25668 184.11C15.6263 184.559 28.9588 185.022 36.7687 185.405C49.7116 186.04 53.4978 187.896 55.6661 188.9C56.6093 189.336 57.1404 189.858 57.1676 190.385C57.1949 190.912 56.6784 191.488 56.0061 191.94C54.6062 192.88 52.237 193.328 49.1832 193.863C45.8799 194.442 37.2643 194.314 26.3304 194.345C20.997 194.36 18.9269 195.071 18.0562 195.484C17.9103 195.553 18.7835 195.747 30.2364 195.395C41.6894 195.044 63.8026 194.246 75.8991 193.956C89.4022 193.632 92.2242 194.58 94.5719 195.351C95.5597 195.675 96.1071 195.963 96.6509 196.332C97.1946 196.702 97.7111 197.169 97.7378 197.621C97.7644 198.073 97.2856 198.495 96.0893 198.7C93.0253 199.224 85.8664 198.499 78.5058 197.917C76.3117 197.744 77.2626 197.603 84.648 197.38C92.0334 197.157 105.829 196.802 116.064 196.277C126.299 195.751 132.557 195.066 137.227 194.68C141.898 194.294 144.793 194.227 145.958 194.313C146.55 194.357 142.154 195.381 132.17 196.929C125.823 197.914 116.918 199.606 113.067 200.428C109.217 201.251 110.702 201.23 118.284 200.079C125.866 198.928 139.5 196.647 147.354 195.251C161.293 192.773 167.179 189.397 168.814 188.938C170.272 188.528 163.282 190.163 143.117 195.471C140.206 196.237 141.351 196.415 142.616 196.304C148.324 195.806 154.532 193.166 158.726 191.061C159.712 190.566 160.673 189.705 161.431 189.073C162.189 188.442 162.662 187.953 162.836 187.336C163.01 186.718 162.87 185.987 162.362 185.578C161.192 184.633 159.331 185.032 157.805 185.143C156.238 185.256 152.415 186.835 148.024 188.262C146.717 188.686 147.168 187.98 148.297 186.852C153.814 181.339 157.446 176.764 159.747 172.547C162.061 168.303 162.148 161.837 162.497 156.304C162.584 154.921 162.547 153.791 162.764 152.932C162.982 152.073 163.418 151.518 163.753 151.607C164.088 151.697 164.308 152.449 164.411 153.279C165.592 162.809 161.131 177.603 160.564 178.343C160.372 178.594 159.971 177.8 159.768 176.738C159.281 174.204 159.389 168.496 159.629 161.051C160.261 155.314 161.898 147.915 163.751 141.506C164.394 140.013 164.432 142.093 164.47 144.237" stroke="#874FFF" stroke-width="4" stroke-linecap="round" stroke-linejoin="round"/>
<path d="M48.115 143.61C48.0559 143.61 47.9968 143.61 47.9072 143.244C47.8176 142.878 47.6994 142.147 47.9744 141.505C48.5848 140.08 51.1343 138.765 53.7558 137.31C54.8016 136.73 55.4906 137.054 55.8066 137.544C56.1225 138.034 56.101 138.828 55.8427 139.492C55.3274 140.816 48.0292 146.331 35.8564 155.572C26.0129 163.045 20.5002 166.101 18.5051 168.079C11.2378 175.286 7.6592 178.54 6.7046 179.45C6.50821 179.638 7.58803 179.671 8.72772 179.371C11.2508 178.707 14.0249 177.149 19.386 173.356C29.9884 165.855 37.1459 159.423 38.9835 157.681C41.1114 155.664 43.439 153.385 44.9845 151.996C45.3094 151.704 44.5093 152.024 40.4 155.218C36.2906 158.413 28.8471 164.414 21.9841 170.287C8.89882 181.485 2.35079 188.031 2.01041 188.938C1.88508 189.272 2.89539 189.335 4.82544 188.438C16.6496 182.939 25.0388 177.976 28.8004 177.199C29.6337 177.027 30.3757 177.12 30.8328 177.517C31.29 177.914 31.4512 178.708 31.3166 179.439C30.0865 186.118 20.7427 191.32 19.8762 192.402C19.4299 192.959 19.0312 193.592 18.947 194.232C18.8628 194.873 19.1208 195.517 19.8368 196.391C20.5528 197.266 21.719 198.353 22.7847 199.111C23.8504 199.869 24.7802 200.266 25.8718 200.527C28.1611 201.075 31.155 201.017 34.2012 200.974C36.4763 200.941 43.4292 199.84 53.7744 198.439C60.6036 197.514 63.9217 197.973 65.3564 198.238C66.8664 198.594 68.8298 199.223 70.9006 199.94C71.7997 200.235 72.3909 200.39 73 200.549" stroke="#874FFF" stroke-width="4" stroke-linecap="round" stroke-linejoin="round"/>
<path d="M112.736 153.042C112.594 152.907 112.451 152.773 112.217 152.415C111.983 152.056 111.66 151.478 111.625 150.812C111.59 150.147 111.853 149.414 112.239 148.826C112.626 148.238 113.129 147.819 113.478 148.079C113.827 148.339 114.008 149.291 114.393 156.596C114.778 163.901 115.363 177.53 115.533 185.119C115.703 192.709 115.441 193.845 115.035 194.974C114.217 197.25 113.088 198.932 112.185 200.112C110.069 202.875 104.237 206.015 99.8054 207.962C99.215 208.221 99.0347 207.104 99.161 206.304C99.4289 204.607 101.305 201.881 105.139 196.375C111.392 187.393 116.244 181.882 116.744 181.334C117.257 180.771 116.854 184.436 116.77 187.25C116.732 188.516 116.342 189.423 115.974 190.238C115.27 191.795 114.117 193.204 112.79 194.681C109.144 197.646 105.418 199.808 103.24 200.57C101.969 200.976 100.362 201.42 97 202.285" stroke="#874FFF" stroke-width="4" stroke-linecap="round" stroke-linejoin="round"/>
</svg>
