<svg width="298" height="256" viewBox="0 0 298 256" fill="none" xmlns="http://www.w3.org/2000/svg">
<path d="M223.582 13.3947C223.601 13.4106 223.619 13.4266 223.612 13.1736C223.606 12.9207 223.574 12.3984 223.296 11.9861C222.061 10.1528 219.371 10.1221 217.292 9.53231C215.162 8.92801 213.214 8.14087 211.12 7.80986C209.027 7.47923 206.878 7.35784 204.513 6.86196C202.345 6.40765 200.276 6.0643 192.024 6.00095C188.436 5.9734 186.334 6.54991 184.218 7.08309C182.123 7.611 180.08 8.20263 177.624 9.00834C174.496 10.0349 172.24 10.7982 170.099 11.3967C169.084 11.6806 167.97 11.9809 166.795 12.3799C164.509 13.156 162.937 14.8201 161.097 15.8439C159.276 16.8572 157.502 18.0115 155.49 19.3312C153.593 20.5749 151.859 21.8099 150.446 23.3524C149.008 24.9223 148.582 27.1623 147.561 29.1063C146.394 31.3284 144.953 33.4061 144.174 35.4702C143.381 37.5703 142.856 40.2702 141.959 42.4204C141.113 44.4505 140.98 47.1593 140.518 49.524C139.542 54.5215 140.357 63.9957 140.472 66.8978C140.558 69.0587 141.022 71.1256 140.885 74.4809C140.743 77.9265 133.158 78.0918 130.874 78.7071C128.362 79.3837 125.152 78.9787 122.361 78.8731C120.204 78.7915 114.092 78.5415 109.711 78.437C106.777 78.367 105.144 78.9262 104.231 79.3083C103.778 79.4981 103.543 80.0439 103.592 80.5237C103.816 82.7484 106.628 84.3394 108.695 85.9686C109.818 86.854 111.286 86.8428 112.297 87.1499C112.811 87.3058 113.226 87.7244 113.597 88.1262C113.968 88.5281 114.257 88.9676 114.541 89.4137C114.825 89.8598 115.095 90.2993 114.964 90.5082C113.945 92.1329 110.37 92.0559 107.771 92.9843C104.289 94.2279 100.802 96.3503 98.7128 97.885C96.1984 99.7326 94.6671 102.232 92.836 103.566C90.3129 105.405 87.6552 106.463 85.5859 108.006C82.5836 110.247 80.9691 111.731 79.1701 114.135C77.3689 116.542 74.7766 119.268 71.1864 122.632C69.2027 124.49 66.9667 127.075 65.0022 130.031C64.323 131.053 63.7862 131.98 63.6031 132.56C63.416 133.153 66.6937 130.417 72.8286 125.609C79.7053 120.219 81.1158 119.128 81.4918 118.77C81.552 118.713 81.3271 119.39 81.019 119.904C79.6814 122.139 70.614 129.495 64.4522 135.098C60.9319 138.299 58.1181 140.501 54.4212 142.485C51.4652 144.071 49.8947 145.653 48.531 147.374C46.5283 149.901 43.0667 152.746 41.0433 154.26C39.1102 155.706 36.7228 156.52 35.1919 157.073C32.4923 158.048 43.202 156.797 46.063 156.005C46.7147 155.824 47.3464 155.556 47.4501 155.57C48.9873 155.777 43.6961 158.641 36.0616 163.994C32.0793 166.786 28.6227 171.261 25.9033 174.32C25.7227 174.523 26.4061 174.465 27.0724 174.193C29.821 173.069 33.5629 170.476 37.8772 168.161C40.79 166.598 43.5239 166.062 45.1137 165.407C47.5623 164.399 35.0263 176.139 30.3172 180.623C28.2799 182.563 26.1494 184.611 23.8646 186.682C21.1179 189.172 17.2508 191.168 14.9983 193.307C13.2791 194.939 12.122 197.114 10.5883 199.191C8.05429 202.621 6.36374 204.372 5.79444 205.169C5.51218 205.564 5.58259 206.134 5.42199 206.615C5.09943 207.581 4.25304 208.411 4.00661 209.109C3.91362 209.373 4.8188 209.368 5.63099 209.166C9.38947 208.231 12.5878 205.494 19.1896 199.78C21.306 197.948 22.6393 197.128 23.7385 196.507C24.7476 195.937 25.8611 195.624 27.2055 195.393C27.9832 195.259 28.9852 195.314 29.3462 195.577C29.7073 195.839 29.4048 196.365 29.0886 196.922C27.4577 199.797 24.1147 205.92 22.2714 209.2C22.0122 209.662 21.8297 210.162 22.0374 210.272C22.2452 210.381 22.8684 210.094 23.7807 209.431C28.027 206.342 30.3397 203.213 32.2086 201.215C33.7205 199.6 29.5495 208.44 27.8164 211.884C27.5113 212.49 27.1826 212.888 27.2378 212.946C28.3857 214.138 30.7374 209.978 33.0796 207.949C37.2756 204.313 41.0006 202.59 43.9515 201.052C46.3606 199.796 47.7778 197.985 49.5649 196.755C51.9059 195.144 55.8729 193.028 62.1688 189.423C64.9591 187.824 67.097 186.321 68.5392 185.485C70.2482 184.496 65.0622 190.268 62.9289 193.015C61.3368 195.065 59.8132 196.422 59.0041 197.385C58.6775 197.773 59.0886 198.297 59.5486 198.498C60.5675 198.943 64.9409 197.464 71.4438 195.312C76.4162 193.666 79.7765 191.678 82.7923 189.824C89.4524 185.732 94.9123 182.683 98.2053 180.63C98.7647 180.294 99.2368 180.058 99.6907 179.793C100.145 179.529 100.566 179.242 101.001 178.947" stroke="#DA0808" stroke-width="4" stroke-linecap="round" stroke-linejoin="round"/>
<path d="M100.431 181.302C100.303 181.302 99.8108 181.015 99.1902 180.885C98.4286 180.725 98.8829 183.069 98.403 184.557C97.6042 187.034 96.2594 188.201 96.1008 188.882C96.0258 189.204 96.9916 189.296 98.0403 189.366C103.325 189.722 107.804 188.247 111.479 187.105C113.944 186.338 115.161 184.733 116.254 184.339C116.87 184.117 117.704 184.184 117.921 184.353C119.194 185.345 115.986 187.616 115.286 189.472C115.145 189.847 115.882 190.126 117.013 190.197C125.895 189.946 135.408 190.046 137.929 190.227C138.145 190.304 137.654 190.457 137.149 190.769" stroke="#DA0808" stroke-width="4" stroke-linecap="round" stroke-linejoin="round"/>
<path d="M137.663 192.042C137.837 192.042 138.431 191.874 138.933 191.651C138.982 191.63 138.409 191.665 137.845 191.919C136.615 192.472 135.269 193.807 133.829 195.143C133.195 195.732 132.778 196.161 132.797 196.548C132.816 196.935 133.288 197.273 135.912 197.15C138.536 197.028 143.297 196.436 148.606 196.24" stroke="#DA0808" stroke-width="4" stroke-linecap="round" stroke-linejoin="round"/>
<path d="M149.272 196.8C149.36 197.341 149.224 199.485 148.622 201.968C148.025 204.435 146.635 206.61 145.365 209.306C144.323 211.519 144.153 213.656 143.578 215.669C143.434 216.171 143.413 216.689 143.227 217.179C142.45 219.219 140.724 220.721 139.77 222.319C139.573 222.65 140.155 223.074 140.614 223.282C141.548 223.704 142.74 223.592 143.731 223.878C144.198 224.012 144.379 224.606 144.408 225.137C144.53 227.39 143.267 229.347 142.92 231.54C142.884 233.043 143.017 234.434 143.322 235.503C143.493 236.033 143.699 236.54 143.44 238.084" stroke="#DA0808" stroke-width="4" stroke-linecap="round" stroke-linejoin="round"/>
<path d="M122.429 246.22C122.429 246.239 122.429 246.258 122.174 246.317C121.92 246.376 121.411 246.475 121.023 246.282C120.635 246.089 120.383 245.602 120.304 245.073C120.224 244.543 120.325 243.986 120.531 243.495C120.736 243.004 121.043 242.596 121.403 242.227C121.763 241.858 122.166 241.539 122.619 241.281C123.526 240.765 125.653 240.578 128.565 240.25C130.376 240.045 131.867 239.571 132.933 239.68C133.472 239.736 133.973 240.01 134.514 240.123C136.883 240.103 139.03 239.745 140.854 239.615C141.935 239.571 143.333 239.571 145.134 239.464" stroke="#DA0808" stroke-width="4" stroke-linecap="round" stroke-linejoin="round"/>
<path d="M123.915 245.351C123.878 245.351 123.35 245.469 122.573 245.386C122.239 245.351 122.29 244.664 122.535 244.183C123.068 243.136 124.495 242.422 125.789 241.708C126.375 241.385 126.881 241.262 127.134 241.454C127.386 241.646 127.386 242.188 127.26 242.71C127.134 243.233 126.882 243.72 126.752 244.428C126.623 245.136 126.623 246.05 126.884 246.546C127.145 247.043 127.667 247.094 128.198 247.077C129.255 247.043 130.311 246.784 131.298 246.435C132.301 246.08 132.891 244.425 134.109 242.754C134.51 242.401 134.982 242.114 135.471 242.035C135.959 241.956 136.449 242.093 137.357 242.485" stroke="#DA0808" stroke-width="4" stroke-linecap="round" stroke-linejoin="round"/>
<path d="M130.247 243.305C130.604 243.086 134.192 240.95 137.496 239.472C138.106 239.317 138.647 239.266 139.036 239.475C139.424 239.685 139.644 240.156 140.065 241.211" stroke="#DA0808" stroke-width="4" stroke-linecap="round" stroke-linejoin="round"/>
<path d="M140.273 241.211C139.274 241.598 137.301 242.346 136.296 242.86C134.612 243.72 142.65 242.031 146.009 241.552C146.591 241.431 147.132 241.294 147.681 241.131C148.23 240.968 148.771 240.784 149.578 240.796" stroke="#DA0808" stroke-width="4" stroke-linecap="round" stroke-linejoin="round"/>
<path d="M141.343 242.388C141.939 242.538 143.981 243.619 146.443 244.876C148.98 246.17 150.601 246.596 151.532 247.25C152.468 247.908 153.009 248.96 153.821 249.64C155.436 250.992 157.452 251.779 159.237 252.897C159.694 253.183 160.21 253.398 160.731 253.553C161.252 253.708 161.774 253.775 162.282 253.717C164.325 253.483 166.274 252.141 168.175 251.02C168.635 250.749 169.044 250.424 169.481 250.419C171.569 250.397 173.574 252.185 175.266 252.931C175.567 253.064 175.747 252.319 175.715 251.805C175.684 251.291 175.445 250.785 175.13 250.314C173.875 248.439 172.027 247.233 170.233 246.13C168.458 245.038 166.165 245.132 164.08 244.602C163.541 244.465 162.958 244.499 162.427 244.601C160.364 244.996 158.351 245.559 154.587 245.594C153.717 245.602 153.19 245.542 152.701 245.388C152.212 245.235 151.776 244.964 151.552 244.361C151.328 243.758 151.328 242.832 151.596 242.37C151.864 241.909 152.4 241.941 152.956 242.033C154.082 242.222 155.472 242.437 156.992 242.378C159.318 242.288 161.389 241.145 163.58 239.91C164.526 239.306 165.401 238.689 166.291 238.109C166.761 237.851 167.265 237.667 168.353 237.216" stroke="#DA0808" stroke-width="4" stroke-linecap="round" stroke-linejoin="round"/>
<path d="M166.77 238.499C167.2 238.564 169.517 238.225 172.836 238.009C174.159 237.923 175.172 237.427 176.157 237.169C176.657 237.038 177.212 237.217 177.717 237.395C178.222 237.574 178.676 237.825 178.639 237.87C177.525 239.245 174.932 235.912 172.554 235.319C170.407 234.784 168.738 234.75 167.74 234.528C167.243 234.417 166.725 234.541 166.286 234.76C164.312 235.747 163.092 238.234 161.442 239.578C160.971 239.826 160.448 239.976 158.719 240.053C156.991 240.13 154.071 240.13 151.064 240.13" stroke="#DA0808" stroke-width="4" stroke-linecap="round" stroke-linejoin="round"/>
<path d="M154.397 198.383C154.461 198.249 154.764 197.591 155.158 196.967C155.431 196.534 153.406 202.653 150.562 209.984C148.302 215.811 147.756 220.993 147.136 223.041C146.977 223.568 146.708 224.062 146.723 224.558C146.786 226.685 148.028 229.019 148.562 231.419C148.814 232.547 149.141 233.716 149.611 234.85C150.824 236.701 151.917 237.826 152.632 238.687C153.009 239.141 153.412 239.628 153.925 240.285" stroke="#DA0808" stroke-width="4" stroke-linecap="round" stroke-linejoin="round"/>
<path d="M145.953 233.076C145.953 233.139 145.953 234.102 146.063 235.747C146.112 236.468 146.393 236.933 146.598 236.932C146.803 236.931 146.987 236.444 147.031 235.905C147.228 233.492 146.311 230.986 146.25 228.657C146.233 228.017 146.222 227.309 146.188 227.257C146.103 227.829 146.069 229.874 146.172 232.309C146.257 233.343 146.409 233.967 146.564 234.61" stroke="#DA0808" stroke-width="4" stroke-linecap="round" stroke-linejoin="round"/>
<path d="M154.549 201.509C155.865 200.004 158.888 196.428 159.23 195.96C160.927 193.639 153.471 202.533 151.686 204.792C151.172 205.441 151.908 205.382 152.565 205.026C153.994 204.255 154.999 203.099 155.793 202.272C157.33 200.67 158.005 198.908 158.563 197.655C158.82 197.078 159.295 196.759 159.641 196.83C159.986 196.901 160.256 197.407 160.343 198.031C160.869 201.823 158.319 206.665 157.256 208.526C155.091 212.316 164.598 195.865 167.177 192.238C169.011 190.479 170.582 188.985 172.019 187.922C172.092 187.95 171.735 188.354 171.006 189.176" stroke="#DA0808" stroke-width="4" stroke-linecap="round" stroke-linejoin="round"/>
<path d="M160.729 203.092C161.138 202.688 165.768 195.892 170.288 189.745C171.973 187.455 176.141 184.918 180.493 181.924C181.806 180.94 181.302 181.042 180.856 181.289C180.411 181.536 180.04 181.924 180.324 182.836" stroke="#DA0808" stroke-width="4" stroke-linecap="round" stroke-linejoin="round"/>
<path d="M164.257 196.954C164.379 196.448 165.504 194.541 167.002 192.757C170.316 188.809 179.724 186.207 185.717 181.805C186.884 180.897 187.305 180.54 187.793 180.374C188.28 180.208 188.821 180.243 190.198 179.661" stroke="#DA0808" stroke-width="4" stroke-linecap="round" stroke-linejoin="round"/>
<path d="M189.531 179.304C189.531 179.272 189.802 179.727 190.227 180.957C190.481 181.689 190.415 182.748 190.33 183.642C189.951 187.666 187.211 192.168 185.065 195.637C183.599 198.466 182.849 200.887 182.236 202.924C182.048 203.412 181.828 203.887 180.935 205.196" stroke="#DA0808" stroke-width="4" stroke-linecap="round" stroke-linejoin="round"/>
<path d="M181.449 206.47C181.275 206.502 181.712 206.4 182.696 206.433C183.177 206.45 183.524 207.008 183.892 207.487C184.643 208.466 185.196 209.502 185.571 210.499C185.725 211.022 185.808 211.58 185.85 213.149C185.893 214.717 185.893 217.281 186.101 219.671" stroke="#DA0808" stroke-width="4" stroke-linecap="round" stroke-linejoin="round"/>
<path d="M166.201 223.503C166.54 223.121 167.971 221.452 169.625 219.881C170.031 219.496 170.474 219.214 170.946 218.99C171.417 218.766 171.926 218.632 172.179 218.867C172.432 219.102 172.413 219.711 172.665 219.956C172.917 220.2 173.439 220.063 173.557 220.221C173.675 220.378 173.373 220.833 172.972 221.213C172.571 221.592 172.08 221.882 172.139 222.006C172.198 222.13 172.822 222.079 173.372 221.892C174.441 221.528 175.338 220.781 175.838 220.253C176.016 220.066 175.381 219.76 175.367 219.764C174.877 219.917 176.503 220.754 177.113 221.43C177.408 221.756 178.059 221.545 178.674 221.35C179.979 220.935 181.102 220.304 182.087 219.973C182.601 219.877 183.142 219.928 183.672 220.021C184.203 220.114 184.707 220.248 185.643 220.588" stroke="#DA0808" stroke-width="4" stroke-linecap="round" stroke-linejoin="round"/>
<path d="M184.976 220.694C184.875 220.694 185.263 221.016 186.216 221.529C187.196 222.056 188.534 221.823 189.261 221.932C189.397 221.952 188.856 222.257 188.342 222.403C187.828 222.55 187.306 222.62 187.138 222.393C186.969 222.167 187.171 221.641 187.36 221.616C187.548 221.59 187.718 222.081 189.073 222.538" stroke="#DA0808" stroke-width="4" stroke-linecap="round" stroke-linejoin="round"/>
<path d="M186.768 222.229C186.795 222.197 187.268 221.91 188.223 221.508C190.205 220.674 192.957 222.177 195.364 222.543C196.759 222.755 198.062 222.503 199.062 222.521C199.568 222.53 200.029 222.908 200.561 223.064C201.093 223.219 201.671 223.235 202.129 223.041C202.586 222.847 202.907 222.443 202.827 222.158C202.747 221.873 202.257 221.72 201.718 221.693C200.605 221.635 199.526 222.091 199.028 222.281C197.424 222.892 201.918 220.555 202.954 220.114C203.507 219.878 204.16 219.739 204.364 219.897C204.569 220.056 204.317 220.546 203.917 220.917C203.516 221.287 202.976 221.523 202.877 221.968" stroke="#DA0808" stroke-width="4" stroke-linecap="round" stroke-linejoin="round"/>
<path d="M204.966 221.734C204.988 221.745 205.189 221.75 205.554 221.71C206.252 221.634 206.988 221.045 207.761 220.703C208.968 220.168 210.253 220.017 210.553 220.058C211.197 220.145 211.186 221.254 211.483 222.061C211.601 222.38 211.54 222.909 211.514 223.264C211.222 224.257 210.577 225.377 209.893 226.368C209.742 226.563 209.616 226.701 209.274 226.983" stroke="#DA0808" stroke-width="4" stroke-linecap="round" stroke-linejoin="round"/>
<path d="M187.102 214.222C187.125 214.222 187.149 214.222 187.246 214.248C187.344 214.274 187.515 214.326 187.641 214.496C188.243 215.311 188.443 216.179 188.868 216.846C189.07 217.162 189.24 217.5 189.436 217.81C189.533 217.963 189.679 218.068 189.847 218.058C190.698 218.009 191.338 217.214 192.077 216.964C192.872 216.695 193.649 216.468 194.443 216.359C195.314 216.24 195.927 215.731 198.304 214.965C200.398 214.291 201.186 213.728 202.007 213.205C202.346 212.99 202.693 212.89 203.024 212.781C203.692 212.561 204.446 212.727 205.546 212.743C206.633 212.758 207.803 212.589 208.755 212.514C208.938 212.499 209.122 212.532 209.205 212.63C209.288 212.728 209.265 212.9 209.13 213.06C208.493 213.815 207.644 214.047 206.973 214.447C206.207 214.903 205.231 215.079 203.788 215.5C203.131 215.691 202.615 215.782 202.311 215.762C202.203 215.697 202.185 215.52 202.26 215.382C202.334 215.245 202.501 215.153 202.88 214.953" stroke="#DA0808" stroke-width="4" stroke-linecap="round" stroke-linejoin="round"/>
<path d="M210.524 213.737C210.645 213.76 211.444 213.701 212.554 213.838C212.82 213.871 213.024 213.962 213.194 214.08C213.363 214.198 213.489 214.365 213.56 214.554C213.63 214.743 213.641 214.95 213.464 215.648" stroke="#DA0808" stroke-width="4" stroke-linecap="round" stroke-linejoin="round"/>
<path d="M183.87 204.923C183.87 204.936 183.9 204.73 183.993 204.278C184.098 203.767 184.539 202.937 185.171 201.751C185.842 200.492 187.02 199 188.511 196.939C189.334 195.801 190.161 194.385 191.33 192.723C192.498 191.061 193.949 189.172 195.003 187.701C196.739 185.279 197.549 183.895 198.283 183.047C200.585 180.389 201.898 178.672 202.752 177.462C203.505 176.395 204.692 175.391 206.225 174.026C207.057 173.286 207.481 172.464 208.1 171.7C208.715 170.938 209.358 170.008 210.014 169.116C210.212 168.887 210.47 168.607 210.649 168.373C210.828 168.139 210.92 167.961 211.152 167.639" stroke="#DA0808" stroke-width="4" stroke-linecap="round" stroke-linejoin="round"/>
<path d="M225.229 13.5988C225.301 13.5486 225.69 13.3172 226.367 13.1337C227.75 12.759 229.364 14.3685 232.656 14.9394C235.516 15.4355 237.604 15.4672 240.45 16.3238C243.485 17.2373 245.581 17.2655 249.084 17.2768C251.16 17.2835 253.634 16.8016 260.036 16.6066C264.766 16.4626 272.513 16.5555 276.781 16.6105C281.048 16.6655 281.603 16.7637 282.101 16.8805C283.852 17.291 285.301 17.8787 286.906 18.0119C288.657 18.1572 291.879 18.2972 294.25 18.1537C294.633 18.1305 295.019 18.0765 295.176 18.2643C295.333 18.4522 295.248 18.8632 293.558 19.9644C291.867 21.0655 288.575 22.8443 285.711 24.4686C280.471 27.44 275.888 30.118 271.68 32.3938C264.506 36.2734 260.225 39.0753 258.606 40.4363C257.243 41.5819 255.654 44.4907 253.872 46.8971C251.145 49.914 249.368 51.6411 247.609 53.2061C247.271 53.5197 247.018 53.7846 246.608 54.9017" stroke="#DA0808" stroke-width="4" stroke-linecap="round" stroke-linejoin="round"/>
<path d="M245.761 56.0019L245.612 55.8566" stroke="#DA0808" stroke-width="4" stroke-linecap="round" stroke-linejoin="round"/>
<path d="M246.279 56.5901C246.325 57.0011 246.86 58.4932 247.794 60.4666C248.528 62.0169 249.13 63.5051 249.927 64.7781C250.725 66.0518 251.225 67.6846 251.737 69.4045C252.241 71.0946 252.665 72.7498 253.194 74.4894C253.683 76.0955 254.287 80.534 254.568 85.6053C254.695 87.8877 254.769 89.7452 254.867 91.3169C255.021 93.7923 255.429 97.4076 255.759 101.063C256.179 105.717 255.743 110.932 255.441 112.506C255.14 114.07 255.03 115.629 254.739 117.117C254.438 118.654 254.259 119.843 254.074 120.247C254.015 120.376 253.705 119.95 253.477 119.491C252.456 117.439 251.866 115.199 251.115 112.982C250.5 111.168 249.568 109.604 248.938 108.451C247.657 106.104 248.359 116.138 247.978 118.004C247.535 120.181 247.038 122.488 246.411 124.332C245.85 125.984 244.995 127.625 243.31 130.636C242.041 132.905 240.9 134.171 239.801 136.002C239.3 136.836 238.801 137.695 238.164 138.488C237.868 138.856 237.575 139.11 237.372 139.059C237.169 139.008 237.051 138.634 237.013 138.204C236.832 136.156 237.376 134.048 237.818 131.552C238.065 130.164 238.114 128.259 238.075 126.654C238.064 126.233 237.917 126.624 237.758 127.085C237.066 129.084 235.47 133.082 234.06 136.426C232.545 140.019 231.018 141.603 229.434 143.814C227.876 145.987 226.871 147.771 226.383 148.384C225.402 149.616 224.05 150.421 223.15 151.667C222.154 153.044 220.335 155.444 218.798 157.445C217.731 158.833 216.661 159.922 215.33 161.267C214.048 162.563 213.507 164.178 212.69 165.923C212.383 166.84 212.077 167.824 211.708 168.758C211.507 169.171 211.277 169.461 210.343 170.085" stroke="#DA0808" stroke-width="4" stroke-linecap="round" stroke-linejoin="round"/>
<path d="M185.369 50.6115C185.369 50.5887 185.176 50.2504 184.846 49.549C184.146 48.0623 184.463 45.5302 184.474 40.6786C184.479 38.4986 185.485 36.7071 186.038 34.4474C186.449 32.7663 186.953 31.1018 187.472 29.5667C187.718 28.8387 187.947 28.0806 188.288 27.3556C189.041 25.753 190.859 24.3058 192.113 23.0126C193.338 21.748 195.468 21.1453 196.904 20.3462C197.568 19.9763 198.062 19.2873 198.681 18.7509C199.259 18.2498 199.98 18.0007 200.7 17.8175C201.428 17.6324 202.532 17.6744 203.815 17.7349C205.711 17.8244 207.369 18.8307 209.058 19.2087C210.949 19.632 212.111 19.1893 212.83 19.3647C214.297 19.7228 215.44 21.2031 216.859 22.0653C218.241 22.9045 219.946 23.7642 221.326 25.0123C222.711 26.2645 223.475 27.828 224.495 29.0044C225.799 30.5089 227.589 32.7513 228.731 34.3182C230.268 36.4255 231.223 38.7203 232.121 40.5724C232.334 41.01 232.416 41.4099 232.472 41.8097C232.528 42.2095 232.528 42.6091 232.436 42.9839C232.042 44.5865 230.594 45.886 229.626 47.295C228.599 48.7879 227.41 49.9578 226.226 51.0914C224.984 52.2795 224.159 53.9205 223.072 55.2361C221.926 56.624 220.249 58.1988 218.787 59.4484C217.536 60.5169 216.091 61.284 214.633 62.0893C213.874 62.5087 213.085 62.8619 212.364 63.2529C210.706 64.153 209.533 65.7696 208.507 66.1801C205.705 67.3016 203.881 65.9977 202.23 65.5928C200.412 65.1469 198.7 64.2968 197.12 63.5406C195.368 62.7019 194.126 61.8262 192.616 61.0153C190.824 60.0529 189.479 58.5654 188.235 57.2766C187.264 55.9824 186.264 54.6427 185.264 53.2634C184.987 52.937 184.685 52.6607 184.453 51.8225" stroke="#DA0808" stroke-width="4" stroke-linecap="round" stroke-linejoin="round"/>
<path d="M195.705 37.4782C195.686 37.4554 195.409 37.7701 194.986 38.5069C193.563 40.9868 194.538 45.3422 194.374 47.0307C194.337 47.412 194.178 47.7582 194.092 48.1266C194.006 48.495 193.96 48.8695 194.106 49.196C194.418 49.8956 195.29 50.2818 196.094 50.7372C197.976 51.8034 199.625 52.1752 201.104 52.9091C201.48 53.0959 201.789 53.3722 202.146 53.5448C203.543 54.2213 205.161 54.0953 206.961 53.9678C209.154 53.2677 210.954 52.5604 213.473 50.9301C214.03 50.5898 214.382 50.4574 214.854 50.0234" stroke="#DA0808" stroke-width="4" stroke-linecap="round" stroke-linejoin="round"/>
<path d="M221.117 39.6786C220.998 40.0832 220.416 42.3183 219.462 45.4226C219.106 46.583 218.556 47.3583 218.108 48.0279C217.244 49.317 215.892 50.1408 215.061 50.8946C212.233 53.4601 219.399 42.0924 219.672 41.3109C219.824 40.877 219.909 40.3375 219.916 39.8819C219.939 38.3117 218.816 36.2702 218.253 34.2867C218.122 33.8255 217.865 33.3547 217.618 32.966C217.372 32.5774 217.102 32.2988 216.771 32.0834C216.1 31.6466 215.308 31.4411 214.969 31.2792C214.942 31.2663 215.37 31.3366 215.69 31.5194C217.325 32.4547 219.116 36.6742 220.008 38.672C220.042 38.7492 219.636 38.4524 219.353 38.1332C218.219 36.8509 217.339 35.1279 216.033 33.5373C215.385 32.7477 214.499 32.1281 213.681 31.5728C213.304 31.3169 212.935 31.2231 212.567 31.2087C212.198 31.1943 211.824 31.2902 211.455 31.2791C210.735 31.147 210.011 30.8533 209.281 30.5493C208.912 30.4143 208.548 30.3184 207.475 30.2196" stroke="#DA0808" stroke-width="4" stroke-linecap="round" stroke-linejoin="round"/>
<path d="M195.008 39.0559C194.985 39.0445 194.962 39.033 194.926 38.8331C194.889 38.6331 194.84 38.2449 195.196 37.7127C197.235 34.6617 200.233 32.9401 202.194 31.7064C202.63 31.4319 203.085 31.3684 203.115 31.3791C202.766 31.536 202.015 31.7573 201.287 31.9742C200.92 32.1203 200.559 32.3395 200.186 32.5653" stroke="#DA0808" stroke-width="4" stroke-linecap="round" stroke-linejoin="round"/>
<path d="M203.592 29.666C203.532 29.7026 203.473 29.7391 203.278 29.8481C203.084 29.9571 202.755 30.1375 203.324 30.2304C207.239 30.4216 209.215 31.1278 210.999 31.5785C211.41 31.6218 211.86 31.6332 211.398 31.6104" stroke="#DA0808" stroke-width="4" stroke-linecap="round" stroke-linejoin="round"/>
<path d="M202.745 30.1435C202.699 30.1663 203.073 30.0571 204.149 29.8737C205.751 29.6005 208.079 30.0055 210.271 30.3726C211.132 30.5457 211.484 30.6918 211.744 30.9418C212.004 31.1917 212.162 31.5411 212.026 32.0118" stroke="#DA0808" stroke-width="4" stroke-linecap="round" stroke-linejoin="round"/>
<path d="M206.161 29.3754C206.147 29.3868 206.134 29.3983 206.31 29.5126C208.515 30.9484 212.703 30.6427 213.808 30.9712C214.344 31.1673 214.83 31.4231 215.298 31.6998C215.765 31.9766 216.199 32.2666 217.303 32.9321" stroke="#DA0808" stroke-width="4" stroke-linecap="round" stroke-linejoin="round"/>
<path d="M207.883 31.2437C207.785 31.3396 207.504 31.679 207.155 32.3913C206.28 34.1797 207.136 36.1367 207.006 37.7431C205.667 41.5244 203.692 45.4783 202.894 46.525C202.542 46.761 202.299 46.398 202.048 46.0239" stroke="#DA0808" stroke-width="4" stroke-linecap="round" stroke-linejoin="round"/>
<path d="M198.862 39.4572C198.691 39.5075 198.215 39.7023 197.774 39.8077C197.35 39.9089 199.717 37.9583 201.952 36.3433C202.714 35.7919 203 36.2284 202.936 36.7049C202.184 42.2924 196.222 48.5943 196.106 48.8898C195.279 50.9938 200.163 41.2141 201.538 38.1988C203.129 34.7092 198.481 47.0741 198.361 47.4533C197.932 48.8166 199.683 42.7948 202.515 37.1322C203.143 35.8762 203.619 35.159 203.736 34.9902C203.891 34.7659 201.162 39.2756 197.769 44.4884C196.69 46.147 196.664 45.6321 196.96 44.5654C198.549 38.8436 200.104 36.0663 200.543 35.2618C200.755 34.874 200.985 34.551 201.135 34.5814C201.284 34.6118 201.356 35.0114 201.157 35.8532C200.032 40.6044 197.933 43.5138 197.354 44.4488C195.693 47.128 202.347 34.8806 204.211 32.6677C204.543 32.2744 204.988 32.1041 205.26 32.1977C205.532 32.2912 205.68 32.7159 205.743 33.1528C205.868 34.0176 205.549 35.2858 205.089 36.9559C203.85 41.4535 200.873 45.782 199.923 47.2763C198.888 48.9045 203.308 40.9944 205.67 37.9126C206.139 37.2995 206.509 36.9846 206.78 36.9795C207.052 36.9743 207.245 37.3145 207.309 37.7558C207.373 38.1971 207.301 38.7292 207.106 39.3606C206.681 40.7362 204.285 44.8432 201.224 49.8202C200.224 51.4465 200.039 51.0477 200.001 50.661C199.765 48.2421 201.851 43.9925 204.118 39.4185C205.834 35.9568 207.526 33.9222 207.947 33.7374C208.146 33.6498 208.282 34.3519 208.309 34.9647C208.42 37.511 207.156 40.6146 205.409 44.7089C204.719 46.3249 203.841 47.4534 203.219 48.0069C203.006 48.1973 202.72 47.615 202.656 47.1357C202.592 46.6564 202.687 46.1472 202.881 45.5641C204.147 41.7512 207.348 37.9733 208.178 36.9172C208.538 36.4585 208.814 36.1876 208.969 36.2565C209.124 36.3253 209.16 36.75 209.01 37.6036C207.928 43.7339 204.404 49.6255 203.63 50.953C201.417 54.7496 209.951 39.0689 211.087 37.6977C211.425 37.2898 211.622 37.8267 211.6 38.3359C211.461 41.672 207.803 48.0704 206.34 50.6752C204.139 54.595 211.311 38.4118 212.075 36.6051C212.303 36.0675 212.514 36.4586 212.588 37.0576C213.038 40.681 211.054 44.3789 210.394 45.6162C209.009 48.2105 211.892 37.316 212.112 36.5807C212.165 36.4014 212.427 36.8136 212.52 37.2484C212.716 38.1626 212.468 39.3788 212.146 40.7262C211.987 41.3889 211.761 41.9891 211.654 42.0474C209.609 43.1648 212.353 36.2149 212.675 34.9682C212.81 34.4458 213.204 34.2558 213.464 34.3496C213.723 34.4433 213.917 34.8544 214.028 35.5993C214.14 36.3442 214.163 37.4106 214.109 38.1597C214.055 38.9089 213.923 39.3085 213.71 39.6354C213.496 39.9622 213.203 40.2043 212.969 40.1589C212.734 40.1134 212.567 39.7732 212.426 38.914C212.064 36.7026 212.003 34.9148 211.945 34.5884C211.693 33.1841 213.086 37.7898 213.97 39.2399C214.175 39.5769 214.211 40.0004 214.127 40.3821C214.043 40.7638 213.79 41.1155 213.441 41.2909C213.092 41.4663 212.655 41.4549 212.31 41.2675C211.965 41.0801 211.725 40.717 211.547 40.3542C211.209 39.663 211.1 38.8412 211.025 37.9692C210.988 37.5341 211 37.1108 211.14 36.7231C211.279 36.3353 211.559 35.9951 211.901 35.7411C212.244 35.487 212.642 35.3295 213.034 35.2551C213.426 35.1808 213.8 35.1945 214.126 35.3763C214.453 35.558 214.719 35.9074 214.93 36.342C215.849 38.2349 215.62 40.0194 215.541 41.0617C215.502 41.5878 215.305 42.0903 215.025 42.654C214.424 43.8639 212.945 45.6337 211.41 47.2147C210.943 47.6956 210.805 47.1721 211.064 46.2453C211.73 43.8585 212.684 42.0448 213.044 41.2415C213.215 40.8575 213.393 40.5341 213.596 40.5109C213.799 40.4876 214.029 40.7776 214.177 41.1268C214.48 41.8421 214.458 43.1094 214.399 44.6278C214.35 45.89 213.826 46.8546 213.346 47.8577C212.702 49.2007 211.88 50.3626 211.247 51.1652C210.957 51.5326 210.66 51.76 210.329 51.92C209.998 52.0801 209.623 52.1509 209.412 51.9762C209.201 51.8014 209.165 51.379 209.219 50.9855C209.488 49.0147 211.436 46.8054 212.817 45.0681C213.365 44.3793 214.132 43.8177 214.963 43.2451C215.351 42.9785 215.749 42.8895 215.979 43.0144C216.21 43.1393 216.283 43.5138 216.187 44.0035C215.594 47.0313 212.223 50.3165 210.757 51.8137C210.09 52.4956 209.123 53.0328 208.705 53.1754C205.8 54.1658 213.517 47.5234 215.48 44.4286C216.471 42.8654 216.781 41.7146 217.093 40.9724C217.248 40.6053 217.488 40.3009 217.624 40.3315C217.761 40.3621 217.81 40.748 217.678 41.0621C217.545 41.3763 217.23 41.6069 217.006 41.5442C216.783 41.4814 216.662 41.1184 216.536 40.7443" stroke="#DA0808" stroke-width="4" stroke-linecap="round" stroke-linejoin="round"/>
<path d="M221.582 9.39473C221.601 9.41065 221.619 9.42657 221.612 9.17364C221.606 8.9207 221.574 8.39842 221.296 7.98606C220.061 6.15277 217.371 6.12209 215.292 5.53231C213.162 4.92801 211.214 4.14087 209.12 3.80986C207.027 3.47923 204.878 3.35784 202.513 2.86196C200.345 2.40765 198.276 2.0643 190.024 2.00095C186.436 1.9734 184.334 2.54991 182.218 3.08309C180.123 3.611 178.08 4.20263 175.624 5.00834C172.496 6.03494 170.24 6.7982 168.099 7.39667C167.084 7.6806 165.97 7.98085 164.795 8.37989C162.509 9.15598 160.937 10.8201 159.097 11.8439C157.276 12.8572 155.502 14.0115 153.49 15.3312C151.593 16.5749 149.859 17.8099 148.446 19.3524C147.008 20.9223 146.582 23.1623 145.561 25.1063C144.394 27.3284 142.953 29.4061 142.174 31.4702C141.381 33.5703 140.856 36.2702 139.959 38.4204C139.113 40.4505 138.98 43.1593 138.518 45.524C137.542 50.5215 138.357 59.9957 138.472 62.8978C138.558 65.0587 139.022 67.1256 138.885 70.4809C138.743 73.9265 131.158 74.0918 128.874 74.7071C126.362 75.3837 123.152 74.9787 120.361 74.8731C118.204 74.7915 112.092 74.5415 107.711 74.437C104.777 74.367 103.144 74.9262 102.231 75.3083C101.778 75.4981 101.543 76.0439 101.592 76.5237C101.816 78.7484 104.628 80.3394 106.695 81.9686C107.818 82.854 109.286 82.8428 110.297 83.1499C110.811 83.3058 111.226 83.7244 111.597 84.1262C111.968 84.5281 112.257 84.9676 112.541 85.4137C112.825 85.8598 113.095 86.2993 112.964 86.5082C111.945 88.1329 108.37 88.0559 105.771 88.9843C102.289 90.2279 98.8016 92.3503 96.7128 93.885C94.1984 95.7326 92.6671 98.2318 90.836 99.5661C88.3129 101.405 85.6552 102.463 83.5859 104.006C80.5836 106.247 78.9691 107.731 77.1701 110.135C75.3689 112.542 72.7766 115.268 69.1864 118.632C67.2027 120.49 64.9667 123.075 63.0022 126.031C62.323 127.053 61.7862 127.98 61.6031 128.56C61.416 129.153 64.6937 126.417 70.8286 121.609C77.7053 116.219 79.1158 115.128 79.4918 114.77C79.552 114.713 79.3271 115.39 79.019 115.904C77.6814 118.139 68.614 125.495 62.4522 131.098C58.9319 134.299 56.1181 136.501 52.4212 138.485C49.4652 140.071 47.8947 141.653 46.531 143.374C44.5283 145.901 41.0667 148.746 39.0433 150.26C37.1102 151.706 34.7228 152.52 33.1919 153.073C30.4923 154.048 41.202 152.797 44.063 152.005C44.7147 151.824 45.3464 151.556 45.4501 151.57C46.9873 151.777 41.6961 154.641 34.0616 159.994C30.0793 162.786 26.6227 167.261 23.9033 170.32C23.7227 170.523 24.4061 170.465 25.0724 170.193C27.821 169.069 31.5629 166.476 35.8772 164.161C38.79 162.598 41.5239 162.062 43.1137 161.407C45.5623 160.399 33.0263 172.139 28.3172 176.623C26.2799 178.563 24.1494 180.611 21.8646 182.682C19.1179 185.172 15.2508 187.168 12.9983 189.307C11.2791 190.939 10.122 193.114 8.58827 195.191C6.05429 198.621 4.36374 200.372 3.79444 201.169C3.51218 201.564 3.58259 202.134 3.42199 202.615C3.09943 203.581 2.25304 204.411 2.00661 205.109C1.91362 205.373 2.8188 205.368 3.63099 205.166C7.38947 204.231 10.5878 201.494 17.1896 195.78C19.306 193.948 20.6393 193.128 21.7385 192.507C22.7476 191.937 23.8611 191.624 25.2055 191.393C25.9832 191.259 26.9852 191.314 27.3462 191.577C27.7073 191.839 27.4048 192.365 27.0886 192.922C25.4577 195.797 22.1147 201.92 20.2714 205.2C20.0122 205.662 19.8297 206.162 20.0374 206.272C20.2452 206.381 20.8684 206.094 21.7807 205.431C26.027 202.342 28.3397 199.213 30.2086 197.215C31.7205 195.6 27.5495 204.44 25.8164 207.884C25.5113 208.49 25.1826 208.888 25.2378 208.946C26.3857 210.138 28.7374 205.978 31.0796 203.949C35.2756 200.313 39.0006 198.59 41.9515 197.052C44.3606 195.796 45.7778 193.985 47.5649 192.755C49.9059 191.144 53.8729 189.028 60.1688 185.423C62.9591 183.824 65.097 182.321 66.5392 181.485C68.2482 180.496 63.0622 186.268 60.9289 189.015C59.3368 191.065 57.8132 192.422 57.0041 193.385C56.6775 193.773 57.0886 194.297 57.5486 194.498C58.5675 194.943 62.9409 193.464 69.4438 191.312C74.4162 189.666 77.7765 187.678 80.7923 185.824C87.4524 181.732 92.9123 178.683 96.2053 176.63C96.7647 176.294 97.2368 176.058 97.6907 175.793C98.1447 175.529 98.5663 175.242 99.0007 174.947" stroke="#F849C1" stroke-width="4" stroke-linecap="round" stroke-linejoin="round"/>
<path d="M98.4314 177.302C98.3031 177.302 97.8108 177.015 97.1902 176.885C96.4286 176.725 96.8829 179.069 96.403 180.557C95.6042 183.034 94.2594 184.201 94.1008 184.882C94.0258 185.204 94.9916 185.296 96.0403 185.366C101.325 185.722 105.804 184.247 109.479 183.105C111.944 182.338 113.161 180.733 114.254 180.339C114.87 180.117 115.704 180.184 115.921 180.353C117.194 181.345 113.986 183.616 113.286 185.472C113.145 185.847 113.882 186.126 115.013 186.197C123.895 185.946 133.408 186.046 135.929 186.227C136.145 186.304 135.654 186.457 135.149 186.769" stroke="#F849C1" stroke-width="4" stroke-linecap="round" stroke-linejoin="round"/>
<path d="M135.663 188.042C135.837 188.042 136.431 187.874 136.933 187.651C136.982 187.63 136.409 187.665 135.845 187.919C134.615 188.472 133.269 189.807 131.829 191.143C131.195 191.732 130.778 192.161 130.797 192.548C130.816 192.935 131.288 193.273 133.912 193.15C136.536 193.028 141.297 192.436 146.606 192.24" stroke="#F849C1" stroke-width="4" stroke-linecap="round" stroke-linejoin="round"/>
<path d="M147.272 192.8C147.36 193.341 147.224 195.485 146.622 197.968C146.025 200.435 144.635 202.61 143.365 205.306C142.323 207.519 142.153 209.656 141.578 211.669C141.434 212.171 141.413 212.689 141.227 213.179C140.45 215.219 138.724 216.721 137.77 218.319C137.573 218.65 138.155 219.074 138.614 219.282C139.548 219.704 140.74 219.592 141.731 219.878C142.198 220.012 142.379 220.606 142.408 221.137C142.53 223.39 141.267 225.347 140.92 227.54C140.884 229.043 141.017 230.434 141.322 231.503C141.493 232.033 141.699 232.54 141.44 234.084" stroke="#F849C1" stroke-width="4" stroke-linecap="round" stroke-linejoin="round"/>
<path d="M120.429 242.22C120.429 242.239 120.429 242.258 120.174 242.317C119.92 242.376 119.411 242.475 119.023 242.282C118.635 242.089 118.383 241.602 118.304 241.073C118.224 240.543 118.325 239.986 118.531 239.495C118.736 239.004 119.043 238.596 119.403 238.227C119.763 237.858 120.166 237.539 120.619 237.281C121.526 236.765 123.653 236.578 126.565 236.25C128.376 236.045 129.867 235.571 130.933 235.68C131.472 235.736 131.973 236.01 132.514 236.123C134.883 236.103 137.03 235.745 138.854 235.615C139.935 235.571 141.333 235.571 143.134 235.464" stroke="#F849C1" stroke-width="4" stroke-linecap="round" stroke-linejoin="round"/>
<path d="M121.915 241.351C121.878 241.351 121.35 241.469 120.573 241.386C120.239 241.351 120.29 240.664 120.535 240.183C121.068 239.136 122.495 238.422 123.789 237.708C124.375 237.385 124.881 237.262 125.134 237.454C125.386 237.646 125.386 238.188 125.26 238.71C125.134 239.233 124.882 239.72 124.752 240.428C124.623 241.136 124.623 242.05 124.884 242.546C125.145 243.043 125.667 243.094 126.198 243.077C127.255 243.043 128.311 242.784 129.298 242.435C130.301 242.08 130.891 240.425 132.109 238.754C132.51 238.401 132.982 238.114 133.471 238.035C133.959 237.956 134.449 238.093 135.357 238.485" stroke="#F849C1" stroke-width="4" stroke-linecap="round" stroke-linejoin="round"/>
<path d="M128.247 239.305C128.604 239.086 132.192 236.95 135.496 235.472C136.106 235.317 136.647 235.266 137.036 235.475C137.424 235.685 137.644 236.156 138.065 237.211" stroke="#F849C1" stroke-width="4" stroke-linecap="round" stroke-linejoin="round"/>
<path d="M138.273 237.211C137.274 237.598 135.301 238.346 134.296 238.86C132.612 239.72 140.65 238.031 144.009 237.552C144.591 237.431 145.132 237.294 145.681 237.131C146.23 236.968 146.771 236.784 147.578 236.796" stroke="#F849C1" stroke-width="4" stroke-linecap="round" stroke-linejoin="round"/>
<path d="M139.343 238.388C139.939 238.538 141.981 239.619 144.443 240.876C146.98 242.17 148.601 242.596 149.532 243.25C150.468 243.908 151.009 244.96 151.821 245.64C153.436 246.992 155.452 247.779 157.237 248.897C157.694 249.183 158.21 249.398 158.731 249.553C159.252 249.708 159.774 249.775 160.282 249.717C162.325 249.483 164.274 248.141 166.175 247.02C166.635 246.749 167.044 246.424 167.481 246.419C169.569 246.397 171.574 248.185 173.266 248.931C173.567 249.064 173.747 248.319 173.715 247.805C173.684 247.291 173.445 246.785 173.13 246.314C171.875 244.439 170.027 243.233 168.233 242.13C166.458 241.038 164.165 241.132 162.08 240.602C161.541 240.465 160.958 240.499 160.427 240.601C158.364 240.996 156.351 241.559 152.587 241.594C151.717 241.602 151.19 241.542 150.701 241.388C150.212 241.235 149.776 240.964 149.552 240.361C149.328 239.758 149.328 238.832 149.596 238.37C149.864 237.909 150.4 237.941 150.956 238.033C152.082 238.222 153.472 238.437 154.992 238.378C157.318 238.288 159.389 237.145 161.58 235.91C162.526 235.306 163.401 234.689 164.291 234.109C164.761 233.851 165.265 233.667 166.353 233.216" stroke="#F849C1" stroke-width="4" stroke-linecap="round" stroke-linejoin="round"/>
<path d="M164.77 234.499C165.2 234.564 167.517 234.225 170.836 234.009C172.159 233.923 173.172 233.427 174.157 233.169C174.657 233.038 175.212 233.217 175.717 233.395C176.222 233.574 176.676 233.825 176.639 233.87C175.525 235.245 172.932 231.912 170.554 231.319C168.407 230.784 166.738 230.75 165.74 230.528C165.243 230.417 164.725 230.541 164.286 230.76C162.312 231.747 161.092 234.234 159.442 235.578C158.971 235.826 158.448 235.976 156.719 236.053C154.991 236.13 152.071 236.13 149.064 236.13" stroke="#F849C1" stroke-width="4" stroke-linecap="round" stroke-linejoin="round"/>
<path d="M152.397 194.383C152.461 194.249 152.764 193.591 153.158 192.967C153.431 192.534 151.406 198.653 148.562 205.984C146.302 211.811 145.756 216.993 145.136 219.041C144.977 219.568 144.708 220.062 144.723 220.558C144.786 222.685 146.028 225.019 146.562 227.419C146.814 228.547 147.141 229.716 147.611 230.85C148.824 232.701 149.917 233.826 150.632 234.687C151.009 235.141 151.412 235.628 151.925 236.285" stroke="#F849C1" stroke-width="4" stroke-linecap="round" stroke-linejoin="round"/>
<path d="M143.953 229.076C143.953 229.139 143.953 230.102 144.063 231.747C144.112 232.468 144.393 232.933 144.598 232.932C144.803 232.931 144.987 232.444 145.031 231.905C145.228 229.492 144.311 226.986 144.25 224.657C144.233 224.017 144.222 223.309 144.188 223.257C144.103 223.829 144.069 225.874 144.172 228.309C144.257 229.343 144.409 229.967 144.564 230.61" stroke="#F849C1" stroke-width="4" stroke-linecap="round" stroke-linejoin="round"/>
<path d="M152.549 197.509C153.865 196.004 156.888 192.428 157.23 191.96C158.927 189.639 151.471 198.533 149.686 200.792C149.172 201.441 149.908 201.382 150.565 201.026C151.994 200.255 152.999 199.099 153.793 198.272C155.33 196.67 156.005 194.908 156.563 193.655C156.82 193.078 157.295 192.759 157.641 192.83C157.986 192.901 158.256 193.407 158.343 194.031C158.869 197.823 156.319 202.665 155.256 204.526C153.091 208.316 162.598 191.865 165.177 188.238C167.011 186.479 168.582 184.985 170.019 183.922C170.092 183.95 169.735 184.354 169.006 185.176" stroke="#F849C1" stroke-width="4" stroke-linecap="round" stroke-linejoin="round"/>
<path d="M158.729 199.092C159.138 198.688 163.768 191.892 168.288 185.745C169.973 183.455 174.141 180.918 178.493 177.924C179.806 176.94 179.302 177.042 178.856 177.289C178.411 177.536 178.04 177.924 178.324 178.836" stroke="#F849C1" stroke-width="4" stroke-linecap="round" stroke-linejoin="round"/>
<path d="M162.257 192.954C162.379 192.448 163.504 190.541 165.002 188.757C168.316 184.809 177.724 182.207 183.717 177.805C184.884 176.897 185.305 176.54 185.793 176.374C186.28 176.208 186.821 176.243 188.198 175.661" stroke="#F849C1" stroke-width="4" stroke-linecap="round" stroke-linejoin="round"/>
<path d="M187.531 175.304C187.531 175.272 187.802 175.727 188.227 176.957C188.481 177.689 188.415 178.748 188.33 179.642C187.951 183.666 185.211 188.168 183.065 191.637C181.599 194.466 180.849 196.887 180.236 198.924C180.048 199.412 179.828 199.887 178.935 201.196" stroke="#F849C1" stroke-width="4" stroke-linecap="round" stroke-linejoin="round"/>
<path d="M179.449 202.47C179.275 202.502 179.712 202.4 180.696 202.433C181.177 202.45 181.524 203.008 181.892 203.487C182.643 204.466 183.196 205.502 183.571 206.499C183.725 207.022 183.808 207.58 183.85 209.149C183.893 210.717 183.893 213.281 184.101 215.671" stroke="#F849C1" stroke-width="4" stroke-linecap="round" stroke-linejoin="round"/>
<path d="M164.201 219.503C164.54 219.121 165.971 217.452 167.625 215.881C168.031 215.496 168.474 215.214 168.946 214.99C169.417 214.766 169.926 214.632 170.179 214.867C170.432 215.102 170.413 215.711 170.665 215.956C170.917 216.2 171.439 216.063 171.557 216.221C171.675 216.378 171.373 216.833 170.972 217.213C170.571 217.592 170.08 217.882 170.139 218.006C170.198 218.13 170.822 218.079 171.372 217.892C172.441 217.528 173.338 216.781 173.838 216.253C174.016 216.066 173.381 215.76 173.367 215.764C172.877 215.917 174.503 216.754 175.113 217.43C175.408 217.756 176.059 217.545 176.674 217.35C177.979 216.935 179.102 216.304 180.087 215.973C180.601 215.877 181.142 215.928 181.672 216.021C182.203 216.114 182.707 216.248 183.643 216.588" stroke="#F849C1" stroke-width="4" stroke-linecap="round" stroke-linejoin="round"/>
<path d="M182.976 216.694C182.875 216.694 183.263 217.016 184.216 217.529C185.196 218.056 186.534 217.823 187.261 217.932C187.397 217.952 186.856 218.257 186.342 218.403C185.828 218.55 185.306 218.62 185.138 218.393C184.969 218.167 185.171 217.641 185.36 217.616C185.548 217.59 185.718 218.081 187.073 218.538" stroke="#F849C1" stroke-width="4" stroke-linecap="round" stroke-linejoin="round"/>
<path d="M184.768 218.229C184.795 218.197 185.268 217.91 186.223 217.508C188.205 216.674 190.957 218.177 193.364 218.543C194.759 218.755 196.062 218.503 197.062 218.521C197.568 218.53 198.029 218.908 198.561 219.064C199.093 219.219 199.671 219.235 200.129 219.041C200.586 218.847 200.907 218.443 200.827 218.158C200.747 217.873 200.257 217.72 199.718 217.693C198.605 217.635 197.526 218.091 197.028 218.281C195.424 218.892 199.918 216.555 200.954 216.114C201.507 215.878 202.16 215.739 202.364 215.897C202.569 216.056 202.317 216.546 201.917 216.917C201.516 217.287 200.976 217.523 200.877 217.968" stroke="#F849C1" stroke-width="4" stroke-linecap="round" stroke-linejoin="round"/>
<path d="M202.966 217.734C202.988 217.745 203.189 217.75 203.554 217.71C204.252 217.634 204.988 217.045 205.761 216.703C206.968 216.168 208.253 216.017 208.553 216.058C209.197 216.145 209.186 217.254 209.483 218.061C209.601 218.38 209.54 218.909 209.514 219.264C209.222 220.257 208.577 221.377 207.893 222.368C207.742 222.563 207.616 222.701 207.274 222.983" stroke="#F849C1" stroke-width="4" stroke-linecap="round" stroke-linejoin="round"/>
<path d="M185.102 210.222C185.125 210.222 185.149 210.222 185.246 210.248C185.344 210.274 185.515 210.326 185.641 210.496C186.243 211.311 186.443 212.179 186.868 212.846C187.07 213.162 187.24 213.5 187.436 213.81C187.533 213.963 187.679 214.068 187.847 214.058C188.698 214.009 189.338 213.214 190.077 212.964C190.872 212.695 191.649 212.468 192.443 212.359C193.314 212.24 193.927 211.731 196.304 210.965C198.398 210.291 199.186 209.728 200.007 209.205C200.346 208.99 200.693 208.89 201.024 208.781C201.692 208.561 202.446 208.727 203.546 208.743C204.633 208.758 205.803 208.589 206.755 208.514C206.938 208.499 207.122 208.532 207.205 208.63C207.288 208.728 207.265 208.9 207.13 209.06C206.493 209.815 205.644 210.047 204.973 210.447C204.207 210.903 203.231 211.079 201.788 211.5C201.131 211.691 200.615 211.782 200.311 211.762C200.203 211.697 200.185 211.52 200.26 211.382C200.334 211.245 200.501 211.153 200.88 210.953" stroke="#F849C1" stroke-width="4" stroke-linecap="round" stroke-linejoin="round"/>
<path d="M208.524 209.737C208.645 209.76 209.444 209.701 210.554 209.838C210.82 209.871 211.024 209.962 211.194 210.08C211.363 210.198 211.489 210.365 211.56 210.554C211.63 210.743 211.641 210.95 211.464 211.648" stroke="#F849C1" stroke-width="4" stroke-linecap="round" stroke-linejoin="round"/>
<path d="M181.87 200.923C181.87 200.936 181.9 200.73 181.993 200.278C182.098 199.767 182.539 198.937 183.171 197.751C183.842 196.492 185.02 195 186.511 192.939C187.334 191.801 188.161 190.385 189.33 188.723C190.498 187.061 191.949 185.172 193.003 183.701C194.739 181.279 195.549 179.895 196.283 179.047C198.585 176.389 199.898 174.672 200.752 173.462C201.505 172.395 202.692 171.391 204.225 170.026C205.057 169.286 205.481 168.464 206.1 167.7C206.715 166.938 207.358 166.008 208.014 165.116C208.212 164.887 208.47 164.607 208.649 164.373C208.828 164.139 208.92 163.961 209.152 163.639" stroke="#F849C1" stroke-width="4" stroke-linecap="round" stroke-linejoin="round"/>
<path d="M223.229 9.59882C223.301 9.54858 223.69 9.31719 224.367 9.13368C225.75 8.75903 227.364 10.3685 230.656 10.9394C233.516 11.4355 235.604 11.4672 238.45 12.3238C241.485 13.2373 243.581 13.2655 247.084 13.2768C249.16 13.2835 251.634 12.8016 258.036 12.6066C262.766 12.4626 270.513 12.5555 274.781 12.6105C279.048 12.6655 279.603 12.7637 280.101 12.8805C281.852 13.291 283.301 13.8787 284.906 14.0119C286.657 14.1572 289.879 14.2972 292.25 14.1537C292.633 14.1305 293.019 14.0765 293.176 14.2643C293.333 14.4522 293.248 14.8632 291.558 15.9644C289.867 17.0655 286.575 18.8443 283.711 20.4686C278.471 23.44 273.888 26.118 269.68 28.3938C262.506 32.2734 258.225 35.0753 256.606 36.4363C255.243 37.5819 253.654 40.4907 251.872 42.8971C249.145 45.914 247.368 47.6411 245.609 49.2061C245.271 49.5197 245.018 49.7846 244.608 50.9017" stroke="#F849C1" stroke-width="4" stroke-linecap="round" stroke-linejoin="round"/>
<path d="M243.761 52.0019L243.612 51.8566" stroke="#F849C1" stroke-width="4" stroke-linecap="round" stroke-linejoin="round"/>
<path d="M244.279 52.5901C244.325 53.0011 244.86 54.4932 245.794 56.4666C246.528 58.0169 247.13 59.5051 247.927 60.7781C248.725 62.0518 249.225 63.6846 249.737 65.4045C250.241 67.0946 250.665 68.7498 251.194 70.4894C251.683 72.0955 252.287 76.534 252.568 81.6053C252.695 83.8877 252.769 85.7452 252.867 87.3169C253.021 89.7923 253.429 93.4076 253.759 97.0626C254.179 101.717 253.743 106.932 253.441 108.506C253.14 110.07 253.03 111.629 252.739 113.117C252.438 114.654 252.259 115.843 252.074 116.247C252.015 116.376 251.705 115.95 251.477 115.491C250.456 113.439 249.866 111.199 249.115 108.982C248.5 107.168 247.568 105.604 246.938 104.451C245.657 102.104 246.359 112.138 245.978 114.004C245.535 116.181 245.038 118.488 244.411 120.332C243.85 121.984 242.995 123.625 241.31 126.636C240.041 128.905 238.9 130.171 237.801 132.002C237.3 132.836 236.801 133.695 236.164 134.488C235.868 134.856 235.575 135.11 235.372 135.059C235.169 135.008 235.051 134.634 235.013 134.204C234.832 132.156 235.376 130.048 235.818 127.552C236.065 126.164 236.114 124.259 236.075 122.654C236.064 122.233 235.917 122.624 235.758 123.085C235.066 125.084 233.47 129.082 232.06 132.426C230.545 136.019 229.018 137.603 227.434 139.814C225.876 141.987 224.871 143.771 224.383 144.384C223.402 145.616 222.05 146.421 221.15 147.667C220.154 149.044 218.335 151.444 216.798 153.445C215.731 154.833 214.661 155.922 213.33 157.267C212.048 158.563 211.507 160.178 210.69 161.923C210.383 162.84 210.077 163.824 209.708 164.758C209.507 165.171 209.277 165.461 208.343 166.085" stroke="#F849C1" stroke-width="4" stroke-linecap="round" stroke-linejoin="round"/>
<path d="M183.369 46.6115C183.369 46.5887 183.176 46.2504 182.846 45.549C182.146 44.0623 182.463 41.5302 182.474 36.6786C182.479 34.4986 183.485 32.7071 184.038 30.4474C184.449 28.7663 184.953 27.1018 185.472 25.5667C185.718 24.8387 185.947 24.0806 186.288 23.3556C187.041 21.753 188.859 20.3058 190.113 19.0126C191.338 17.748 193.468 17.1453 194.904 16.3462C195.568 15.9763 196.062 15.2873 196.681 14.7509C197.259 14.2498 197.98 14.0007 198.7 13.8175C199.428 13.6324 200.532 13.6744 201.815 13.7349C203.711 13.8244 205.369 14.8307 207.058 15.2087C208.949 15.632 210.111 15.1893 210.83 15.3647C212.297 15.7228 213.44 17.2031 214.859 18.0653C216.241 18.9045 217.946 19.7642 219.326 21.0123C220.711 22.2645 221.475 23.828 222.495 25.0044C223.799 26.5089 225.589 28.7513 226.731 30.3182C228.268 32.4255 229.223 34.7203 230.121 36.5724C230.334 37.01 230.416 37.4099 230.472 37.8097C230.528 38.2095 230.528 38.6091 230.436 38.9839C230.042 40.5865 228.594 41.886 227.626 43.295C226.599 44.7879 225.41 45.9578 224.226 47.0914C222.984 48.2795 222.159 49.9205 221.072 51.2361C219.926 52.624 218.249 54.1988 216.787 55.4484C215.536 56.5169 214.091 57.284 212.633 58.0893C211.874 58.5087 211.085 58.8619 210.364 59.2529C208.706 60.153 207.533 61.7696 206.507 62.1801C203.705 63.3016 201.881 61.9977 200.23 61.5928C198.412 61.1469 196.7 60.2968 195.12 59.5406C193.368 58.7019 192.126 57.8262 190.616 57.0153C188.824 56.0529 187.479 54.5654 186.235 53.2766C185.264 51.9824 184.264 50.6427 183.264 49.2634C182.987 48.937 182.685 48.6607 182.453 47.8225" stroke="#F849C1" stroke-width="4" stroke-linecap="round" stroke-linejoin="round"/>
<path d="M193.705 33.4782C193.686 33.4554 193.409 33.7701 192.986 34.5069C191.563 36.9868 192.538 41.3422 192.374 43.0307C192.337 43.412 192.178 43.7582 192.092 44.1266C192.006 44.495 191.96 44.8695 192.106 45.196C192.418 45.8956 193.29 46.2818 194.094 46.7372C195.976 47.8034 197.625 48.1752 199.104 48.9091C199.48 49.0959 199.789 49.3722 200.146 49.5448C201.543 50.2213 203.161 50.0953 204.961 49.9678C207.154 49.2677 208.954 48.5604 211.473 46.9301C212.03 46.5898 212.382 46.4574 212.854 46.0234" stroke="#F849C1" stroke-width="4" stroke-linecap="round" stroke-linejoin="round"/>
<path d="M219.117 35.6786C218.998 36.0832 218.416 38.3183 217.462 41.4226C217.106 42.583 216.556 43.3583 216.108 44.0279C215.244 45.317 213.892 46.1408 213.061 46.8946C210.233 49.4601 217.399 38.0924 217.672 37.3109C217.824 36.877 217.909 36.3375 217.916 35.8819C217.939 34.3117 216.816 32.2702 216.253 30.2867C216.122 29.8255 215.865 29.3547 215.618 28.966C215.372 28.5774 215.102 28.2988 214.771 28.0834C214.1 27.6466 213.308 27.4411 212.969 27.2792C212.942 27.2663 213.37 27.3366 213.69 27.5194C215.325 28.4547 217.116 32.6742 218.008 34.672C218.042 34.7492 217.636 34.4524 217.353 34.1332C216.219 32.8509 215.339 31.1279 214.033 29.5373C213.385 28.7477 212.499 28.1281 211.681 27.5728C211.304 27.3169 210.935 27.2231 210.567 27.2087C210.198 27.1943 209.824 27.2902 209.455 27.2791C208.735 27.147 208.011 26.8533 207.281 26.5493C206.912 26.4143 206.548 26.3184 205.475 26.2196" stroke="#F849C1" stroke-width="4" stroke-linecap="round" stroke-linejoin="round"/>
<path d="M193.008 35.0559C192.985 35.0445 192.962 35.033 192.926 34.8331C192.889 34.6331 192.84 34.2449 193.196 33.7127C195.235 30.6617 198.233 28.9401 200.194 27.7064C200.63 27.4319 201.085 27.3684 201.115 27.3791C200.766 27.536 200.015 27.7573 199.287 27.9742C198.92 28.1203 198.559 28.3395 198.186 28.5653" stroke="#F849C1" stroke-width="4" stroke-linecap="round" stroke-linejoin="round"/>
<path d="M201.592 25.666C201.532 25.7026 201.473 25.7391 201.278 25.8481C201.084 25.9571 200.755 26.1375 201.324 26.2304C205.239 26.4216 207.215 27.1278 208.999 27.5785C209.41 27.6218 209.86 27.6332 209.398 27.6104" stroke="#F849C1" stroke-width="4" stroke-linecap="round" stroke-linejoin="round"/>
<path d="M200.745 26.1435C200.699 26.1663 201.073 26.0571 202.149 25.8737C203.751 25.6005 206.079 26.0055 208.271 26.3726C209.132 26.5457 209.484 26.6918 209.744 26.9418C210.004 27.1917 210.162 27.5411 210.026 28.0118" stroke="#F849C1" stroke-width="4" stroke-linecap="round" stroke-linejoin="round"/>
<path d="M204.161 25.3754C204.147 25.3868 204.134 25.3983 204.31 25.5126C206.515 26.9484 210.703 26.6427 211.808 26.9712C212.344 27.1673 212.83 27.4231 213.298 27.6998C213.765 27.9766 214.199 28.2666 215.303 28.9321" stroke="#F849C1" stroke-width="4" stroke-linecap="round" stroke-linejoin="round"/>
<path d="M205.883 27.2437C205.785 27.3396 205.504 27.679 205.155 28.3913C204.28 30.1797 205.136 32.1367 205.006 33.7431C203.667 37.5244 201.692 41.4783 200.894 42.525C200.542 42.761 200.299 42.398 200.048 42.0239" stroke="#F849C1" stroke-width="4" stroke-linecap="round" stroke-linejoin="round"/>
<path d="M196.862 35.4572C196.691 35.5075 196.215 35.7023 195.774 35.8077C195.35 35.9089 197.717 33.9583 199.952 32.3433C200.714 31.7919 201 32.2284 200.936 32.7049C200.184 38.2924 194.222 44.5943 194.106 44.8898C193.279 46.9938 198.163 37.2141 199.538 34.1988C201.129 30.7092 196.481 43.0741 196.361 43.4533C195.932 44.8166 197.683 38.7948 200.515 33.1322C201.143 31.8762 201.619 31.159 201.736 30.9902C201.891 30.7659 199.162 35.2756 195.769 40.4884C194.69 42.147 194.664 41.6321 194.96 40.5654C196.549 34.8436 198.104 32.0663 198.543 31.2618C198.755 30.874 198.985 30.551 199.135 30.5814C199.284 30.6118 199.356 31.0114 199.157 31.8532C198.032 36.6044 195.933 39.5138 195.354 40.4488C193.693 43.128 200.347 30.8806 202.211 28.6677C202.543 28.2744 202.988 28.1041 203.26 28.1977C203.532 28.2912 203.68 28.7159 203.743 29.1528C203.868 30.0176 203.549 31.2858 203.089 32.9559C201.85 37.4535 198.873 41.782 197.923 43.2763C196.888 44.9045 201.308 36.9944 203.67 33.9126C204.139 33.2995 204.509 32.9846 204.78 32.9795C205.052 32.9743 205.245 33.3145 205.309 33.7558C205.373 34.1971 205.301 34.7292 205.106 35.3606C204.681 36.7362 202.285 40.8432 199.224 45.8202C198.224 47.4465 198.039 47.0477 198.001 46.661C197.765 44.2421 199.851 39.9925 202.118 35.4185C203.834 31.9568 205.526 29.9222 205.947 29.7374C206.146 29.6498 206.282 30.3519 206.309 30.9647C206.42 33.511 205.156 36.6146 203.409 40.7089C202.719 42.3249 201.841 43.4534 201.219 44.0069C201.006 44.1973 200.72 43.615 200.656 43.1357C200.592 42.6564 200.687 42.1472 200.881 41.5641C202.147 37.7512 205.348 33.9733 206.178 32.9172C206.538 32.4585 206.814 32.1876 206.969 32.2565C207.124 32.3253 207.16 32.75 207.01 33.6036C205.928 39.7339 202.404 45.6255 201.63 46.953C199.417 50.7496 207.951 35.0689 209.087 33.6977C209.425 33.2898 209.622 33.8267 209.6 34.3359C209.461 37.672 205.803 44.0704 204.34 46.6752C202.139 50.595 209.311 34.4118 210.075 32.6051C210.303 32.0675 210.514 32.4586 210.588 33.0576C211.038 36.681 209.054 40.3789 208.394 41.6162C207.009 44.2105 209.892 33.316 210.112 32.5807C210.165 32.4014 210.427 32.8136 210.52 33.2484C210.716 34.1626 210.468 35.3788 210.146 36.7262C209.987 37.3889 209.761 37.9891 209.654 38.0474C207.609 39.1648 210.353 32.2149 210.675 30.9682C210.81 30.4458 211.204 30.2558 211.464 30.3496C211.723 30.4433 211.917 30.8544 212.028 31.5993C212.14 32.3442 212.163 33.4106 212.109 34.1597C212.055 34.9089 211.923 35.3085 211.71 35.6354C211.496 35.9622 211.203 36.2043 210.969 36.1589C210.734 36.1134 210.567 35.7732 210.426 34.914C210.064 32.7026 210.003 30.9148 209.945 30.5884C209.693 29.1841 211.086 33.7898 211.97 35.2399C212.175 35.5769 212.211 36.0004 212.127 36.3821C212.043 36.7638 211.79 37.1155 211.441 37.2909C211.092 37.4663 210.655 37.4549 210.31 37.2675C209.965 37.0801 209.725 36.717 209.547 36.3542C209.209 35.663 209.1 34.8412 209.025 33.9692C208.988 33.5341 209 33.1108 209.14 32.7231C209.279 32.3353 209.559 31.9951 209.901 31.7411C210.244 31.487 210.642 31.3295 211.034 31.2551C211.426 31.1808 211.8 31.1945 212.126 31.3763C212.453 31.558 212.719 31.9074 212.93 32.342C213.849 34.2349 213.62 36.0194 213.541 37.0617C213.502 37.5878 213.305 38.0903 213.025 38.654C212.424 39.8639 210.945 41.6337 209.41 43.2147C208.943 43.6956 208.805 43.1721 209.064 42.2453C209.73 39.8585 210.684 38.0448 211.044 37.2415C211.215 36.8575 211.393 36.5341 211.596 36.5109C211.799 36.4876 212.029 36.7776 212.177 37.1268C212.48 37.8421 212.458 39.1094 212.399 40.6278C212.35 41.89 211.826 42.8546 211.346 43.8577C210.702 45.2007 209.88 46.3626 209.247 47.1652C208.957 47.5326 208.66 47.76 208.329 47.92C207.998 48.0801 207.623 48.1509 207.412 47.9762C207.201 47.8014 207.165 47.379 207.219 46.9855C207.488 45.0147 209.436 42.8054 210.817 41.0681C211.365 40.3793 212.132 39.8177 212.963 39.2451C213.351 38.9785 213.749 38.8895 213.979 39.0144C214.21 39.1393 214.283 39.5138 214.187 40.0035C213.594 43.0313 210.223 46.3165 208.757 47.8137C208.09 48.4956 207.123 49.0328 206.705 49.1754C203.8 50.1658 211.517 43.5234 213.48 40.4286C214.471 38.8654 214.781 37.7146 215.093 36.9724C215.248 36.6053 215.488 36.3009 215.624 36.3315C215.761 36.3621 215.81 36.748 215.678 37.0621C215.545 37.3763 215.23 37.6069 215.006 37.5442C214.783 37.4814 214.662 37.1184 214.536 36.7443" stroke="#F849C1" stroke-width="4" stroke-linecap="round" stroke-linejoin="round"/>
</svg>
