<svg width="189" height="216" viewBox="0 0 189 216" fill="none" xmlns="http://www.w3.org/2000/svg">
<path d="M22.5017 75.0618C22.2172 75.1585 21.0192 75.1775 19.2462 75.0965C18.4576 75.0604 17.8568 74.7033 17.3338 74.418C16.1959 73.7976 15.0967 72.9383 14.1332 72.0768C13.1598 71.2065 12.5479 70.0136 11.5121 68.6399C10.7158 67.5839 9.86141 66.4287 9.01394 65.3425C8.11098 64.1852 7.32254 62.9634 6.66615 61.7746C5.96321 60.5015 5.82094 59.101 5.56702 57.8343C5.32829 56.6434 4.65209 54.1253 4.10849 52.2734C3.71948 50.9482 3.37497 48.687 3.15748 46.9698C3.06711 46.2564 3.01067 43.6105 3.00027 39.5114C2.98795 34.6604 3.4048 33.33 3.78847 31.6884C4.18156 30.0064 4.66514 28.18 5.27465 26.7081C5.98743 24.9869 6.91491 23.5526 7.92149 21.6259C9.00071 19.5603 10.1445 18.3536 11.1945 17.337C12.4014 16.1111 13.2755 14.9293 14.0451 13.9738C14.2505 13.7441 14.4658 13.5179 14.9207 13.1121" stroke="#F849C1" stroke-width="6" stroke-linecap="round" stroke-linejoin="round"/>
<path d="M24.6711 78.2194C24.3866 78.3162 23.1886 78.3352 21.4157 78.2541C20.627 78.2181 20.0263 77.8609 19.5032 77.5757C18.3653 76.9552 17.2661 76.096 16.3026 75.2345C15.3293 74.3642 14.7173 73.1713 13.6815 71.7976C12.8853 70.7416 12.0308 69.5863 11.1834 68.5001C10.2804 67.3429 9.49198 66.1211 8.83559 64.9323C8.13264 63.6591 7.99037 62.2587 7.73645 60.992C7.49773 59.801 6.82153 57.283 6.27792 55.4311C5.88891 54.1058 5.5444 51.8446 5.32691 50.1275C5.23655 49.414 5.18011 46.7682 5.1697 42.6691C5.15738 37.8181 5.57423 36.4877 5.9579 34.846C6.35099 33.1641 6.83458 31.3376 7.44409 29.8658C8.15687 28.1445 9.08434 26.7103 10.0909 24.7836C11.1701 22.7179 12.3139 21.5113 13.3639 20.4947C14.5709 19.2687 15.445 18.087 16.2146 17.1314C16.4199 16.9018 16.6352 16.6756 17.0901 16.2698" stroke="#F24822" stroke-width="6" stroke-linecap="round" stroke-linejoin="round"/>
<path d="M9.34375 22.0939C9.40667 21.8986 10.4477 20.815 12.5027 19.0517C13.7516 17.9802 14.5254 16.6193 15.4403 15.6774C16.3069 14.785 17.457 14.0037 19.0609 13.1297C20.6428 12.2676 22.0737 12.0627 23.2574 11.5114C24.4095 10.9749 25.3835 10.2794 26.6466 9.77908C28.3859 9.09012 30.032 9.01136 31.4155 8.69978C32.7135 8.40742 34.0261 7.95222 35.859 7.58779C37.719 7.21799 40.0504 7.04745 41.3485 6.90082C43.3397 6.67592 46.14 6.84299 47.4212 6.98144C48.876 7.13866 50.0421 7.47161 51.2098 7.71623C51.7906 7.83789 52.352 8.0443 52.8867 8.29719C53.955 8.80244 54.7917 9.70216 55.8304 10.4796C56.9299 11.266 57.6601 11.8114 58.1263 12.1514C58.3568 12.3293 58.5746 12.5182 58.7991 12.7937" stroke="#F849C1" stroke-width="6" stroke-linecap="round" stroke-linejoin="round"/>
<path d="M11.5132 25.2516C11.5761 25.0562 12.6171 23.9726 14.6722 22.2094C15.921 21.1379 16.6949 19.777 17.6097 18.835C18.4764 17.9427 19.6264 17.1614 21.2303 16.2873C22.8122 15.4252 24.2431 15.2203 25.4268 14.6691C26.579 14.1325 27.553 13.437 28.816 12.9367C30.5553 12.2478 32.2015 12.169 33.5849 11.8574C34.8829 11.5651 36.1955 11.1099 38.0285 10.7454C39.8885 10.3756 42.2198 10.2051 43.518 10.0585C45.5091 9.83358 48.3095 10.0006 49.5906 10.1391C51.0454 10.2963 52.2115 10.6293 53.3792 10.8739C53.96 10.9955 54.5214 11.202 55.0561 11.4548C56.1245 11.9601 56.9612 12.8598 57.9999 13.6373C59.0993 14.4236 59.8295 14.9691 60.2958 15.3091C60.5262 15.487 60.7441 15.6758 60.9686 15.9513" stroke="#F24822" stroke-width="6" stroke-linecap="round" stroke-linejoin="round"/>
<path d="M13.8023 14.8556C13.8023 14.8378 13.7639 14.5454 13.8005 14.0076C13.8372 13.4678 14.5246 13.0749 15.1092 12.594C16.4114 11.5226 18.0681 10.7583 20.2789 9.66043C21.59 9.00939 22.8547 8.40293 24.1427 7.91484C25.5271 7.39022 27.3004 7.05598 29.4598 6.56203C30.855 6.24289 32.0569 5.74131 33.2284 5.29055C34.3891 4.84395 35.7291 4.74662 37.1975 4.63267C39.8681 4.42544 43.9498 4.64136 45.311 4.78851C46.5496 4.92239 47.9045 4.97397 49.1901 5.11553C50.4357 5.25269 51.2463 5.70909 51.7953 5.95099C52.0598 6.09848 52.2956 6.2962 52.5209 6.50671C52.7462 6.71722 52.9539 6.93453 53.1911 7.27178" stroke="#F849C1" stroke-width="6" stroke-linecap="round" stroke-linejoin="round"/>
<path d="M15.9715 18.0132C15.9715 17.9954 15.9331 17.703 15.9696 17.1653C16.0064 16.6254 16.6938 16.2326 17.2784 15.7516C18.5806 14.6802 20.2372 13.9159 22.4481 12.8181C23.7592 12.167 25.0239 11.5606 26.3119 11.0725C27.6963 10.5479 29.4696 10.2136 31.629 9.71969C33.0242 9.40054 34.2261 8.89896 35.3976 8.4482C36.5583 8.00161 37.8983 7.90427 39.3667 7.79033C42.0373 7.5831 46.119 7.79902 47.4802 7.94616C48.7187 8.08005 50.0737 8.13162 51.3593 8.27318C52.6049 8.41034 53.4155 8.86674 53.9645 9.10864C54.229 9.25613 54.4648 9.45385 54.6901 9.66436C54.9154 9.87487 55.123 10.0922 55.3603 10.4294" stroke="#F24822" stroke-width="6" stroke-linecap="round" stroke-linejoin="round"/>
<path d="M54.5115 7.59023C54.5115 7.57954 54.5115 7.56885 54.6332 7.48854C54.755 7.40822 54.9985 7.25859 55.2713 7.27058C56.5293 7.32583 57.604 8.65401 58.6455 9.49527C59.609 10.2736 60.3514 11.2165 61.0324 12.2148C61.7725 13.2997 62.1346 14.4596 62.7165 15.5095C63.2864 16.5377 64.2702 16.8472 64.7031 17.2562C65.5572 18.0631 65.8826 19.3161 66.7005 20.3816C67.4508 21.3588 68.2662 22.4135 68.8857 23.5749C69.466 24.6631 69.7727 25.8666 70.1833 26.9622C70.5937 28.057 71.0768 29.1948 71.6792 30.6322C72.1924 31.8568 72.682 32.9254 73.1388 34.0241C73.5999 35.1335 74.1608 36.18 74.6559 37.4824C74.7706 37.8038 74.8655 38.087 74.9797 38.3745C75.0939 38.662 75.2246 38.9453 75.7089 39.6095" stroke="#F849C1" stroke-width="6" stroke-linecap="round" stroke-linejoin="round"/>
<path d="M56.6809 10.7479C56.6809 10.7372 56.6809 10.7265 56.8027 10.6462C56.9244 10.5659 57.1679 10.4162 57.4408 10.4282C58.6988 10.4835 59.7734 11.8117 60.8149 12.6529C61.7784 13.4312 62.5208 14.3742 63.2018 15.3725C63.9419 16.4574 64.304 17.6172 64.8859 18.6671C65.4559 19.6954 66.4396 20.0049 66.8725 20.4139C67.7266 21.2207 68.052 22.4738 68.87 23.5393C69.6202 24.5165 70.4357 25.5711 71.0551 26.7326C71.6355 27.8207 71.9421 29.0242 72.3528 30.1198C72.7631 31.2147 73.2462 32.3525 73.8486 33.7898C74.3619 35.0145 74.8515 36.0831 75.3082 37.1818C75.7694 38.2912 76.3302 39.3377 76.8253 40.64C76.9401 40.9615 77.0349 41.2447 77.1491 41.5322C77.2633 41.8197 77.3941 42.1029 77.8783 42.7672" stroke="#F24822" stroke-width="6" stroke-linecap="round" stroke-linejoin="round"/>
<path d="M43.7225 10.6778C43.7046 10.6778 43.6866 10.6778 43.5928 10.5602C43.499 10.4426 43.3298 10.2075 43.3836 10.0436C43.4375 9.87975 43.7194 9.79425 44.0018 9.81611C45.2063 9.90936 46.2645 10.912 47.3486 11.5015C48.3929 12.0694 49.4625 12.6792 50.47 13.287C50.7222 13.4392 50.9646 13.6055 51.1862 13.8056C52.1354 14.6629 52.6391 15.9966 53.359 16.9904C54.0965 18.0085 55.1899 18.6092 56.169 19.331C57.1151 20.0286 57.6929 21.1852 58.2238 22.2725C58.7641 23.3789 59.1597 24.5226 59.6182 25.6683C60.0833 26.8309 60.3537 28.1081 60.5656 29.2785C60.778 30.4516 60.9703 31.6206 61.2036 32.7708C61.4421 33.947 61.8803 35.2123 62.2852 36.4036C62.6802 37.5656 63.4124 38.525 64.0477 39.6054C64.6848 40.6889 65.101 41.8624 65.8231 42.8196C66.5767 43.8186 67.7294 44.4872 68.7866 45.0012C69.0527 45.1306 69.3494 45.1855 69.7228 45.234C70.0962 45.2824 70.5499 45.2931 70.9105 45.2185C71.2711 45.1438 71.5249 44.9835 71.7645 44.7967C72.0042 44.6099 72.2221 44.4015 72.4381 44.1339C72.6542 43.8662 72.8618 43.5456 73.5573 42.5837" stroke="#F849C1" stroke-width="4" stroke-linecap="round" stroke-linejoin="round"/>
<path d="M45.8917 13.8354C45.8738 13.8354 45.8558 13.8354 45.762 13.7178C45.6682 13.6003 45.499 13.3652 45.5528 13.2013C45.6067 13.0374 45.8886 12.9519 46.171 12.9738C47.3754 13.067 48.4337 14.0697 49.5178 14.6592C50.5621 15.227 51.6317 15.8369 52.6392 16.4447C52.8914 16.5968 53.1338 16.7631 53.3554 16.9633C54.3045 17.8205 54.8083 19.1542 55.5282 20.148C56.2657 21.1661 57.3591 21.7668 58.3382 22.4887C59.2843 23.1863 59.8621 24.3428 60.393 25.4301C60.9332 26.5365 61.3289 27.6802 61.7873 28.826C62.2525 29.9885 62.5229 31.2657 62.7348 32.4361C62.9471 33.6093 63.1395 34.7782 63.3728 35.9284C63.6113 37.1046 64.0495 38.37 64.4544 39.5612C64.8494 40.7232 65.5816 41.6827 66.2169 42.763C66.854 43.8465 67.2702 45.0201 67.9923 45.9772C68.7458 46.9762 69.8986 47.6449 70.9558 48.1588C71.2219 48.2882 71.5186 48.3431 71.892 48.3916C72.2654 48.4401 72.7191 48.4508 73.0797 48.3761C73.4403 48.3015 73.6941 48.1412 73.9337 47.9544C74.1734 47.7676 74.3913 47.5592 74.6073 47.2915C74.8234 47.0238 75.031 46.7032 75.7265 45.7413" stroke="#F24822" stroke-width="4" stroke-linecap="round" stroke-linejoin="round"/>
<path d="M72.2136 45.2717C72.1777 45.2717 71.9695 45.4997 71.8103 45.7739C71.7825 45.8218 72.0971 45.6777 72.3752 45.4199C74.0384 43.8786 75.4244 41.4266 76.1645 39.8768C77.3858 37.3192 77.7465 35.7321 78.7898 33.6355C79.5913 32.0248 79.9764 30.5141 80.7418 28.2954C81.3313 26.8575 81.8248 25.8036 82.2499 24.8653C82.4469 24.4276 82.6058 24.0678 82.8006 23.6971" stroke="#F849C1" stroke-width="4" stroke-linecap="round" stroke-linejoin="round"/>
<path d="M74.3828 48.4294C74.3469 48.4294 74.1387 48.6574 73.9795 48.9316C73.9517 48.9795 74.2663 48.8353 74.5444 48.5775C76.2076 47.0363 77.5935 44.5843 78.3337 43.0344C79.555 40.4769 79.9157 38.8898 80.959 36.7932C81.7604 35.1825 82.1456 33.6717 82.911 31.4531C83.5005 30.0151 83.994 28.9613 84.4191 28.023C84.6161 27.5852 84.775 27.2254 84.9698 26.8547" stroke="#F24822" stroke-width="4" stroke-linecap="round" stroke-linejoin="round"/>
<path d="M80.4548 28.6468C80.4548 28.6859 80.4548 28.4033 80.4971 27.7753C80.6578 25.3894 83.2497 21.178 84.9843 18.4238C86.747 15.6249 89.1606 13.4292 90.5663 11.3902C91.0024 10.7576 91.4821 10.3201 91.9831 9.91067C93.0507 9.25949 94.0669 8.69613 94.841 8.18316C95.1922 7.96231 95.4588 7.82159 95.7878 7.84394" stroke="#F849C1" stroke-width="4" stroke-linecap="round" stroke-linejoin="round"/>
<path d="M82.624 31.8044C82.624 31.8436 82.624 31.561 82.6663 30.9329C82.827 28.547 85.4189 24.3357 87.1535 21.5815C88.9162 18.7825 91.3298 16.5868 92.7355 14.5478C93.1716 13.9153 93.6513 13.4777 94.1523 13.0683C95.2199 12.4171 96.2361 11.8538 97.0102 11.3408C97.3614 11.12 97.6279 10.9792 97.957 11.0016" stroke="#F24822" stroke-width="4" stroke-linecap="round" stroke-linejoin="round"/>
<path d="M82.2024 25.759C82.287 25.3986 83.0226 23.3517 83.9429 21.5244C84.8531 19.717 87.0195 18.3334 88.4244 16.9891C89.669 15.7982 90.6803 14.0993 92.5703 12.4164C96.0801 9.93205 99.0747 8.03367 100.556 7.05536C101.15 6.69158 101.424 6.59718 101.994 6.58627" stroke="#F849C1" stroke-width="4" stroke-linecap="round" stroke-linejoin="round"/>
<path d="M84.3718 28.9166C84.4564 28.5562 85.1921 26.5094 86.1123 24.6821C87.0226 22.8746 89.1889 21.4911 90.5938 20.1468C91.8385 18.9559 92.8497 17.2569 94.7397 15.574C98.2495 13.0897 101.244 11.1913 102.725 10.213C103.319 9.84924 103.593 9.75483 104.163 9.74393" stroke="#F24822" stroke-width="4" stroke-linecap="round" stroke-linejoin="round"/>
<path d="M86.3501 19.1198C86.9595 18.4674 90.2428 15.2411 94.2079 12.0994C97.0978 9.80949 100.357 8.18304 102.224 7.01041C104.423 5.62878 107.323 5.00799 109.05 4.24829C109.401 4.07057 109.655 3.92985 109.932 3.82351C110.209 3.71718 110.501 3.64949 111.26 3.6985" stroke="#F849C1" stroke-width="4" stroke-linecap="round" stroke-linejoin="round"/>
<path d="M88.5195 22.2774C89.129 21.625 92.4123 18.3987 96.3773 15.257C99.2673 12.9671 102.526 11.3407 104.393 10.1681C106.593 8.78644 109.492 8.16564 111.219 7.40594C111.571 7.22822 111.825 7.0875 112.101 6.98117C112.378 6.87483 112.67 6.80714 113.43 6.85615" stroke="#F24822" stroke-width="4" stroke-linecap="round" stroke-linejoin="round"/>
<path d="M92.8672 12.2809C92.8672 12.263 92.962 11.9796 93.257 11.4268C93.9793 10.0729 96.5749 9.35097 99.4508 7.89227C102.359 6.41712 107.686 4.38043 111.15 3.41917C111.5 3.39961 111.849 3.4192 112.155 3.5335C112.462 3.6478 112.716 3.8562 113.435 4.38399" stroke="#F849C1" stroke-width="4" stroke-linecap="round" stroke-linejoin="round"/>
<path d="M95.0366 15.4385C95.0366 15.4207 95.1315 15.1372 95.4264 14.5844C96.1487 13.2306 98.7443 12.5086 101.62 11.0499C104.528 9.57477 109.856 7.53808 113.32 6.57683C113.67 6.55726 114.018 6.57686 114.325 6.69115C114.631 6.80545 114.885 7.01386 115.605 7.54164" stroke="#F24822" stroke-width="4" stroke-linecap="round" stroke-linejoin="round"/>
<path d="M94.7002 11.5954C94.6438 11.6524 94.7557 11.37 95.0975 10.765C96.4105 8.44068 100.007 6.81885 100.739 6.3906C103.036 5.04702 106.823 4.98487 109.268 4.12909C110.092 3.84047 110.803 3.80293 111.569 3.84555C111.938 3.89707 112.266 4.00928 112.62 4.06709C112.973 4.1249 113.342 4.1249 113.723 4.1249" stroke="#F849C1" stroke-width="4" stroke-linecap="round" stroke-linejoin="round"/>
<path d="M96.8696 14.753C96.8132 14.81 96.9251 14.5276 97.2669 13.9226C98.5799 11.5983 102.176 9.97651 102.908 9.54825C105.205 8.20468 108.993 8.14252 111.437 7.28674C112.262 6.99812 112.973 6.96058 113.739 7.0032C114.107 7.05472 114.436 7.16694 114.789 7.22475C115.143 7.28256 115.512 7.28256 115.892 7.28256" stroke="#F24822" stroke-width="4" stroke-linecap="round" stroke-linejoin="round"/>
<path d="M95.042 11.1959C95.3089 10.959 96.2388 9.98641 97.7791 8.73182C98.9393 7.78677 100.557 7.15088 104.169 6.03274C106.968 5.16612 111.813 3.97054 114.638 3.20593C117.462 2.44131 118.142 2.21509 118.652 2.09321C119.162 1.97133 119.482 1.96064 119.705 2.111C119.928 2.26135 120.043 2.57307 120.185 3.09395" stroke="#F849C1" stroke-width="4" stroke-linecap="round" stroke-linejoin="round"/>
<path d="M97.2114 14.3536C97.4783 14.1167 98.4082 13.1441 99.9485 11.8895C101.109 10.9444 102.726 10.3085 106.338 9.19039C109.138 8.32377 113.982 7.12819 116.807 6.36358C119.632 5.59897 120.311 5.37275 120.821 5.25087C121.331 5.12899 121.652 5.1183 121.874 5.26865C122.097 5.41901 122.213 5.73072 122.355 6.2516" stroke="#F24822" stroke-width="4" stroke-linecap="round" stroke-linejoin="round"/>
<path d="M101.194 8.93427C101.486 8.94344 102.664 8.73628 106.199 8.06866C107.875 7.7522 109.046 7.44687 110.697 7.38455C112.446 7.31856 113.905 6.70436 116.183 6.63584C117.574 6.59397 118.773 6.7388 120.687 6.77324C122.024 6.7973 123.252 7.07508 124.767 7.36296C126.247 7.64417 127.482 8.25383 128.755 8.44804C130.178 8.66523 131.946 9.13226 133.182 9.52294C133.858 9.73652 134.519 9.89582 135.074 10.1183C135.618 10.3362 136.111 10.7045 136.584 11.1297C137.619 12.0608 138.179 13.5438 138.903 14.5658C139.636 15.5997 140.514 16.4915 141.415 17.3276C142.336 18.1815 143.485 18.8475 144.416 19.6932C144.856 20.0925 145.187 20.6141 145.552 21.1133C145.733 21.3606 145.966 21.5483 146.078 21.4151C146.191 21.2818 146.191 20.8098 146.148 20.425C146.106 20.0402 146.022 19.757 145.888 19.4927C145.354 18.4325 144.526 17.5794 143.944 16.3486C143.283 14.9496 142.438 13.8983 141.7 12.9033C140.965 11.9121 139.731 11.2649 138.578 10.4674C137.523 9.73809 136.517 8.95607 135.421 8.25043C134.336 7.55153 133.124 7.16932 131.97 6.66113C130.775 6.13466 129.463 5.92029 128.234 5.59696C126.935 5.25505 125.419 5.08969 123.876 4.93267C121.725 4.71378 120.517 4.24235 119.294 3.76487C118.999 3.6496 118.707 3.61147 118.731 3.5919C119.601 2.87939 123.433 4.26427 125.925 4.89718C127.493 5.29533 128.386 6.6208 129.217 7.08663C130.136 7.60097 126.879 6.29327 125.681 5.62198C125.111 5.30264 124.613 4.94659 124.058 4.71851C122.852 4.22305 121.565 4.29876 120.668 4.06193C120.273 3.95753 120.022 3.80373 119.946 3.59865C119.871 3.39356 119.984 3.12103 120.203 2.96104C120.423 2.80105 120.746 2.76187 121.095 2.74168C121.811 2.70038 122.538 2.8159 123.251 3.04889C124.693 3.52029 125.713 4.16236 126.862 4.49251C127.422 4.65338 128.137 5.24503 129.146 6.04803C130.281 6.95081 131.471 7.41287 132.667 8.04211C133.792 8.63422 134.857 9.56569 135.958 10.6495C136.215 10.9016 136.448 11.1302 136.434 11.2895C136.419 11.4487 136.148 11.5342 135.842 11.4937C134.393 11.301 133.199 10.2524 132.054 9.68485C131.776 9.54693 131.523 9.41197 131.614 9.5088C133.092 11.0819 135.246 12.3424 136.301 12.8842C137.371 13.4332 138.065 14.5005 138.929 15.3069C139.858 16.0664 140.632 16.5724 141.16 16.8756C141.414 17.038 141.64 17.2179 142.47 17.7757" stroke="#F849C1" stroke-width="4" stroke-linecap="round" stroke-linejoin="round"/>
<path d="M103.363 12.0919C103.655 12.1011 104.833 11.8939 108.368 11.2263C110.044 10.9099 111.215 10.6045 112.867 10.5422C114.615 10.4762 116.075 9.86201 118.352 9.79349C119.744 9.75162 120.943 9.89645 122.856 9.93089C124.193 9.95496 125.422 10.2327 126.937 10.5206C128.416 10.8018 129.651 11.4115 130.924 11.6057C132.348 11.8229 134.116 12.2899 135.351 12.6806C136.027 12.8942 136.688 13.0535 137.243 13.2759C137.788 13.4939 138.281 13.8622 138.753 14.2873C139.789 15.2185 140.348 16.7015 141.073 17.7234C141.806 18.7573 142.684 19.6492 143.585 20.4852C144.505 21.3391 145.655 22.0052 146.586 22.8509C147.025 23.2502 147.356 23.7717 147.722 24.2709C147.903 24.5183 148.136 24.706 148.248 24.5727C148.36 24.4395 148.36 23.9674 148.318 23.5827C148.276 23.1979 148.191 22.9147 148.058 22.6503C147.523 21.5902 146.695 20.737 146.114 19.5062C145.453 18.1073 144.607 17.056 143.87 16.061C143.135 15.0698 141.901 14.4225 140.747 13.625C139.692 12.8957 138.687 12.1137 137.591 11.4081C136.505 10.7092 135.293 10.327 134.14 9.81878C132.945 9.29232 131.633 9.07794 130.404 8.75462C129.104 8.41271 127.589 8.24734 126.046 8.09032C123.895 7.87143 122.687 7.40001 121.463 6.92252C121.168 6.80725 120.877 6.76912 120.901 6.74955C121.771 6.03704 125.602 7.42192 128.095 8.05483C129.663 8.45298 130.555 9.77846 131.387 10.2443C132.305 10.7586 129.049 9.45092 127.851 8.77964C127.281 8.4603 126.782 8.10425 126.227 7.87617C125.021 7.3807 123.735 7.45641 122.838 7.21959C122.442 7.11518 122.192 6.96139 122.116 6.7563C122.04 6.55121 122.153 6.27868 122.373 6.1187C122.592 5.95871 122.915 5.91952 123.265 5.89933C123.98 5.85803 124.707 5.97355 125.42 6.20654C126.862 6.67794 127.882 7.32001 129.032 7.65016C129.592 7.81104 130.307 8.40269 131.316 9.20568C132.45 10.1085 133.641 10.5705 134.836 11.1998C135.961 11.7919 137.026 12.7233 138.128 13.8072C138.384 14.0593 138.618 14.2878 138.603 14.4471C138.589 14.6064 138.317 14.6919 138.012 14.6513C136.562 14.4587 135.368 13.41 134.224 12.8425C133.946 12.7046 133.693 12.5696 133.784 12.6665C135.262 14.2395 137.416 15.5 138.471 16.0419C139.54 16.5908 140.234 17.6582 141.098 18.4646C142.027 19.2241 142.801 19.7301 143.329 20.0332C143.583 20.1957 143.809 20.3756 144.64 20.9334" stroke="#F24822" stroke-width="4" stroke-linecap="round" stroke-linejoin="round"/>
<path d="M5.16484 44.3865C5.12896 44.3865 5.20275 44.6982 5.4374 45.2837C5.97085 46.6145 7.67746 47.5122 8.35595 48.5596C9.0425 49.6194 10.2047 50.1703 11.0271 51.0657C11.8926 52.008 13.1759 52.2708 14.1521 52.9591C15.104 53.6302 15.9594 54.446 16.9533 55.1246C17.9841 55.8283 19.2659 56.2414 20.5025 56.7507C21.7011 57.2443 22.7735 57.7858 23.8002 58.4479C24.8743 59.1404 26.3722 59.4085 28.1856 59.7077C30.0491 60.0152 31.4171 60.1919 32.732 60.5663C33.9302 60.9074 35.1377 61.5066 36.8889 61.8309C38.7737 62.18 40.7914 62.1185 42.5663 62.2151C44.8437 62.339 46.0799 62.5197 49.9011 62.7811C56.2331 63.2143 61.0041 62.7897 62.063 62.6891C63.4025 62.5618 65.1109 62.7373 68.8288 62.8001C70.8321 62.8339 76.9829 62.5013 80.3339 62.7896C81.6622 62.9039 83.1707 62.8731 86.7958 62.8106C88.6352 62.779 89.87 63.1459 91.6951 63.2024C94.0041 63.2738 97.2015 62.3033 98.823 62.0718C100.998 61.7614 102.388 62.138 104.031 61.7448C105.561 61.3784 107.194 60.9189 108.529 60.6582C110.223 60.3271 113.308 59.6708 115.441 59.2008C117.147 58.8248 118.855 57.9434 121.155 57.2203C122.715 56.7299 124.789 56.4451 126.263 56.0258C127.477 55.6804 128.233 54.3125 129.253 53.244C130.522 51.9146 131.531 51.0045 133.663 48.8593C135.37 47.1417 136.115 46.2135 136.989 45.1137C138.092 43.7262 138.56 42.4467 139.688 40.9539C140.524 39.8468 140.952 38.6615 141.856 37.3958C142.598 36.3566 142.927 34.8277 143.449 33.2484C143.69 32.5202 144.007 31.9242 144.156 31.3482C144.368 29.6582 144.255 27.5375 144.173 25.0445C144.159 24.4757 144.13 24.164 144.047 23.2383" stroke="#F849C1" stroke-width="4" stroke-linecap="round" stroke-linejoin="round"/>
<path d="M7.33428 47.5442C7.29839 47.5442 7.37218 47.8559 7.60684 48.4413C8.14028 49.7721 9.84689 50.6699 10.5254 51.7173C11.2119 52.7771 12.3741 53.3279 13.1966 54.2234C14.062 55.1656 15.3453 55.4284 16.3216 56.1167C17.2734 56.7878 18.1289 57.6037 19.1227 58.2822C20.1535 58.9859 21.4353 59.3991 22.6719 59.9083C23.8705 60.4019 24.9429 60.9435 25.9697 61.6055C27.0437 62.298 28.5416 62.5661 30.355 62.8654C32.2185 63.1728 33.5866 63.3496 34.9015 63.7239C36.0996 64.065 37.3072 64.6642 39.0584 64.9886C40.9432 65.3376 42.9608 65.2761 44.7357 65.3727C47.0131 65.4967 48.2493 65.6774 52.0705 65.9388C58.4025 66.372 63.1736 65.9474 64.2324 65.8468C65.5719 65.7195 67.2804 65.8949 70.9983 65.9577C73.0015 65.9916 79.1523 65.6589 82.5033 65.9473C83.8317 66.0616 85.3402 66.0307 88.9652 65.9683C90.8046 65.9366 92.0394 66.3035 93.8646 66.36C96.1735 66.4315 99.371 65.4609 100.992 65.2295C103.167 64.9191 104.558 65.2957 106.2 64.9024C107.73 64.5361 109.364 64.0765 110.698 63.8158C112.393 63.4848 115.477 62.8285 117.61 62.3584C119.316 61.9824 121.025 61.1011 123.325 60.3779C124.884 59.8875 126.959 59.6028 128.432 59.1835C129.646 58.8381 130.403 57.4702 131.423 56.4017C132.692 55.0722 133.701 54.1621 135.833 52.017C137.54 50.2993 138.284 49.3712 139.159 48.2714C140.262 46.8839 140.729 45.6043 141.857 44.1116C142.693 43.0045 143.121 41.8191 144.025 40.5535C144.767 39.5142 145.096 37.9854 145.619 36.406C145.859 35.6779 146.177 35.0818 146.325 34.5059C146.537 32.8158 146.425 30.6952 146.342 28.2021C146.328 27.6333 146.3 27.3216 146.216 26.3959" stroke="#F24822" stroke-width="4" stroke-linecap="round" stroke-linejoin="round"/>
<path d="M32.8247 76.8916C32.7965 76.8916 32.7683 76.8916 32.8819 76.8257C34.3665 75.9647 37.6489 76.5486 39.4363 76.7542C40.9955 76.9336 42.7509 76.9124 44.1894 77.1497C46.2364 77.4873 48.2568 77.4362 49.7909 77.6572C51.0929 77.8447 52.2812 78.1345 53.8322 78.1689C55.6647 78.2096 57.9372 78.1448 59.361 78.0407C60.9735 77.9227 63.0255 77.5335 69.0207 77.4145C71.2475 77.3703 72.543 77.2486 75.6206 77.1652C77.228 77.1217 79.4262 77.2549 81.7241 77.2424C83.3707 77.2335 84.8705 77.4668 90.6598 77.5178C93.5155 77.5429 97.0974 77.2371 101.253 77.2578C103.788 77.2705 105.872 76.6171 107.678 76.5598C109.466 76.4563 113.754 76.4738 116.09 76.3838C116.392 76.3503 116.684 76.3218 117.412 76.2924" stroke="#F849C1" stroke-width="8" stroke-linecap="round" stroke-linejoin="round"/>
<path d="M34.9941 80.0493C34.9659 80.0493 34.9377 80.0493 35.0514 79.9833C36.536 79.1223 39.8183 79.7063 41.6058 79.9119C43.165 80.0912 44.9203 80.0701 46.3588 80.3073C48.4059 80.645 50.4262 80.5939 51.9604 80.8148C53.2623 81.0023 54.4507 81.2921 56.0017 81.3266C57.8341 81.3673 60.1066 81.3025 61.5304 81.1983C63.1429 81.0804 65.1949 80.6911 71.1901 80.5722C73.4169 80.528 74.7124 80.4063 77.79 80.3229C79.3974 80.2793 81.5956 80.4125 83.8936 80.4C85.5402 80.3911 87.04 80.6244 92.8293 80.6754C95.6849 80.7006 99.2669 80.3947 103.422 80.4155C105.957 80.4282 108.041 79.7747 109.847 79.7175C111.636 79.6139 115.924 79.6315 118.259 79.5415C118.561 79.508 118.853 79.4795 119.582 79.4501" stroke="#F24822" stroke-width="8" stroke-linecap="round" stroke-linejoin="round"/>
<path d="M118.189 77.0373C118.179 77.0373 118.168 77.0373 118.239 76.91C118.309 76.7826 118.46 76.5279 118.915 76.3308C121.258 75.3151 124.175 75.0111 126.806 74.03C128.742 73.3082 130.146 72.5543 131.407 72.1019C132.763 71.6154 134.453 70.8039 135.648 69.9266C136.738 69.1266 137.375 67.706 138.25 66.6235C138.649 66.1299 139.03 65.6308 139.431 65.18C139.881 64.8112 140.37 64.4839 140.88 64.1751C141.144 64.0266 141.418 63.8948 142.159 63.6456" stroke="#F849C1" stroke-width="6" stroke-linecap="round" stroke-linejoin="round"/>
<path d="M120.358 80.195C120.348 80.195 120.338 80.195 120.408 80.0676C120.479 79.9403 120.63 79.6856 121.084 79.4884C123.427 78.4727 126.345 78.1688 128.976 77.1876C130.911 76.4658 132.316 75.712 133.577 75.2596C134.933 74.7731 136.622 73.9616 137.817 73.0843C138.908 72.2842 139.545 70.8636 140.42 69.7811C140.819 69.2876 141.199 68.7885 141.601 68.3377C142.051 67.9688 142.54 67.6415 143.05 67.3327C143.314 67.1842 143.588 67.0524 144.329 66.8033" stroke="#F24822" stroke-width="6" stroke-linecap="round" stroke-linejoin="round"/>
<path d="M143.247 64.045C143.226 64.0539 143.206 64.0628 143.192 63.9169C143.177 63.771 143.169 63.4699 143.335 63.1733C144.175 61.6643 146.344 60.2039 147.934 57.9972C148.846 56.7303 149.612 55.7797 150.453 54.8626C151.302 53.9371 151.985 52.8227 152.461 51.6251C152.954 50.3864 153.093 49.0876 153.157 47.1126C153.205 45.6111 153.324 44.0907 153.418 42.7965C153.564 40.7891 153.545 38.2896 153.326 36.8625C153.085 35.2864 152.717 34.1382 152.183 32.7177C151.679 31.3787 151.159 30.1146 150.413 28.7114C149.973 28.0079 149.484 27.1191 149.02 26.1947C148.813 25.7992 148.661 25.5534 148.506 25.3002" stroke="#F849C1" stroke-width="4" stroke-linecap="round" stroke-linejoin="round"/>
<path d="M145.416 67.2027C145.396 67.2116 145.375 67.2205 145.361 67.0746C145.347 66.9286 145.339 66.6276 145.504 66.3309C146.344 64.822 148.513 63.3615 150.103 61.1548C151.016 59.888 151.781 58.9374 152.623 58.0202C153.472 57.0948 154.154 55.9804 154.631 54.7828C155.124 53.544 155.263 52.2453 155.326 50.2703C155.374 48.7688 155.493 47.2484 155.587 45.9541C155.734 43.9467 155.714 41.4472 155.496 40.0201C155.255 38.444 154.887 37.2958 154.352 35.8754C153.849 34.5364 153.329 33.2723 152.582 31.8691C152.142 31.1655 151.654 30.2768 151.19 29.3523C150.982 28.9569 150.831 28.7111 150.675 28.4578" stroke="#F24822" stroke-width="4" stroke-linecap="round" stroke-linejoin="round"/>
<path d="M28.9643 48.7371C28.9284 48.7549 28.7023 48.5468 28.3301 48.0857C27.5823 47.1595 27.3765 45.8336 27.0609 44.5121C26.9552 44.0697 27.0019 43.4471 27.0531 42.9987C27.2023 41.6898 27.9831 40.5678 28.5129 39.4033C28.7964 38.78 29.3243 38.2645 29.8214 37.8082C30.7878 36.9212 32.3887 36.8736 33.6666 36.6588C35.0027 36.4342 36.6028 36.5621 37.9471 36.8026C39.6873 37.114 40.5582 37.1945 41.1329 37.3359C41.4224 37.4071 41.6795 37.5735 41.9103 37.7698C42.1412 37.9661 42.3309 38.2119 42.4991 38.5131C43.205 39.7772 43.3691 41.1666 43.6219 42.5327C43.6755 42.8684 43.7139 43.1801 43.7286 43.4912C43.7433 43.8023 43.733 44.1033 43.7225 44.4135" stroke="#F849C1" stroke-width="4" stroke-linecap="round" stroke-linejoin="round"/>
<path d="M31.1337 51.8947C31.0979 51.9125 30.8717 51.7044 30.4995 51.2433C29.7517 50.3171 29.5459 48.9913 29.2303 47.6698C29.1247 47.2273 29.1714 46.6047 29.2225 46.1564C29.3717 44.8475 30.1526 43.7255 30.6823 42.5609C30.9658 41.9376 31.4938 41.4221 31.9909 40.9658C32.9572 40.0789 34.5581 40.0313 35.8361 39.8164C37.1722 39.5918 38.7723 39.7197 40.1165 39.9603C41.8567 40.2716 42.7276 40.3521 43.3024 40.4936C43.5918 40.5648 43.8489 40.7312 44.0798 40.9275C44.3106 41.1238 44.5003 41.3696 44.6685 41.6708C45.3744 42.9348 45.5385 44.3242 45.7914 45.6903C45.8449 46.0261 45.8834 46.3378 45.898 46.6489C45.9127 46.96 45.9025 47.261 45.8919 47.5712" stroke="#F24822" stroke-width="4" stroke-linecap="round" stroke-linejoin="round"/>
<path d="M29.4537 48.5644C29.4255 48.5733 29.3973 48.5822 29.3302 48.7195C29.2632 48.8568 29.1581 49.1222 29.1885 49.4103C29.3237 50.6892 30.1429 51.4725 30.5805 52.0087C30.9718 52.4883 31.6023 52.6835 32.1822 52.9078C32.7429 53.1248 34.0469 53.228 35.7387 53.195C36.7075 53.1762 37.2779 52.925 37.8678 52.6785C38.5493 52.3937 39.2218 51.9438 39.8548 51.488C40.4448 51.0631 40.9008 50.5336 41.2961 49.9899C42.166 48.7934 42.581 47.1207 43.1133 45.9301C43.2474 45.6381 43.3705 45.346 43.4531 45.0539C43.5357 44.7618 43.5741 44.4786 43.5516 43.8144" stroke="#F849C1" stroke-width="4" stroke-linecap="round" stroke-linejoin="round"/>
<path d="M31.6231 51.722C31.5949 51.7309 31.5667 51.7398 31.4997 51.8771C31.4326 52.0144 31.3275 52.2798 31.3579 52.5679C31.4931 53.8469 32.3123 54.6301 32.75 55.1664C33.1413 55.6459 33.7718 55.8411 34.3516 56.0655C34.9123 56.2825 36.2163 56.3856 37.9082 56.3527C38.8769 56.3338 39.4474 56.0826 40.0372 55.8361C40.7187 55.5513 41.3912 55.1015 42.0243 54.6456C42.6142 54.2207 43.0703 53.6913 43.4656 53.1475C44.3354 51.9511 44.7504 50.2783 45.2827 49.0878C45.4169 48.7958 45.5399 48.5037 45.6225 48.2116C45.7051 47.9195 45.7436 47.6363 45.7211 46.972" stroke="#F24822" stroke-width="4" stroke-linecap="round" stroke-linejoin="round"/>
<path d="M105.544 43.0155C105.523 43.0725 105.41 43.3851 105.255 43.5443C103.995 44.8359 105.553 40.2709 105.787 39.7002C106.342 38.3414 107.624 37.2949 108.503 36.4685C108.993 36.0083 109.528 35.6114 110.089 35.3071C110.679 34.9863 111.327 34.8761 111.927 34.8194C112.544 34.7611 113.376 34.9053 114.287 35.1206C115.599 35.4306 116.684 36.2773 117.703 37.1725C118.181 37.593 118.519 38.1478 118.848 38.6753C119.166 39.1839 119.178 40.779 119.177 42.8233C119.102 43.895 118.903 44.6499 118.633 45.4834C118.504 45.8538 118.391 46.1175 117.785 47.0206" stroke="#F849C1" stroke-width="4" stroke-linecap="round" stroke-linejoin="round"/>
<path d="M107.713 46.1732C107.692 46.2302 107.579 46.5427 107.424 46.702C106.164 47.9936 107.722 43.4286 107.956 42.8578C108.511 41.4991 109.793 40.4525 110.673 39.6261C111.162 39.1659 111.698 38.7691 112.258 38.4648C112.848 38.144 113.497 38.0338 114.096 37.9771C114.713 37.9187 115.545 38.0629 116.456 38.2783C117.768 38.5882 118.853 39.435 119.872 40.3301C120.35 40.7507 120.688 41.3054 121.017 41.833C121.335 42.3415 121.347 43.9366 121.346 45.9809C121.271 47.0527 121.072 47.8076 120.802 48.6411C120.673 49.0115 120.56 49.2751 119.954 50.1783" stroke="#F24822" stroke-width="4" stroke-linecap="round" stroke-linejoin="round"/>
<path d="M105.054 42.357C105.054 42.3374 105.054 42.3178 105.163 42.4163C105.272 42.5149 105.49 42.7322 105.602 43.2405C105.884 44.5155 105.781 45.7179 105.967 46.5276C106.195 47.5222 106.552 48.3241 106.851 48.8314C107.438 49.8259 108.542 49.953 109.035 50.3294C109.282 50.5183 109.605 50.583 109.926 50.6316C110.247 50.6802 110.578 50.6802 110.885 50.6384C112.159 50.4649 113.432 49.6827 114.581 49.0159C115.59 48.2426 116.304 47.6306 116.742 47.2217C116.945 47.0015 117.106 46.7557 117.327 46.4484" stroke="#F849C1" stroke-width="4" stroke-linecap="round" stroke-linejoin="round"/>
<path d="M107.224 45.5146C107.224 45.495 107.224 45.4754 107.333 45.574C107.442 45.6726 107.659 45.8899 107.772 46.3981C108.053 47.6732 107.951 48.8756 108.136 49.6852C108.364 50.6799 108.722 51.4817 109.021 51.9891C109.607 52.9835 110.712 53.1106 111.205 53.4871C111.452 53.6759 111.774 53.7406 112.096 53.7893C112.417 53.8379 112.747 53.8379 113.055 53.796C114.329 53.6226 115.602 52.8404 116.75 52.1736C117.759 51.4002 118.474 50.7883 118.912 50.3793C119.114 50.1591 119.275 49.9133 119.496 49.6061" stroke="#F24822" stroke-width="4" stroke-linecap="round" stroke-linejoin="round"/>
<path d="M9.88733 54.4587C9.88733 54.4408 9.82837 54.1485 9.70188 53.9224C9.56 54.3857 9.40908 55.1247 9.13112 56.2625C8.9275 57.0796 8.59684 58.3834 8.13965 60.5257" stroke="#F849C1" stroke-width="4" stroke-linecap="round" stroke-linejoin="round"/>
<path d="M12.0568 57.6163C12.0568 57.5985 11.9978 57.3061 11.8713 57.08C11.7294 57.5433 11.5785 58.2824 11.3006 59.4201C11.0969 60.2372 10.7663 61.5411 10.3091 63.6834" stroke="#F24822" stroke-width="4" stroke-linecap="round" stroke-linejoin="round"/>
<path d="M16.3499 57.4922C16.3704 57.4922 16.4374 57.852 16.4946 58.5619C16.4955 58.9121 16.4391 59.2416 16.0602 60.5727C15.6812 61.9039 14.9815 64.2266 14.0896 67.451" stroke="#F849C1" stroke-width="4" stroke-linecap="round" stroke-linejoin="round"/>
<path d="M18.5194 60.6498C18.5399 60.6498 18.6068 61.0097 18.6641 61.7196C18.6649 62.0697 18.6085 62.3992 18.2296 63.7304C17.8507 65.0615 17.1509 67.3843 16.259 70.6086" stroke="#F24822" stroke-width="4" stroke-linecap="round" stroke-linejoin="round"/>
<path d="M24.2416 61.1249C24.2416 61.0875 24.2416 61.05 24.1993 60.8936C24.157 60.7372 24.0724 60.4629 23.67 62.1447C23.2676 63.8265 22.5499 67.4727 21.7871 71.9743" stroke="#F849C1" stroke-width="4" stroke-linecap="round" stroke-linejoin="round"/>
<path d="M26.4111 64.2825C26.4111 64.2451 26.4111 64.2077 26.3688 64.0513C26.3265 63.8949 26.2419 63.6205 25.8395 65.3023C25.437 66.9841 24.7193 70.6303 23.9565 75.1319" stroke="#F24822" stroke-width="4" stroke-linecap="round" stroke-linejoin="round"/>
<path d="M34.254 63.3001C34.254 63.2716 34.254 63.2431 34.122 63.4039C33.7259 63.9156 32.8311 66.3059 31.5567 70.1833C30.9051 72.0318 30.2438 73.6385 29.5935 76.0063" stroke="#F849C1" stroke-width="4" stroke-linecap="round" stroke-linejoin="round"/>
<path d="M36.4232 66.4578C36.4232 66.4293 36.4232 66.4008 36.2912 66.5615C35.8951 67.0732 35.0002 69.4636 33.7258 73.3409C33.0743 75.1894 32.413 76.7961 31.7627 79.164" stroke="#F24822" stroke-width="4" stroke-linecap="round" stroke-linejoin="round"/>
<path d="M44.2118 64.7629C44.222 64.7629 44.2323 64.7629 44.1799 64.9375C44.1275 65.112 44.0122 65.4612 43.326 67.0669C42.6399 68.6726 41.3864 71.5244 39.9785 74.9484" stroke="#F849C1" stroke-width="4" stroke-linecap="round" stroke-linejoin="round"/>
<path d="M46.3812 67.9206C46.3915 67.9206 46.4017 67.9206 46.3493 68.0951C46.2969 68.2697 46.1816 68.6188 45.4954 70.2246C44.8093 71.8303 43.5559 74.6821 42.1479 78.1061" stroke="#F24822" stroke-width="4" stroke-linecap="round" stroke-linejoin="round"/>
<path d="M52.5929 64.6442C52.6032 64.6353 52.6135 64.6263 52.0843 65.996C51.5551 67.3656 50.4863 70.1141 49.1287 73.7447" stroke="#F849C1" stroke-width="4" stroke-linecap="round" stroke-linejoin="round"/>
<path d="M54.7621 67.8018C54.7724 67.7929 54.7826 67.784 54.2535 69.1536C53.7243 70.5233 52.6554 73.2718 51.2979 76.9024" stroke="#F24822" stroke-width="4" stroke-linecap="round" stroke-linejoin="round"/>
<path d="M61.976 64.3041C61.9657 64.3041 61.9555 64.3041 61.8092 64.4217C61.381 64.7744 60.4087 66.9439 58.5433 70.9468C58.1058 71.7658 57.7854 72.2752 57.4553 72.8001" stroke="#F849C1" stroke-width="4" stroke-linecap="round" stroke-linejoin="round"/>
<path d="M64.1454 67.4618C64.1352 67.4618 64.1249 67.4618 63.9786 67.5793C63.5504 67.932 62.5781 70.1016 60.7128 74.1044C60.2753 74.9235 59.9549 75.4329 59.6248 75.9578" stroke="#F24822" stroke-width="4" stroke-linecap="round" stroke-linejoin="round"/>
<path d="M71.7551 64.3905C71.7551 64.3531 71.7551 64.3156 71.7692 64.1494C71.7833 63.9832 71.8115 63.6893 71.312 65.0822C70.8126 66.4752 69.7848 69.5639 68.6714 72.9998" stroke="#F849C1" stroke-width="4" stroke-linecap="round" stroke-linejoin="round"/>
<path d="M73.9245 67.5481C73.9245 67.5107 73.9245 67.4733 73.9386 67.3071C73.9527 67.1409 73.9809 66.8469 73.4815 68.2399C72.9821 69.6328 71.9542 72.7215 70.8408 76.1575" stroke="#F24822" stroke-width="4" stroke-linecap="round" stroke-linejoin="round"/>
<path d="M79.7712 64.9626C79.7712 64.9341 79.7712 64.9056 79.6482 64.9756C79.5251 65.0455 79.2791 65.2147 78.6422 66.4873C78.0054 67.7599 76.9852 70.1307 75.9341 72.5734" stroke="#F849C1" stroke-width="4" stroke-linecap="round" stroke-linejoin="round"/>
<path d="M81.9406 68.1203C81.9406 68.0918 81.9406 68.0633 81.8176 68.1332C81.6946 68.2032 81.4485 68.3724 80.8116 69.645C80.1748 70.9176 79.1546 73.2884 78.1035 75.7311" stroke="#F24822" stroke-width="4" stroke-linecap="round" stroke-linejoin="round"/>
<path d="M88.0046 65.1353C87.9867 65.1443 87.9687 65.1532 87.8275 65.2237C87.6862 65.2941 87.4222 65.426 86.762 66.6935C86.1018 67.9611 85.0535 70.3604 83.8335 73.6583" stroke="#F849C1" stroke-width="4" stroke-linecap="round" stroke-linejoin="round"/>
<path d="M90.1741 68.293C90.1561 68.3019 90.1382 68.3108 89.9969 68.3813C89.8557 68.4518 89.5916 68.5836 88.9315 69.8512C88.2713 71.1188 87.2229 73.5181 86.0029 76.816" stroke="#F24822" stroke-width="4" stroke-linecap="round" stroke-linejoin="round"/>
<path d="M95.8421 65.6482C95.8062 65.6482 95.7704 65.6482 95.634 65.5635C95.4976 65.4789 95.2617 65.3097 95.0403 65.4256C94.6189 65.9476 93.5363 68.5285 92.1555 71.9652C91.6514 73.2395 91.5463 73.5601 91.438 73.8905" stroke="#F849C1" stroke-width="4" stroke-linecap="round" stroke-linejoin="round"/>
<path d="M98.0116 68.8058C97.9757 68.8058 97.9398 68.8058 97.8034 68.7212C97.667 68.6366 97.4312 68.4674 97.2097 68.5833C96.7883 69.1053 95.7057 71.6861 94.3249 75.1229C93.8208 76.3972 93.7157 76.7178 93.6074 77.0481" stroke="#F24822" stroke-width="4" stroke-linecap="round" stroke-linejoin="round"/>
<path d="M104.029 64.7305C104.029 64.7216 104.029 64.7127 103.911 64.8266C103.557 65.1774 102.576 67.1208 101.373 69.9413C100.908 71.0625 100.739 71.5541 100.565 72.0606" stroke="#F849C1" stroke-width="4" stroke-linecap="round" stroke-linejoin="round"/>
<path d="M106.198 67.8882C106.198 67.8793 106.198 67.8704 106.081 67.9842C105.727 68.335 104.746 70.2784 103.542 73.0989C103.078 74.2201 102.908 74.7118 102.734 75.2183" stroke="#F24822" stroke-width="4" stroke-linecap="round" stroke-linejoin="round"/>
<path d="M112.465 62.6416C112.485 62.5668 112.514 62.2077 112.521 61.8822C111.49 64.8225 109.424 69.9633 109.133 70.9636C108.994 71.4813 108.871 72.0192 108.744 72.8595" stroke="#F849C1" stroke-width="4" stroke-linecap="round" stroke-linejoin="round"/>
<path d="M114.634 65.7993C114.654 65.7245 114.683 65.3653 114.691 65.0398C113.659 67.9802 111.593 73.1209 111.302 74.1213C111.163 74.6389 111.04 75.1769 110.913 76.0172" stroke="#F24822" stroke-width="4" stroke-linecap="round" stroke-linejoin="round"/>
<path d="M119.758 61.4433C119.758 61.4041 119.72 61.7705 119.256 63.6974C118.831 65.2378 118.021 67.9204 117.547 69.5855C117.072 71.2506 116.956 71.8171 116.837 72.8325" stroke="#F849C1" stroke-width="4" stroke-linecap="round" stroke-linejoin="round"/>
<path d="M121.927 64.601C121.927 64.5618 121.889 64.9281 121.426 66.855C121.001 68.3954 120.191 71.078 119.716 72.7432C119.241 74.4083 119.126 74.9747 119.007 75.9901" stroke="#F24822" stroke-width="4" stroke-linecap="round" stroke-linejoin="round"/>
<path d="M128.31 57.1521C128.226 57.4136 127.618 60.1621 126.131 65.1243C124.775 68.3912 124.263 69.457 123.549 71.0559C123.394 71.4458 123.31 71.7486 123.222 72.2873" stroke="#F849C1" stroke-width="4" stroke-linecap="round" stroke-linejoin="round"/>
<path d="M130.479 60.3098C130.395 60.5713 129.787 63.3198 128.3 68.2819C126.944 71.5489 126.432 72.6146 125.718 74.2135C125.563 74.6035 125.479 74.9063 125.392 75.445" stroke="#F24822" stroke-width="4" stroke-linecap="round" stroke-linejoin="round"/>
<path d="M136.124 52.5155C136.104 52.4407 135.97 52.7797 135.581 54.2345C134.827 57.0559 133.491 61.6993 131.916 66.1744C131.343 67.8458 131.23 68.3 131.163 68.77C131.096 69.24 131.078 69.7121 131.2 70.2848" stroke="#F849C1" stroke-width="4" stroke-linecap="round" stroke-linejoin="round"/>
<path d="M138.293 55.6731C138.273 55.5983 138.139 55.9374 137.75 57.3922C136.996 60.2135 135.66 64.8569 134.085 69.332C133.512 71.0035 133.4 71.4577 133.332 71.9277C133.265 72.3977 133.247 72.8697 133.369 73.4424" stroke="#F24822" stroke-width="4" stroke-linecap="round" stroke-linejoin="round"/>
<path d="M145.103 40.9535C145.103 40.8965 144.706 43.2095 143.845 47.7168C141.838 55.2462 140.783 58.5292 140.688 59.1517C140.65 59.4821 140.632 59.8419 140.614 60.2126" stroke="#F849C1" stroke-width="4" stroke-linecap="round" stroke-linejoin="round"/>
<path d="M147.273 44.1112C147.273 44.0542 146.875 46.3672 146.015 50.8745C144.008 58.4039 142.952 61.6868 142.858 62.3093C142.82 62.6397 142.802 62.9996 142.783 63.3703" stroke="#F24822" stroke-width="4" stroke-linecap="round" stroke-linejoin="round"/>
<path d="M149.08 38.0928C149.101 38.0928 149.252 38.4419 149.475 39.7689C149.574 42.3427 149.424 45.6864 149.167 48.4357C149.08 49.4856 149.08 49.8348 149.08 50.1945" stroke="#F849C1" stroke-width="4" stroke-linecap="round" stroke-linejoin="round"/>
<path d="M151.25 41.2504C151.27 41.2504 151.422 41.5996 151.644 42.9265C151.744 45.5004 151.593 48.844 151.337 51.5933C151.25 52.6433 151.25 52.9924 151.25 53.3521" stroke="#F24822" stroke-width="4" stroke-linecap="round" stroke-linejoin="round"/>
<path d="M61.3468 20.3774C61.3468 20.3596 61.3468 20.3418 61.2994 20.5072C61.2519 20.6726 61.1571 21.0217 61.089 21.4135C61.0209 21.8054 60.9825 22.2293 60.9429 22.6661" stroke="#F849C1" stroke-width="4" stroke-linecap="round" stroke-linejoin="round"/>
<path d="M63.5162 23.5351C63.5162 23.5173 63.5162 23.4995 63.4688 23.6649C63.4214 23.8302 63.3265 24.1794 63.2584 24.5712C63.1904 24.963 63.1519 25.3869 63.1123 25.8237" stroke="#F24822" stroke-width="4" stroke-linecap="round" stroke-linejoin="round"/>
<path d="M65.6655 26.6766C65.6552 26.6766 65.645 26.6766 65.518 26.7852C65.3909 26.8939 65.1474 27.1112 64.8284 28.2705C64.5095 29.4298 64.1224 31.5246 63.7236 33.6828" stroke="#F849C1" stroke-width="4" stroke-linecap="round" stroke-linejoin="round"/>
<path d="M67.8349 29.8342C67.8247 29.8342 67.8144 29.8342 67.6874 29.9429C67.5604 30.0515 67.3168 30.2689 66.9979 31.4282C66.6789 32.5875 66.2918 34.6822 65.8931 36.8405" stroke="#F24822" stroke-width="4" stroke-linecap="round" stroke-linejoin="round"/>
<path d="M69.3006 32.6842C69.3006 32.7234 69.2442 33.1105 69.0832 33.9595C68.9785 34.4416 68.8273 35.0276 68.6404 35.6973C68.4536 36.367 68.2357 37.1027 68.0112 37.8606" stroke="#F849C1" stroke-width="4" stroke-linecap="round" stroke-linejoin="round"/>
<path d="M71.4701 35.8419C71.4701 35.8811 71.4137 36.2682 71.2526 37.1172C71.1479 37.5992 70.9967 38.1853 70.8099 38.855C70.623 39.5247 70.4051 40.2604 70.1807 41.0183" stroke="#F24822" stroke-width="4" stroke-linecap="round" stroke-linejoin="round"/>
<path d="M26.502 78.8996C26.5225 78.8212 26.533 78.4032 26.5189 77.978C26.425 75.1448 26.9585 86.3003 27.2969 88.038C27.5812 90.0734 27.703 90.9803 27.7458 91.8576C27.7603 92.4427 27.7603 93.3119 27.7603 94.1751" stroke="#F849C1" stroke-width="4" stroke-linecap="round" stroke-linejoin="round"/>
<path d="M28.6714 82.0572C28.6919 81.9788 28.7025 81.5608 28.6884 81.1356C28.5944 78.3024 29.128 89.4579 29.4663 91.1957C29.7506 93.231 29.8725 94.138 29.9152 95.0152C29.9297 95.6003 29.9297 96.4696 29.9297 97.3328" stroke="#F24822" stroke-width="4" stroke-linecap="round" stroke-linejoin="round"/>
<path d="M5.1959 98.7847C5.1959 98.7651 5.1959 98.7455 5.18564 98.5894C5.13376 100.097 5.26705 106.87 5.52267 110.249C5.56097 110.875 5.56097 111.29 5.56097 111.145" stroke="#F849C1" stroke-width="4" stroke-linecap="round" stroke-linejoin="round"/>
<path d="M7.36533 101.942C7.36533 101.923 7.36533 101.903 7.35508 101.747C7.30319 103.255 7.43648 110.028 7.69211 113.407C7.7304 114.033 7.7304 114.448 7.7304 114.303" stroke="#F24822" stroke-width="4" stroke-linecap="round" stroke-linejoin="round"/>
<path d="M5.38995 97.9534C5.37457 97.9356 5.33845 97.6236 5.41364 97.0517C5.45122 96.7659 5.75284 96.5564 6.02043 96.4025C7.07222 95.7974 11.8734 95.8852 18.334 95.7102C25.0724 95.5276 27.6383 95.1295 29.3789 95.401C30.5204 95.5791 31.8289 95.6108 33.0167 95.5636C34.823 95.4918 36.3549 94.6178 38.2874 94.2366C40.5057 93.7991 43.0727 94.2505 45.1111 94.3926C49.4286 94.6936 53.4862 94.0077 56.8574 93.7475C58.8536 93.5935 60.2535 93.2358 60.8683 93.3106C62.4238 93.4999 64.3691 93.6646 65.9138 93.7199C67.9439 93.7925 68.7927 94.3582 69.3764 94.495C69.6763 94.5653 69.9499 94.7547 70.1849 94.9558C71.0991 95.738 71.6662 96.8241 72.2875 97.8692C72.9775 99.0297 73.241 100.287 73.6248 101.853C73.6736 102.561 73.6736 103.676 73.5647 104.372C73.4557 105.069 73.2379 105.313 72.8736 105.651" stroke="#F849C1" stroke-width="4" stroke-linecap="round" stroke-linejoin="round"/>
<path d="M7.55938 101.111C7.544 101.093 7.50788 100.781 7.58307 100.209C7.62065 99.9236 7.92228 99.7141 8.18987 99.5601C9.24165 98.955 14.0429 99.0429 20.5035 98.8678C27.2419 98.6852 29.8077 98.2871 31.5484 98.5587C32.6899 98.7368 33.9983 98.7685 35.1861 98.7213C36.9924 98.6495 38.5243 97.7754 40.4568 97.3942C42.6752 96.9567 45.2421 97.4081 47.2805 97.5502C51.598 97.8512 55.6556 97.1654 59.0269 96.9052C61.023 96.7511 62.4229 96.3935 63.0377 96.4683C64.5933 96.6576 66.5386 96.8223 68.0833 96.8775C70.1133 96.9501 70.9621 97.5158 71.5459 97.6527C71.8457 97.723 72.1193 97.9124 72.3543 98.1134C73.2685 98.8956 73.8356 99.9818 74.457 101.027C75.1469 102.187 75.4104 103.445 75.7942 105.01C75.8431 105.718 75.8431 106.834 75.7341 107.53C75.6252 108.226 75.4073 108.47 75.043 108.808" stroke="#F24822" stroke-width="4" stroke-linecap="round" stroke-linejoin="round"/>
<path d="M6.9669 112.004C6.9387 112.004 6.91051 112.004 7.05106 112.046C7.19161 112.089 7.50177 112.175 11.9332 112.223C16.3647 112.272 24.908 112.281 31.1688 112.191C37.4295 112.101 41.1488 111.912 43.6274 111.928C47.2394 111.951 49.2776 112.423 50.7906 112.405C52.4162 112.386 53.5037 111.523 54.7756 110.976C56.1703 110.376 58.1383 110.269 60.8374 110.041C63.5547 109.811 66.4083 108.677 68.3136 108.401C69.3666 108.249 70.1526 107.829 70.6652 107.481C71.6906 106.524 72.3978 105.808 72.7829 105.265C72.9603 104.996 73.1013 104.742 73.2466 104.452" stroke="#F849C1" stroke-width="4" stroke-linecap="round" stroke-linejoin="round"/>
<path d="M9.13633 115.161C9.10814 115.161 9.07994 115.161 9.22049 115.204C9.36104 115.247 9.6712 115.332 14.1026 115.381C18.5341 115.429 27.0774 115.438 33.3382 115.348C39.599 115.259 43.3182 115.07 45.7969 115.086C49.4088 115.109 51.447 115.58 52.96 115.563C54.5857 115.544 55.6732 114.68 56.945 114.133C58.3398 113.534 60.3077 113.426 63.0068 113.199C65.7241 112.969 68.5777 111.834 70.4831 111.559C71.536 111.407 72.322 110.987 72.8346 110.639C73.86 109.681 74.5673 108.966 74.9523 108.423C75.1298 108.154 75.2708 107.899 75.416 107.61" stroke="#F24822" stroke-width="4" stroke-linecap="round" stroke-linejoin="round"/>
<path d="M121.615 80.0978C121.635 80.0978 122.015 80.0889 122.687 80.1654C122.999 80.201 123.215 80.4306 123.426 80.6792C124.342 81.7581 124.783 83.0594 125.482 84.0498C125.863 84.5887 126.307 85.0486 126.549 85.5806C127.049 86.6812 127.187 88.1238 127.524 89.7174C127.906 91.5225 127.914 94.6203 127.829 96.8626C127.804 97.5295 127.743 102.297 127.733 109.165C127.728 112.548 127.514 113.954 127.354 115.475C127.08 118.082 127.233 119.504 127.143 120.822C126.999 122.911 127.016 125.91 126.942 128.787C126.816 133.687 126.739 135.346 126.604 136.984C126.439 138.998 126.472 140.833 126.379 142.236C126.34 142.693 126.281 143.305 126.242 143.768C126.203 144.231 126.185 144.524 126.026 144.914" stroke="#F849C1" stroke-width="4" stroke-linecap="round" stroke-linejoin="round"/>
<path d="M123.784 83.2555C123.804 83.2555 124.184 83.2466 124.856 83.323C125.169 83.3586 125.384 83.5883 125.595 83.8368C126.512 84.9158 126.952 86.2171 127.652 87.2075C128.032 87.7464 128.476 88.2062 128.718 88.7382C129.218 89.8389 129.356 91.2815 129.693 92.875C130.075 94.6801 130.083 97.7779 129.998 100.02C129.973 100.687 129.912 105.455 129.902 112.323C129.897 115.706 129.683 117.111 129.523 118.632C129.249 121.24 129.402 122.662 129.312 123.98C129.169 126.069 129.185 129.068 129.111 131.945C128.985 136.845 128.908 138.504 128.773 140.142C128.608 142.155 128.641 143.991 128.548 145.393C128.509 145.85 128.451 146.463 128.411 146.926C128.372 147.388 128.354 147.682 128.196 148.071" stroke="#F24822" stroke-width="4" stroke-linecap="round" stroke-linejoin="round"/>
<path d="M25.1582 115.323C25.1787 115.323 25.3585 115.088 25.5584 114.878C25.7841 114.641 25.2833 116.137 25.1206 120.461C24.9822 124.142 24.9426 130.848 24.9233 134.482C24.9039 138.116 24.9603 138.476 25.0317 138.817C25.298 140.091 26.1066 141.24 26.835 142.44C27.6269 143.745 27.3584 145.797 27.7054 147.268C27.7763 147.569 28.0463 147.768 28.3031 147.97C29.3489 148.793 30.2761 149.21 30.9529 149.602C32.3929 149.89 33.9754 149.965 35.4404 149.891C35.847 149.797 36.2904 149.617 36.7473 149.432" stroke="#F849C1" stroke-width="4" stroke-linecap="round" stroke-linejoin="round"/>
<path d="M27.3277 118.481C27.3482 118.481 27.5279 118.246 27.7279 118.036C27.9536 117.798 27.4527 119.295 27.2901 123.619C27.1516 127.3 27.1121 134.006 27.0927 137.64C27.0734 141.274 27.1298 141.634 27.2011 141.975C27.4675 143.249 28.2761 144.398 29.0044 145.598C29.7963 146.903 29.5279 148.954 29.8748 150.426C29.9457 150.727 30.2158 150.926 30.4725 151.128C31.5184 151.951 32.4456 152.367 33.1223 152.759C34.5624 153.048 36.1448 153.123 37.6098 153.049C38.0164 152.954 38.4598 152.775 38.9167 152.589" stroke="#F24822" stroke-width="4" stroke-linecap="round" stroke-linejoin="round"/>
<path d="M34.9141 149.345C34.9346 149.327 35.04 149.026 35.3387 148.508C35.4908 148.244 35.8528 148.13 36.2061 148.048C36.5594 147.965 36.9465 147.956 37.2971 148.008C38.7529 148.222 40.3333 148.982 42.0294 149.118C45.4152 149.39 47.7992 149.451 53.4711 149.401C57.8442 149.362 61.0718 148.243 64.1049 148.122C66.3242 148.034 69.9294 148.07 73.0984 147.938C78.9 147.696 82.4654 147.184 84.8445 147.001C88.471 146.723 93.1603 146.858 97.5633 146.849C100.734 146.842 104.706 146.58 108.957 146.6C111.653 146.613 114.768 146.943 116.895 146.817C118.218 146.738 119.667 146.893 121.478 147.069C122.258 147.089 123.437 147.089 123.845 147.084C124.254 147.078 123.857 147.068 122.702 147.143" stroke="#F849C1" stroke-width="4" stroke-linecap="round" stroke-linejoin="round"/>
<path d="M37.0835 152.503C37.104 152.485 37.2094 152.184 37.5082 151.665C37.6603 151.402 38.0223 151.288 38.3756 151.205C38.7289 151.123 39.1159 151.114 39.4666 151.165C40.9223 151.379 42.5027 152.14 44.1988 152.276C47.5846 152.548 49.9686 152.609 55.6405 152.559C60.0136 152.52 63.2412 151.401 66.2744 151.28C68.4936 151.192 72.0989 151.227 75.2678 151.095C81.0694 150.854 84.6348 150.341 87.0139 150.159C90.6404 149.881 95.3298 150.016 99.7327 150.007C102.903 150 106.875 149.738 111.126 149.758C113.823 149.771 116.937 150.101 119.065 149.975C120.387 149.896 121.836 150.051 123.647 150.226C124.427 150.247 125.606 150.247 126.015 150.241C126.424 150.236 126.026 150.225 124.871 150.301" stroke="#F24822" stroke-width="4" stroke-linecap="round" stroke-linejoin="round"/>
<path d="M27.9312 134.782C27.8748 134.782 27.5536 134.791 27.3005 134.852C26.1012 135.139 29.8002 135.552 31.7125 136.172C33.4191 136.726 34.6336 136.973 35.7799 137.323C37.8319 137.949 41.1904 137.53 44.7058 137.626C46.8948 137.685 49.1064 137.645 51.2796 137.579C53.7789 137.503 57.6526 137.602 59.5526 137.777C62.4655 138.046 64.9862 137.343 66.9425 136.983C68.8734 136.627 71.4357 136.701 73.3782 136.407C75.354 136.108 78.5811 136.439 81.6199 136.502C87.0161 136.613 88.9921 136.232 92.584 136.149C95.0977 136.09 97.4877 135.89 100.496 135.356C104.935 134.568 106.024 134.259 106.64 134.12C107.844 133.847 108.691 132.299 110.463 131.033C112.791 129.368 115.786 127.813 116.939 127.135C118.252 126.364 119.204 125.192 120.063 124.089C120.811 123.127 121.927 122.348 123.121 121.288C123.571 120.814 123.953 120.355 124.337 119.868C124.533 119.619 124.733 119.364 125.335 118.67" stroke="#F849C1" stroke-width="4" stroke-linecap="round" stroke-linejoin="round"/>
<path d="M30.1007 137.94C30.0443 137.94 29.723 137.949 29.47 138.009C28.2706 138.297 31.9697 138.71 33.8819 139.33C35.5885 139.883 36.8031 140.131 37.9493 140.48C40.0013 141.106 43.3599 140.688 46.8752 140.783C49.0642 140.843 51.2758 140.803 53.449 140.737C55.9483 140.661 59.8221 140.76 61.722 140.935C64.6349 141.204 67.1556 140.501 69.1119 140.14C71.0428 139.785 73.6051 139.859 75.5476 139.565C77.5234 139.265 80.7505 139.597 83.7893 139.66C89.1855 139.771 91.1615 139.39 94.7534 139.306C97.2671 139.248 99.6571 139.048 102.665 138.514C107.104 137.726 108.194 137.416 108.809 137.277C110.014 137.005 110.86 135.457 112.632 134.19C114.961 132.526 117.955 130.971 119.109 130.293C120.422 129.522 121.374 128.35 122.233 127.246C122.981 126.285 124.097 125.506 125.29 124.446C125.74 123.971 126.123 123.512 126.506 123.026C126.702 122.777 126.902 122.522 127.505 121.828" stroke="#F24822" stroke-width="4" stroke-linecap="round" stroke-linejoin="round"/>
<path d="M31.5354 137.929C31.5354 137.893 31.2996 138.158 30.4796 139.522C29.8955 140.602 28.9701 142.47 28.3102 143.749C27.6502 145.028 27.2837 145.66 26.906 146.803" stroke="#F849C1" stroke-width="4" stroke-linecap="round" stroke-linejoin="round"/>
<path d="M33.7046 141.087C33.7046 141.051 33.4688 141.316 32.6488 142.679C32.0647 143.759 31.1393 145.628 30.4794 146.907C29.8194 148.185 29.4528 148.818 29.0752 149.96" stroke="#F24822" stroke-width="4" stroke-linecap="round" stroke-linejoin="round"/>
<path d="M39.9163 140.218C39.8446 140.218 39.5794 140.029 39.0838 139.79C38.8387 139.672 38.5165 139.834 37.6776 140.87C36.8387 141.905 35.4699 143.879 34.6456 145.117C33.8213 146.356 33.5829 146.799 33.5703 147.688" stroke="#F849C1" stroke-width="4" stroke-linecap="round" stroke-linejoin="round"/>
<path d="M42.0858 143.375C42.014 143.375 41.7489 143.186 41.2533 142.948C41.0081 142.829 40.6859 142.992 39.847 144.027C39.0081 145.063 37.6394 147.036 36.815 148.275C35.9907 149.513 35.7523 149.957 35.7397 150.846" stroke="#F24822" stroke-width="4" stroke-linecap="round" stroke-linejoin="round"/>
<path d="M45.6722 139.046C45.6901 139.046 45.7081 139.046 45.8545 139.103C46.0008 139.16 46.2751 139.274 46.1101 139.833C45.3325 141.39 44.2373 143.327 43.4588 144.894C43.1441 145.556 42.9929 145.944 42.7827 146.684" stroke="#F849C1" stroke-width="4" stroke-linecap="round" stroke-linejoin="round"/>
<path d="M47.8414 142.204C47.8593 142.204 47.8773 142.204 48.0237 142.261C48.17 142.318 48.4443 142.432 48.2793 142.99C47.5016 144.548 46.4065 146.484 45.6279 148.052C45.3133 148.713 45.1621 149.102 44.9519 149.842" stroke="#F24822" stroke-width="4" stroke-linecap="round" stroke-linejoin="round"/>
<path d="M56.8804 139.505C56.8727 139.486 56.8651 139.466 56.7855 139.329C56.7059 139.191 56.5547 138.936 56.3486 138.947C55.8862 139.24 54.4994 141.543 52.6663 144.888C51.9559 146.221 51.6919 146.816 51.3345 147.747" stroke="#F849C1" stroke-width="4" stroke-linecap="round" stroke-linejoin="round"/>
<path d="M59.0499 142.663C59.0422 142.643 59.0345 142.624 58.9549 142.486C58.8753 142.349 58.7241 142.094 58.518 142.104C58.0556 142.398 56.6688 144.701 54.8358 148.045C54.1254 149.379 53.8614 149.974 53.5039 150.905" stroke="#F24822" stroke-width="4" stroke-linecap="round" stroke-linejoin="round"/>
<path d="M62.2867 139.592C62.2969 139.552 62.3072 139.513 62.3407 139.337C62.3741 139.161 62.4305 138.849 61.9354 139.94C61.4403 141.031 60.3919 143.533 59.1409 146.83" stroke="#F849C1" stroke-width="4" stroke-linecap="round" stroke-linejoin="round"/>
<path d="M64.4561 142.749C64.4664 142.71 64.4766 142.671 64.5101 142.495C64.5436 142.319 64.6 142.007 64.1048 143.098C63.6097 144.188 62.5613 146.691 61.3103 149.988" stroke="#F24822" stroke-width="4" stroke-linecap="round" stroke-linejoin="round"/>
<path d="M69.2697 138.701C69.2902 138.626 69.3007 138.267 69.2905 137.974C69.2894 137.944 69.2597 138.389 69.1735 138.763C69.0874 139.136 68.9361 139.485 68.311 140.723C67.6858 141.961 66.5913 144.077 65.2927 146.97" stroke="#F849C1" stroke-width="4" stroke-linecap="round" stroke-linejoin="round"/>
<path d="M71.4388 141.858C71.4594 141.784 71.4699 141.425 71.4597 141.132C71.4586 141.102 71.4289 141.547 71.3427 141.92C71.2565 142.294 71.1053 142.643 70.4802 143.881C69.855 145.119 68.7605 147.235 67.4619 150.128" stroke="#F24822" stroke-width="4" stroke-linecap="round" stroke-linejoin="round"/>
<path d="M76.0818 138.82C76.0818 138.8 76.0818 138.78 76.0523 138.629C76.0228 138.477 75.9638 138.194 75.3439 139.328C74.724 140.462 73.5449 143.021 72.2446 146.198" stroke="#F849C1" stroke-width="4" stroke-linecap="round" stroke-linejoin="round"/>
<path d="M78.2512 141.977C78.2512 141.958 78.2512 141.938 78.2217 141.786C78.1922 141.635 78.1333 141.351 77.5134 142.485C76.8934 143.619 75.7143 146.179 74.4141 149.356" stroke="#F24822" stroke-width="4" stroke-linecap="round" stroke-linejoin="round"/>
<path d="M81.8295 138.787C81.8295 138.752 81.8295 138.365 81.768 137.966C81.5835 138.257 80.598 140.609 79.2444 143.856C78.7495 145.081 78.6444 145.448 78.5361 146.598" stroke="#F849C1" stroke-width="4" stroke-linecap="round" stroke-linejoin="round"/>
<path d="M83.999 141.945C83.999 141.909 83.999 141.522 83.9374 141.124C83.7529 141.415 82.7674 143.767 81.4138 147.014C80.9189 148.239 80.8138 148.605 80.7056 149.755" stroke="#F24822" stroke-width="4" stroke-linecap="round" stroke-linejoin="round"/>
<path d="M90.3815 137.643C90.3815 137.634 90.3815 137.625 89.9329 138.569C89.4843 139.513 88.5872 141.41 88.0545 142.581C87.5219 143.753 87.3809 144.141 87.1191 145.081" stroke="#F849C1" stroke-width="4" stroke-linecap="round" stroke-linejoin="round"/>
<path d="M92.5509 140.801C92.5509 140.792 92.5509 140.783 92.1023 141.727C91.6538 142.671 90.7566 144.568 90.224 145.739C89.6913 146.91 89.5503 147.299 89.2886 148.239" stroke="#F24822" stroke-width="4" stroke-linecap="round" stroke-linejoin="round"/>
<path d="M97.4189 137.729C97.4189 137.637 97.4189 137.192 97.3343 136.76C95.7912 139.124 93.3582 142.924 93.0635 143.572C92.9379 143.889 92.861 144.181 92.7817 144.714" stroke="#F849C1" stroke-width="4" stroke-linecap="round" stroke-linejoin="round"/>
<path d="M99.5883 140.887C99.5883 140.794 99.5883 140.349 99.5038 139.918C97.9607 142.282 95.5277 146.082 95.2329 146.73C95.1073 147.046 95.0304 147.338 94.9512 147.872" stroke="#F24822" stroke-width="4" stroke-linecap="round" stroke-linejoin="round"/>
<path d="M105.629 136.558C105.629 136.501 105.647 136.083 105.537 135.642C103.853 137.771 101.085 142.482 100.262 144.369C100.138 144.711 100.054 144.994 99.8811 145.972" stroke="#F849C1" stroke-width="4" stroke-linecap="round" stroke-linejoin="round"/>
<path d="M107.798 139.716C107.798 139.659 107.816 139.241 107.706 138.8C106.022 140.929 103.254 145.64 102.432 147.527C102.308 147.869 102.223 148.152 102.051 149.129" stroke="#F24822" stroke-width="4" stroke-linecap="round" stroke-linejoin="round"/>
<path d="M111.035 134.01C111.056 134.01 110.961 134.397 110.165 136.527C109.474 138.27 108.2 141.359 107.505 143.101C106.811 144.842 106.734 145.143 107.198 145.826" stroke="#F849C1" stroke-width="4" stroke-linecap="round" stroke-linejoin="round"/>
<path d="M113.204 137.168C113.225 137.168 113.13 137.554 112.334 139.684C111.643 141.428 110.369 144.517 109.674 146.258C108.98 148 108.903 148.301 109.367 148.984" stroke="#F24822" stroke-width="4" stroke-linecap="round" stroke-linejoin="round"/>
<path d="M118.36 130.232C118.083 130.544 116.132 134.575 112.898 140.653C112.129 141.956 111.476 143.003 111.021 143.783C110.566 144.563 110.331 145.044 110.375 146.198" stroke="#F849C1" stroke-width="4" stroke-linecap="round" stroke-linejoin="round"/>
<path d="M120.529 133.389C120.252 133.701 118.302 137.733 115.068 143.811C114.299 145.114 113.645 146.161 113.19 146.941C112.736 147.721 112.5 148.202 112.544 149.356" stroke="#F24822" stroke-width="4" stroke-linecap="round" stroke-linejoin="round"/>
<path d="M122.508 128.003C122.516 127.954 122.523 127.906 122.599 127.754C122.675 127.602 122.818 127.347 123.024 127.296C123.23 127.245 123.494 127.406 122.601 129.958C121.708 132.51 119.65 137.45 118.542 140.159C117.434 142.868 117.339 143.198 117.276 143.542C117.213 143.886 117.185 144.235 117.21 145.286" stroke="#F849C1" stroke-width="4" stroke-linecap="round" stroke-linejoin="round"/>
<path d="M124.677 131.16C124.685 131.112 124.693 131.064 124.768 130.912C124.844 130.76 124.988 130.505 125.194 130.454C125.4 130.403 125.664 130.563 124.77 133.116C123.877 135.668 121.819 140.607 120.711 143.317C119.603 146.026 119.509 146.355 119.446 146.7C119.383 147.044 119.355 147.393 119.38 148.444" stroke="#F24822" stroke-width="4" stroke-linecap="round" stroke-linejoin="round"/>
<path d="M129.46 102.191C129.46 102.209 129.639 101.943 130.128 101.448C132.083 99.4631 136.54 99.5429 138.715 98.8588C141.532 97.9728 144.035 97.2761 147.588 95.8264C149.698 94.9652 152.564 94.3518 156.286 93.2382C159.148 92.3818 161.994 91.6326 163.265 91.2182C164.92 90.6787 165.953 89.8794 167.38 89.4089C169.034 88.8632 170.328 88.6561 172.265 88.2376C173.735 87.9199 174.924 87.5026 176.172 87.4012C177.397 87.3017 178.898 87.1958 180.254 87.4312C180.559 87.484 180.843 87.6113 181.108 87.7686C181.372 87.9259 181.601 88.1432 181.76 88.3923C181.92 88.6414 182.005 88.9158 182.062 89.2085C182.12 89.5012 182.148 89.804 182.208 90.8555" stroke="#F849C1" stroke-width="4" stroke-linecap="round" stroke-linejoin="round"/>
<path d="M131.629 105.348C131.629 105.366 131.808 105.101 132.297 104.605C134.252 102.621 138.709 102.701 140.884 102.016C143.702 101.13 146.205 100.434 149.757 98.9841C151.867 98.1229 154.733 97.5095 158.455 96.3959C161.318 95.5395 164.163 94.7903 165.434 94.3759C167.089 93.8364 168.122 93.037 169.549 92.5665C171.203 92.0208 172.498 91.8138 174.434 91.3952C175.904 91.0775 177.093 90.6603 178.342 90.5588C179.566 90.4594 181.067 90.3535 182.424 90.5888C182.728 90.6416 183.012 90.769 183.277 90.9263C183.542 91.0836 183.77 91.3009 183.93 91.55C184.089 91.7991 184.174 92.0734 184.232 92.3661C184.289 92.6588 184.318 92.9617 184.378 94.0131" stroke="#F24822" stroke-width="4" stroke-linecap="round" stroke-linejoin="round"/>
<path d="M182.861 91.0605C182.852 91.3595 183.065 92.6164 183.103 96.1998C183.127 98.4946 183.272 100.093 183.395 101.377C183.425 101.688 183.425 101.992 183.439 105.496C183.454 109 183.472 115.695 183.509 119.291C183.556 123.805 183.875 125.359 183.929 127.359C183.977 129.18 184.067 130.361 184.087 133.251C184.063 133.894 184.006 134.177 183.949 134.474C183.892 134.77 183.836 135.071 183.692 136.239" stroke="#F849C1" stroke-width="4" stroke-linecap="round" stroke-linejoin="round"/>
<path d="M185.03 94.2182C185.021 94.5171 185.234 95.774 185.272 99.3575C185.296 101.652 185.441 103.251 185.564 104.535C185.594 104.846 185.594 105.15 185.609 108.654C185.623 112.157 185.641 118.853 185.678 122.448C185.725 126.962 186.045 128.517 186.098 130.516C186.146 132.338 186.236 133.518 186.256 136.409C186.232 137.052 186.176 137.335 186.118 137.631C186.061 137.928 186.005 138.229 185.861 139.397" stroke="#F24822" stroke-width="4" stroke-linecap="round" stroke-linejoin="round"/>
<path d="M129.46 124.883C129.883 124.973 131.346 125.451 133.722 126.442C135.396 127.14 136.715 127.551 138.235 127.854C138.924 127.991 139.656 128.777 140.704 129.582C141.732 130.371 143.39 130.27 144.781 130.609C146.148 130.942 146.989 132.145 148.121 132.89C149.972 134.106 154.124 134.044 156.371 134.337C158.46 134.609 160.39 135.018 162.128 135.461C163.745 135.873 165.692 136.363 167.192 136.688C168.468 136.965 172.698 136.957 175.887 136.899C177.298 136.767 178.407 136.537 179.037 136.385C179.345 136.309 179.627 136.232 180.492 136.326" stroke="#F849C1" stroke-width="4" stroke-linecap="round" stroke-linejoin="round"/>
<path d="M131.629 128.04C132.052 128.131 133.515 128.608 135.892 129.6C137.565 130.298 138.885 130.709 140.404 131.011C141.093 131.148 141.825 131.934 142.873 132.739C143.901 133.529 145.559 133.428 146.95 133.767C148.318 134.099 149.158 135.303 150.291 136.047C152.141 137.264 156.294 137.202 158.54 137.494C160.629 137.766 162.559 138.176 164.297 138.619C165.914 139.031 167.861 139.521 169.361 139.846C170.637 140.122 174.867 140.115 178.056 140.057C179.467 139.925 180.576 139.695 181.206 139.543C181.514 139.466 181.796 139.39 182.661 139.484" stroke="#F24822" stroke-width="4" stroke-linecap="round" stroke-linejoin="round"/>
<path d="M129.77 111.863C129.76 111.863 129.75 111.863 129.646 111.755C129.542 111.646 129.344 111.429 129.385 111.293C129.426 111.157 129.71 111.109 130.031 111.202C131.435 111.612 132.513 112.658 133.916 113.708C136.313 115.503 137.054 116.493 138.128 117.1C139.204 117.708 141.437 117.833 143.59 118.003C146.954 118.268 148.741 118.671 150.945 119.028C152.598 119.295 154.185 119.427 156.216 119.524C158.172 119.618 159.864 119.757 162.976 119.967C168.447 120.337 171.177 119.856 173.497 119.918C177.585 120.028 178.805 119.655 180.044 119.293C180.646 119.073 181.232 118.901 181.819 118.77C182.125 118.694 182.445 118.6 182.806 118.244" stroke="#F849C1" stroke-width="4" stroke-linecap="round" stroke-linejoin="round"/>
<path d="M131.94 115.021C131.929 115.021 131.919 115.021 131.815 114.912C131.711 114.804 131.514 114.586 131.554 114.45C131.595 114.314 131.88 114.266 132.2 114.36C133.604 114.77 134.682 115.816 136.085 116.866C138.483 118.66 139.223 119.651 140.297 120.258C141.374 120.866 143.606 120.991 145.759 121.161C149.123 121.426 150.911 121.829 153.114 122.185C154.767 122.453 156.355 122.585 158.386 122.682C160.341 122.775 162.034 122.915 165.145 123.125C170.617 123.494 173.347 123.013 175.667 123.076C179.754 123.186 180.975 122.813 182.214 122.451C182.816 122.231 183.401 122.058 183.989 121.928C184.294 121.852 184.615 121.758 184.976 121.401" stroke="#F24822" stroke-width="4" stroke-linecap="round" stroke-linejoin="round"/>
<path d="M132.574 115.636C132.518 115.619 132.291 115.893 131.869 116.662C131.399 117.828 130.709 119.483 130.012 121.068C129.75 121.701 129.676 121.984 129.599 122.308" stroke="#F849C1" stroke-width="4" stroke-linecap="round" stroke-linejoin="round"/>
<path d="M134.744 118.794C134.687 118.776 134.461 119.05 134.039 119.82C133.568 120.986 132.879 122.64 132.181 124.226C131.92 124.858 131.845 125.141 131.769 125.466" stroke="#F24822" stroke-width="4" stroke-linecap="round" stroke-linejoin="round"/>
<path d="M138.47 117.812C138.46 117.803 138.449 117.794 138.288 117.813C138.126 117.833 137.813 117.881 137.436 118.429C137.058 118.978 136.625 120.025 136.227 121.055C135.83 122.086 135.481 123.067 135.06 124.651" stroke="#F849C1" stroke-width="4" stroke-linecap="round" stroke-linejoin="round"/>
<path d="M140.639 120.969C140.629 120.96 140.619 120.952 140.457 120.971C140.296 120.99 139.983 121.039 139.605 121.587C139.228 122.135 138.794 123.183 138.397 124.213C137.999 125.243 137.651 126.225 137.229 127.808" stroke="#F24822" stroke-width="4" stroke-linecap="round" stroke-linejoin="round"/>
<path d="M142.99 120.359C142.99 120.324 142.603 120.786 141.794 121.827C140.926 123.01 140.251 124.001 139.83 124.729C139.624 125.107 139.434 125.504 139.153 126.167" stroke="#F849C1" stroke-width="4" stroke-linecap="round" stroke-linejoin="round"/>
<path d="M145.16 123.517C145.16 123.481 144.773 123.944 143.963 124.984C143.095 126.167 142.42 127.159 141.999 127.886C141.793 128.265 141.604 128.662 141.323 129.325" stroke="#F24822" stroke-width="4" stroke-linecap="round" stroke-linejoin="round"/>
<path d="M148.164 120.591C148.143 120.591 147.953 120.827 147.324 122.141C146.874 123.221 146.158 125.137 145.704 126.337C145.25 127.538 145.078 127.963 144.878 128.542" stroke="#F849C1" stroke-width="4" stroke-linecap="round" stroke-linejoin="round"/>
<path d="M150.333 123.749C150.312 123.749 150.122 123.984 149.493 125.299C149.043 126.378 148.328 128.295 147.874 129.495C147.419 130.695 147.248 131.121 147.047 131.7" stroke="#F24822" stroke-width="4" stroke-linecap="round" stroke-linejoin="round"/>
<path d="M157.78 120.646C157.739 120.72 157.492 120.987 157.084 121.464C156.264 123.241 154.914 126.502 153.435 129.251C153.098 129.848 152.852 130.263 152.544 131.004" stroke="#F849C1" stroke-width="4" stroke-linecap="round" stroke-linejoin="round"/>
<path d="M159.949 123.803C159.908 123.878 159.661 124.145 159.253 124.622C158.433 126.398 157.084 129.66 155.605 132.409C155.268 133.006 155.022 133.421 154.714 134.161" stroke="#F24822" stroke-width="4" stroke-linecap="round" stroke-linejoin="round"/>
<path d="M165.501 123.652C165.48 123.634 165.375 123.351 165.137 122.826C165.019 122.564 164.808 122.359 164.608 122.36C164.2 122.588 162.21 125.975 159.443 130.934C158.452 132.738 158.301 133.096 158.059 134.21" stroke="#F849C1" stroke-width="4" stroke-linecap="round" stroke-linejoin="round"/>
<path d="M167.67 126.81C167.649 126.792 167.544 126.508 167.307 125.984C167.188 125.722 166.977 125.517 166.777 125.518C166.369 125.745 164.379 129.133 161.612 134.092C160.621 135.896 160.47 136.254 160.229 137.368" stroke="#F24822" stroke-width="4" stroke-linecap="round" stroke-linejoin="round"/>
<path d="M167.901 123.911C167.998 123.722 168.171 123.34 168.173 123.267C167.683 124.197 166.631 126.533 165.492 129.178C165.024 130.227 164.781 130.681 164.273 131.549" stroke="#F849C1" stroke-width="4" stroke-linecap="round" stroke-linejoin="round"/>
<path d="M170.07 127.069C170.168 126.88 170.341 126.498 170.343 126.425C169.852 127.355 168.801 129.69 167.661 132.336C167.194 133.385 166.95 133.839 166.443 134.707" stroke="#F24822" stroke-width="4" stroke-linecap="round" stroke-linejoin="round"/>
<path d="M173.252 122.68C172.847 123.65 171.061 127.573 167.678 132.743C167.042 133.73 166.929 134.022 167.028 134.083C167.126 134.143 167.439 133.963 167.761 133.778" stroke="#F849C1" stroke-width="4" stroke-linecap="round" stroke-linejoin="round"/>
<path d="M175.422 125.838C175.017 126.808 173.231 130.73 169.848 135.9C169.212 136.888 169.099 137.18 169.197 137.241C169.295 137.301 169.608 137.121 169.93 136.936" stroke="#F24822" stroke-width="4" stroke-linecap="round" stroke-linejoin="round"/>
<path d="M178.861 122.308C178.861 122.279 178.861 122.251 178.757 122.137C178.653 122.022 178.445 121.823 177.668 123.227C176.891 124.631 175.55 127.645 173.967 131.436" stroke="#F849C1" stroke-width="4" stroke-linecap="round" stroke-linejoin="round"/>
<path d="M181.03 125.466C181.03 125.437 181.03 125.409 180.926 125.294C180.822 125.18 180.615 124.98 179.837 126.384C179.06 127.789 177.72 130.802 176.136 134.593" stroke="#F24822" stroke-width="4" stroke-linecap="round" stroke-linejoin="round"/>
<path d="M181.688 127.884C181.575 127.923 181.263 128.104 180.708 128.663C180.407 129.061 180.066 129.694 179.745 130.28C179.423 130.865 179.131 131.385 178.83 131.921" stroke="#F849C1" stroke-width="4" stroke-linecap="round" stroke-linejoin="round"/>
<path d="M183.857 131.042C183.745 131.081 183.433 131.261 182.878 131.82C182.577 132.219 182.236 132.851 181.914 133.437C181.592 134.023 181.3 134.543 180.999 135.079" stroke="#F24822" stroke-width="4" stroke-linecap="round" stroke-linejoin="round"/>
<path d="M66.4966 150.322C66.553 150.301 66.8178 150.092 67.3264 149.802C67.8301 149.515 69.2231 149.873 71.9427 150.068C76.0215 150.361 79.5583 150.045 81.9495 149.826C87.2535 149.342 90.4564 150.536 93.4716 151.374C94.9814 151.794 97.3461 151.835 100.302 151.835C105.006 151.836 107.463 151.748 109.821 152.211C112.406 152.72 114.481 152.383 114.83 152.377C114.86 152.376 114.547 152.474 114.528 152.457C113.527 151.515 118.996 151.325 120.829 150.794C121.195 150.688 121.553 150.475 121.856 150.293C122.158 150.112 122.384 149.934 122.505 149.695C122.627 149.456 122.637 149.162 122.751 148.916C122.865 148.671 123.083 148.482 123.078 148.503C122.986 148.844 122.301 149.137 121.688 149.403C121.033 149.686 120.277 149.918 119.345 150.142C118.163 150.427 114.711 150.511 110.314 150.607C107.293 150.673 102.852 151.979 99.9654 152.643C99.6231 152.722 99.2946 152.64 99.1052 152.479C98.9158 152.317 98.8671 152.023 98.9651 151.777C99.063 151.531 99.3091 151.343 99.6294 151.194C100.31 150.877 101.112 150.778 102.869 150.663C106.613 150.418 111.497 150.509 115.338 150.529C117.046 150.538 118.245 150.32 119.749 150.002C120.686 149.731 121.273 149.453 121.797 149.134C122.065 148.967 122.336 148.789 122.158 148.374" stroke="#F849C1" stroke-width="4" stroke-linecap="round" stroke-linejoin="round"/>
<path d="M68.666 153.48C68.7224 153.458 68.9873 153.25 69.4958 152.96C69.9995 152.673 71.3925 153.031 74.1121 153.226C78.1909 153.518 81.7278 153.202 84.1189 152.984C89.4229 152.499 92.6258 153.694 95.641 154.532C97.1508 154.952 99.5155 154.993 102.472 154.993C107.175 154.994 109.633 154.905 111.991 155.369C114.576 155.877 116.65 155.54 117 155.534C117.029 155.534 116.716 155.632 116.698 155.614C115.697 154.673 121.166 154.482 122.998 153.951C123.364 153.845 123.722 153.633 124.025 153.451C124.328 153.269 124.553 153.091 124.675 152.852C124.796 152.614 124.806 152.32 124.921 152.074C125.035 151.828 125.253 151.639 125.247 151.661C125.156 152.002 124.47 152.295 123.857 152.56C123.203 152.844 122.447 153.076 121.514 153.3C120.332 153.584 116.881 153.668 112.484 153.764C109.462 153.83 105.022 155.136 102.135 155.801C101.793 155.88 101.464 155.798 101.275 155.636C101.085 155.475 101.037 155.181 101.135 154.935C101.232 154.689 101.479 154.5 101.799 154.351C102.48 154.035 103.282 153.936 105.038 153.821C108.783 153.576 113.667 153.667 117.508 153.687C119.216 153.695 120.414 153.478 121.918 153.16C122.856 152.889 123.442 152.611 123.966 152.292C124.234 152.125 124.506 151.947 124.328 151.531" stroke="#F24822" stroke-width="4" stroke-linecap="round" stroke-linejoin="round"/>
<path d="M50.9575 154.673C50.9575 154.634 50.7704 154.388 50.4395 153.903C50.2728 153.659 50.2008 153.362 50.2417 153.348C51.1185 154.738 52.3426 157.126 52.6759 158.584C52.7231 159.005 52.7411 159.477 52.8761 160.535" stroke="#F849C1" stroke-width="4" stroke-linecap="round" stroke-linejoin="round"/>
<path d="M53.127 157.831C53.127 157.792 52.9398 157.545 52.6089 157.061C52.4422 156.817 52.3703 156.52 52.4111 156.505C53.2879 157.896 54.5121 160.284 54.8453 161.742C54.8926 162.162 54.9105 162.634 55.0455 163.693" stroke="#F24822" stroke-width="4" stroke-linecap="round" stroke-linejoin="round"/>
<path d="M28.0748 204.575C28.0568 204.575 28.0389 204.575 27.8874 204.566C27.7359 204.557 27.4514 204.539 27.3099 204.383C27.1685 204.227 27.1787 203.933 27.2737 203.565C27.7547 201.698 28.7142 200.072 29.2686 198.782C30.0957 196.859 31.6939 194.685 33.1034 193.13C34.0345 192.103 35.5174 190.602 36.9252 188.721C38.0725 187.189 38.9435 185.165 40.1483 183.654C41.5038 181.954 42.862 181.097 43.787 179.96C45.9079 177.353 47.4482 173.898 48.6511 171.771C49.5952 170.101 50.5575 168.964 51.6746 167.187C52.469 165.922 52.7221 164.701 53.0894 163.465C53.5518 161.91 54.9418 160.58 55.5305 159.496C55.6774 159.225 55.8683 158.985 56.0786 158.779C56.289 158.572 56.5248 158.412 56.7924 158.292C57.06 158.172 57.3522 158.097 57.6398 158.105C57.9275 158.114 58.2018 158.209 58.4238 158.413C59.3906 159.303 59.8267 160.57 60.5541 161.653C61.5545 163.143 62.2368 164.233 62.8905 165.34C63.1366 166.543 63.3636 167.8 63.5655 168.894C63.6342 169.422 63.6342 169.894 63.3468 170.753" stroke="#F849C1" stroke-width="4" stroke-linecap="round" stroke-linejoin="round"/>
<path d="M30.244 207.733C30.226 207.733 30.2081 207.733 30.0566 207.724C29.9051 207.715 29.6205 207.697 29.4791 207.541C29.3377 207.385 29.3479 207.091 29.4429 206.722C29.9238 204.856 30.8834 203.23 31.4378 201.94C32.2648 200.016 33.8631 197.842 35.2726 196.288C36.2037 195.261 37.6866 193.76 39.0944 191.879C40.2417 190.346 41.1126 188.322 42.3175 186.811C43.673 185.111 45.0312 184.254 45.9562 183.118C48.077 180.511 49.6174 177.056 50.8203 174.928C51.7644 173.258 52.7267 172.122 53.8438 170.344C54.6382 169.08 54.8913 167.858 55.2586 166.623C55.721 165.068 57.111 163.738 57.6997 162.653C57.8466 162.382 58.0375 162.143 58.2478 161.936C58.4581 161.73 58.694 161.569 58.9616 161.449C59.2291 161.329 59.5214 161.254 59.809 161.263C60.0967 161.272 60.371 161.366 60.593 161.571C61.5598 162.461 61.9959 163.727 62.7233 164.811C63.7237 166.3 64.406 167.391 65.0597 168.498C65.3058 169.701 65.5327 170.958 65.7347 172.052C65.8034 172.58 65.8034 173.052 65.516 173.911" stroke="#F24822" stroke-width="4" stroke-linecap="round" stroke-linejoin="round"/>
<path d="M27.7328 202.513C27.7889 202.844 27.9812 205.897 27.7572 208.973C27.7198 209.486 27.6559 209.815 27.7822 210.028C27.9085 210.242 28.2008 210.327 28.5025 210.333C28.8043 210.339 29.1068 210.262 29.3766 210.11C30.4664 209.494 31.2857 207.779 32.5289 206.484C33.0069 205.985 33.871 205.136 35.5921 203.03C40.6432 196.85 42.3588 195.037 43.7942 193.895C45.2255 192.755 47.1692 190.477 48.2603 189.082C49.0289 188.099 49.9798 186.512 50.9632 185.306C51.8808 184.181 53.3016 183.385 56.031 181.675C57.4163 180.808 58.1828 179.77 60.0301 177.655C61.4244 176.059 63.0914 174.425 64.3469 172.887C65.2303 171.804 65.7374 171.061 66.0192 170.52C66.1396 170.243 66.2139 169.96 66.2291 169.671C66.2443 169.383 66.1982 169.098 66.1507 168.804" stroke="#F849C1" stroke-width="4" stroke-linecap="round" stroke-linejoin="round"/>
<path d="M29.9023 205.671C29.9584 206.002 30.1507 209.055 29.9266 212.131C29.8893 212.644 29.8254 212.973 29.9517 213.186C30.078 213.399 30.3702 213.485 30.672 213.491C30.9737 213.496 31.2762 213.42 31.5461 213.267C32.6359 212.651 33.4551 210.937 34.6983 209.641C35.1763 209.143 36.0404 208.294 37.7615 206.188C42.8126 200.008 44.5282 198.195 45.9636 197.052C47.395 195.913 49.3386 193.635 50.4298 192.239C51.1984 191.256 52.1492 189.669 53.1327 188.464C54.0503 187.339 55.471 186.542 58.2005 184.833C59.5858 183.965 60.3522 182.928 62.1996 180.813C63.5939 179.217 65.2608 177.582 66.5163 176.044C67.3997 174.962 67.9068 174.219 68.1886 173.678C68.309 173.401 68.3833 173.117 68.3985 172.829C68.4138 172.541 68.3676 172.256 68.3201 171.962" stroke="#F24822" stroke-width="4" stroke-linecap="round" stroke-linejoin="round"/>
<path d="M61.1718 158.905C61.1154 158.944 60.8223 159.105 60.4646 159.182C60.3538 159.206 60.4555 158.846 60.6131 158.8C60.7707 158.754 60.9989 158.943 61.2484 159.295C62.9456 161.689 64.5794 167.423 65.4269 170.344C65.5133 170.776 65.5595 171.145 65.5832 171.501C65.607 171.856 65.607 172.187 65.607 172.329" stroke="#F849C1" stroke-width="4" stroke-linecap="round" stroke-linejoin="round"/>
<path d="M63.3412 162.063C63.2848 162.102 62.9918 162.263 62.634 162.34C62.5232 162.364 62.6249 162.003 62.7825 161.957C62.9402 161.911 63.1683 162.1 63.4178 162.452C65.1151 164.846 66.7488 170.581 67.5963 173.502C67.6827 173.934 67.7289 174.303 67.7527 174.658C67.7764 175.014 67.7764 175.345 67.7764 175.487" stroke="#F24822" stroke-width="4" stroke-linecap="round" stroke-linejoin="round"/>
<path d="M66.5235 169.382C66.5133 169.391 66.503 169.4 66.4554 169.263C65.8055 167.391 67.3714 163.997 67.6449 162.725C67.7707 162.139 67.9801 161.589 68.2407 161.076C68.7898 159.996 70.0624 159.009 70.7844 157.857C70.9485 157.595 71.0698 157.32 71.0617 157.311C70.3799 156.602 69.6728 159.215 68.4906 161.414C68.1971 161.96 68.0621 162.378 67.952 162.753C67.1619 165.444 67.5631 170.304 67.4352 171.974C67.3231 173.438 67.1154 175.414 66.8854 177.819C66.3912 182.985 66.9012 184.453 67.0008 185.834C67.1199 187.483 67.1985 189.375 67.4725 190.845C67.7508 192.338 68.5215 193.544 69.0863 194.956C69.7938 196.725 69.6198 198.971 69.758 200.288C69.8914 201.558 70.4287 202.89 70.681 204.161C70.8368 204.945 70.8311 205.727 70.9963 206.354C71.1546 206.956 71.4235 207.511 71.6997 208.039C71.8371 208.302 72.0322 208.52 72.2618 208.722C72.7324 209.136 73.3019 209.449 73.8466 209.738C74.4024 210.032 75.1956 209.924 75.9593 209.944C76.3157 209.953 76.6075 210.003 76.9606 209.787C78.704 208.721 79.061 207.449 79.3943 206.848C80.4234 204.99 80.6597 201.885 81.5296 199.499C82.207 197.642 82.4939 195.147 82.8792 193.109C83.1666 191.589 83.54 188.326 83.9592 185.679C84.4281 182.718 84.6636 180.609 84.8918 178.644C85.1314 176.579 85.7026 173.645 86.1772 171.015C86.2062 168.626 86.0909 166.815 85.8508 166.275C85.726 166.007 85.5953 165.753 85.0877 164.945" stroke="#F849C1" stroke-width="4" stroke-linecap="round" stroke-linejoin="round"/>
<path d="M68.693 172.54C68.6827 172.549 68.6724 172.557 68.6249 172.42C67.9749 170.548 69.5408 167.155 69.8143 165.882C69.9402 165.297 70.1495 164.746 70.4101 164.234C70.9593 163.154 72.2318 162.166 72.9538 161.014C73.1179 160.752 73.2392 160.477 73.2311 160.469C72.5493 159.759 71.8422 162.372 70.6601 164.572C70.3666 165.118 70.2315 165.536 70.1215 165.911C69.3313 168.602 69.7325 173.461 69.6047 175.132C69.4925 176.596 69.2848 178.572 69.0548 180.977C68.5607 186.142 69.0706 187.611 69.1703 188.991C69.2893 190.64 69.3679 192.532 69.6419 194.002C69.9202 195.495 70.6909 196.702 71.2557 198.114C71.9632 199.882 71.7892 202.129 71.9275 203.446C72.0608 204.716 72.5981 206.047 72.8504 207.318C73.0062 208.103 73.0005 208.885 73.1657 209.512C73.324 210.113 73.593 210.668 73.8691 211.197C74.0066 211.46 74.2016 211.678 74.4312 211.88C74.9018 212.294 75.4714 212.607 76.0161 212.896C76.5718 213.19 77.3651 213.082 78.1287 213.102C78.4852 213.111 78.777 213.16 79.13 212.944C80.8734 211.879 81.2304 210.607 81.5638 210.005C82.5928 208.148 82.8291 205.042 83.699 202.657C84.3764 200.8 84.6633 198.305 85.0487 196.266C85.336 194.747 85.7094 191.484 86.1286 188.837C86.5975 185.875 86.8331 183.767 87.0612 181.801C87.3008 179.736 87.872 176.803 88.3466 174.173C88.3757 171.784 88.2603 169.973 88.0202 169.433C87.8954 169.165 87.7647 168.91 87.2572 168.103" stroke="#F24822" stroke-width="4" stroke-linecap="round" stroke-linejoin="round"/>
<path d="M70.3296 157.135C70.3194 157.181 70.3091 157.227 70.4781 157.199C72.5911 156.852 75.3746 155.036 76.6655 154.648C76.9924 154.55 77.3495 154.557 77.6662 154.58C77.983 154.604 78.2572 154.681 78.4831 154.885C79.4993 155.804 79.722 158.187 80.283 159.997C80.7673 161.561 82.0735 163.277 82.4355 164.536C82.6096 165.894 82.7722 167.335 82.9427 168.229C83.0285 168.624 83.1131 168.896 83.2547 169.463" stroke="#F849C1" stroke-width="4" stroke-linecap="round" stroke-linejoin="round"/>
<path d="M72.499 160.292C72.4888 160.338 72.4785 160.385 72.6476 160.357C74.7605 160.009 77.544 158.193 78.835 157.806C79.1618 157.708 79.519 157.714 79.8357 157.738C80.1524 157.762 80.4267 157.838 80.6525 158.042C81.6687 158.961 81.8914 161.344 82.4524 163.155C82.9367 164.718 84.243 166.435 84.605 167.693C84.779 169.052 84.9416 170.492 85.1121 171.387C85.198 171.781 85.2826 172.054 85.4241 172.621" stroke="#F24822" stroke-width="4" stroke-linecap="round" stroke-linejoin="round"/>
<path d="M78.6252 158.446C78.7662 158.693 80.6007 161.367 82.1571 163.873C82.7316 164.798 82.8577 166.008 82.9909 167.499C83.0499 169.539 82.9554 171.235 82.7538 172.144C82.6574 172.544 82.5728 172.818 82.3692 173.274" stroke="#F849C1" stroke-width="4" stroke-linecap="round" stroke-linejoin="round"/>
<path d="M80.7947 161.604C80.9357 161.851 82.7701 164.524 84.3265 167.03C84.9011 167.955 85.0271 169.165 85.1604 170.656C85.2193 172.696 85.1248 174.393 84.9233 175.302C84.8268 175.702 84.7423 175.976 84.5386 176.431" stroke="#F24822" stroke-width="4" stroke-linecap="round" stroke-linejoin="round"/>
<path d="M86.2062 165.517C86.1498 165.649 85.949 166.009 85.7645 166.291C85.1842 167.179 86.7507 163.364 87.628 161.435C88.8618 159.625 89.959 158.31 90.6482 157.476C90.9325 157.096 91.0837 156.804 91.2395 156.217" stroke="#F849C1" stroke-width="4" stroke-linecap="round" stroke-linejoin="round"/>
<path d="M88.3757 168.675C88.3193 168.807 88.1185 169.167 87.9339 169.449C87.3536 170.336 88.9202 166.521 89.7974 164.593C91.0313 162.783 92.1284 161.468 92.8177 160.634C93.1019 160.254 93.2532 159.962 93.409 159.375" stroke="#F24822" stroke-width="4" stroke-linecap="round" stroke-linejoin="round"/>
<path d="M87.2084 162.743C87.1776 162.743 87.1469 162.743 87.0605 162.601C86.9742 162.46 86.8332 162.176 86.8311 161.851C86.8265 161.151 87.2946 160.474 87.7703 159.709C89.1733 157.454 91.6649 155.597 93.2481 154.509C93.5592 154.331 93.8514 154.188 94.0545 154.294C94.2576 154.4 94.3627 154.758 94.471 155.127" stroke="#F849C1" stroke-width="4" stroke-linecap="round" stroke-linejoin="round"/>
<path d="M89.3776 165.9C89.3468 165.9 89.3161 165.9 89.2297 165.759C89.1434 165.617 89.0024 165.334 89.0003 165.008C88.9957 164.309 89.4638 163.631 89.9394 162.867C91.3425 160.611 93.8341 158.755 95.4172 157.666C95.7284 157.489 96.0206 157.346 96.2237 157.452C96.4268 157.557 96.5319 157.915 96.6401 158.284" stroke="#F24822" stroke-width="4" stroke-linecap="round" stroke-linejoin="round"/>
<path d="M96.4982 155.159C96.406 155.195 96.0842 155.364 95.8391 155.575C95.7889 155.618 96.2091 155.597 96.536 155.629C96.8628 155.662 97.1653 155.765 97.4198 155.927C99.5848 158.703 103.178 164.038 104.227 166.36C104.435 166.904 104.558 167.319 104.794 167.946" stroke="#F849C1" stroke-width="4" stroke-linecap="round" stroke-linejoin="round"/>
<path d="M98.6677 158.317C98.5754 158.352 98.2536 158.522 98.0085 158.733C97.9584 158.776 98.3786 158.755 98.7054 158.787C99.0323 158.819 99.3347 158.923 99.5892 159.085C101.754 161.861 105.348 167.196 106.397 169.518C106.605 170.061 106.728 170.476 106.963 171.104" stroke="#F24822" stroke-width="4" stroke-linecap="round" stroke-linejoin="round"/>
<path d="M98.7043 155.699C98.6761 155.699 98.6479 155.699 98.6282 155.86C98.6086 156.021 98.5983 156.344 99.7503 158.592C100.902 160.84 103.217 165.005 104.621 167.442C107.119 171.492 107.759 172.611 108.15 173.176C108.38 173.486 108.672 173.844 109.058 174.359" stroke="#F849C1" stroke-width="4" stroke-linecap="round" stroke-linejoin="round"/>
<path d="M100.873 158.856C100.845 158.856 100.817 158.856 100.797 159.018C100.778 159.179 100.767 159.501 101.92 161.75C103.072 163.998 105.386 168.162 106.79 170.6C109.288 174.649 109.929 175.768 110.319 176.333C110.549 176.644 110.841 177.002 111.227 177.516" stroke="#F24822" stroke-width="4" stroke-linecap="round" stroke-linejoin="round"/>
<path d="M102.308 163.482C102.27 163.456 102.231 163.429 102.113 163.282C101.994 163.136 101.797 162.87 101.822 162.635C101.847 162.399 102.101 162.202 102.346 162.232C102.591 162.261 102.819 162.525 103.074 162.892C103.635 163.702 104.751 165.948 106.872 169.837C109.476 174.615 111.583 177.36 112.139 178.551C113.081 180.751 113.91 182.614 114.438 183.556C114.72 184.025 115.03 184.477 115.583 185.03" stroke="#F849C1" stroke-width="4" stroke-linecap="round" stroke-linejoin="round"/>
<path d="M104.478 166.64C104.439 166.613 104.401 166.586 104.282 166.44C104.164 166.294 103.966 166.028 103.991 165.793C104.017 165.557 104.27 165.359 104.515 165.389C104.76 165.419 104.988 165.683 105.243 166.05C105.804 166.859 106.921 169.105 109.041 172.994C111.646 177.773 113.753 180.518 114.308 181.708C115.25 183.909 116.08 185.772 116.608 186.713C116.889 187.183 117.2 187.635 117.752 188.188" stroke="#F24822" stroke-width="4" stroke-linecap="round" stroke-linejoin="round"/>
<path d="M109.547 172.842C109.378 172.767 108.932 172.615 108.554 172.583C106.786 172.438 111.658 176.008 113.94 180.418C116.807 185.96 117.896 190.178 118.242 190.788C118.962 191.868 120.029 193.065 121.472 194.315C121.779 194.58 121.994 194.797 122.504 195.048" stroke="#F849C1" stroke-width="4" stroke-linecap="round" stroke-linejoin="round"/>
<path d="M111.717 176C111.548 175.925 111.102 175.772 110.723 175.741C108.955 175.596 113.828 179.166 116.109 183.576C118.976 189.118 120.065 193.336 120.411 193.945C121.132 195.026 122.198 196.223 123.641 197.473C123.948 197.738 124.164 197.955 124.673 198.206" stroke="#F24822" stroke-width="4" stroke-linecap="round" stroke-linejoin="round"/>
<path d="M115.094 182.455C115.59 183.12 118.092 187.744 120.795 192.758C121.586 194.625 121.807 195.683 121.889 196.467C121.924 196.902 121.941 197.411 121.96 197.936" stroke="#F849C1" stroke-width="4" stroke-linecap="round" stroke-linejoin="round"/>
<path d="M117.263 185.613C117.759 186.277 120.261 190.902 122.964 195.916C123.755 197.783 123.976 198.841 124.059 199.625C124.093 200.059 124.111 200.569 124.129 201.094" stroke="#F24822" stroke-width="4" stroke-linecap="round" stroke-linejoin="round"/>
<path d="M87.0064 166.116C86.9654 166.116 87.3518 166.154 88.1205 166.291C88.823 166.417 89.4239 166.965 90.1197 167.523C90.9242 168.169 91.7016 169.096 92.601 170.299C95.8091 174.588 97.2777 179.741 97.7863 180.541C98.3615 181.303 99.7881 182.627 101.595 184.176C102.288 184.781 102.524 185.018 103.341 185.775" stroke="#F849C1" stroke-width="4" stroke-linecap="round" stroke-linejoin="round"/>
<path d="M89.1758 169.274C89.1348 169.274 89.5212 169.311 90.29 169.449C90.9924 169.575 91.5933 170.123 92.2891 170.681C93.0936 171.327 93.871 172.254 94.7705 173.457C97.9785 177.746 99.4472 182.899 99.9557 183.699C100.531 184.461 101.958 185.785 103.765 187.334C104.457 187.939 104.693 188.176 105.511 188.932" stroke="#F24822" stroke-width="4" stroke-linecap="round" stroke-linejoin="round"/>
<path d="M88.0084 169.236C88.0084 169.245 88.0084 169.254 87.9981 169.414C87.9879 169.575 87.9674 169.887 88.7309 170.77C90.8768 173.251 93.4221 175.529 95.0027 177.513C98.4806 181.877 101.263 185.023 102.639 187.136C106.206 192.613 106.671 194.101 107.162 194.614C107.407 194.845 107.642 195.014 107.834 194.974C108.026 194.934 108.167 194.679 108.313 194.417" stroke="#F849C1" stroke-width="4" stroke-linecap="round" stroke-linejoin="round"/>
<path d="M90.1776 172.394C90.1776 172.403 90.1776 172.412 90.1673 172.572C90.1571 172.733 90.1366 173.044 90.9001 173.927C93.046 176.408 95.5913 178.687 97.1719 180.671C100.65 185.035 103.432 188.181 104.808 190.293C108.375 195.77 108.84 197.258 109.331 197.772C109.576 198.003 109.812 198.172 110.003 198.132C110.195 198.091 110.336 197.837 110.482 197.574" stroke="#F24822" stroke-width="4" stroke-linecap="round" stroke-linejoin="round"/>
<path d="M99.6206 182.142C99.5437 182.067 99.9475 182.218 100.804 182.683C102.421 183.561 102.944 184.931 106.179 190.2C107.036 191.596 108.379 193.126 110.539 195.79C113.626 200.339 114.519 201.405 115.615 202.275C115.883 202.466 116.129 202.646 116.554 202.945" stroke="#F849C1" stroke-width="4" stroke-linecap="round" stroke-linejoin="round"/>
<path d="M101.79 185.3C101.713 185.225 102.117 185.375 102.973 185.84C104.591 186.719 105.113 188.089 108.348 193.358C109.206 194.754 110.548 196.284 112.708 198.948C115.795 203.497 116.688 204.562 117.784 205.432C118.053 205.624 118.299 205.804 118.723 206.103" stroke="#F24822" stroke-width="4" stroke-linecap="round" stroke-linejoin="round"/>
<path d="M110.977 193.472C110.92 193.547 110.778 193.888 110.697 194.498C110.657 194.805 110.908 195.109 111.094 195.388C112.003 196.75 113.751 198.312 115.294 200.138C117.578 202.84 118.228 203.773 118.866 204.264C119.16 204.49 119.448 204.594 119.758 204.648C120.069 204.701 120.407 204.682 120.682 204.549C120.956 204.416 121.156 204.17 121.32 203.887C121.781 202.689 121.987 201.512 122.218 200.048C122.257 199.576 122.268 198.981 122.278 198.368" stroke="#F849C1" stroke-width="4" stroke-linecap="round" stroke-linejoin="round"/>
<path d="M113.146 196.63C113.09 196.705 112.948 197.046 112.867 197.656C112.826 197.962 113.078 198.266 113.264 198.545C114.173 199.908 115.92 201.47 117.463 203.295C119.748 205.998 120.398 206.931 121.036 207.422C121.33 207.648 121.617 207.752 121.928 207.805C122.238 207.859 122.577 207.839 122.851 207.706C123.125 207.573 123.325 207.328 123.49 207.045C123.95 205.847 124.157 204.669 124.387 203.206C124.427 202.733 124.437 202.138 124.448 201.525" stroke="#F24822" stroke-width="4" stroke-linecap="round" stroke-linejoin="round"/>
<path d="M86.2062 166.721C86.1857 166.721 85.9009 166.578 85.4379 166.221C85.2115 166.046 85.1543 165.723 84.9786 165.667C84.8029 165.611 84.5491 165.791 84.0928 168.749C83.6366 171.708 82.9855 177.44 82.636 182.158C82.2865 186.876 82.2583 190.407 82.1823 192.656C81.695 197.321 80.916 200.099 80.453 202.894C80.3762 204.016 80.3019 205.772 80.2563 207.123" stroke="#F849C1" stroke-width="4" stroke-linecap="round" stroke-linejoin="round"/>
<path d="M88.3756 169.879C88.3551 169.879 88.0703 169.736 87.6073 169.378C87.3809 169.204 87.3238 168.88 87.148 168.824C86.9723 168.768 86.7185 168.948 86.2623 171.907C85.806 174.866 85.155 180.598 84.8055 185.316C84.456 190.034 84.4278 193.564 84.3517 195.813C83.8644 200.479 83.0854 203.256 82.6224 206.052C82.5456 207.173 82.4713 208.93 82.4258 210.28" stroke="#F24822" stroke-width="4" stroke-linecap="round" stroke-linejoin="round"/>
<path d="M69.4443 168.151C69.3828 168.016 69.1152 167.72 68.6926 167.236C68.4831 166.995 68.375 166.694 68.3077 166.369C68.2403 166.044 68.2403 165.686 68.1839 165.648C68.1275 165.61 68.0147 165.902 67.9566 166.444C67.8985 166.986 67.8985 167.77 68.6957 173.235C69.4929 178.701 71.0872 188.823 71.9932 194.369C73.2309 201.945 74.1215 203.477 74.3235 204.112C74.3921 204.475 74.3921 204.921 74.378 205.3C74.3639 205.68 74.3357 205.981 74.2213 206.61" stroke="#F849C1" stroke-width="4" stroke-linecap="round" stroke-linejoin="round"/>
<path d="M71.6135 171.309C71.5519 171.174 71.2844 170.878 70.8618 170.393C70.6522 170.153 70.5442 169.852 70.4768 169.527C70.4095 169.202 70.4095 168.844 70.3531 168.806C70.2967 168.767 70.1839 169.059 70.1258 169.602C70.0677 170.144 70.0677 170.928 70.8649 176.393C71.6621 181.858 73.2564 191.981 74.1623 197.526C75.4001 205.103 76.2907 206.634 76.4927 207.27C76.5613 207.633 76.5613 208.078 76.5472 208.458C76.5331 208.838 76.5049 209.139 76.3904 209.768" stroke="#F24822" stroke-width="4" stroke-linecap="round" stroke-linejoin="round"/>
<path d="M73.7861 203.344C73.7861 203.608 73.7399 204.179 73.8161 204.894C73.8486 205.199 74.2307 205.289 74.5235 205.276C75.7768 205.223 76.6383 204.358 77.3422 204.206C77.6873 204.158 78.0077 204.167 78.2714 204.298C78.5352 204.43 78.7325 204.685 79.0213 204.521" stroke="#F849C1" stroke-width="4" stroke-linecap="round" stroke-linejoin="round"/>
<path d="M75.9555 206.502C75.9555 206.766 75.9094 207.336 75.9856 208.052C76.018 208.356 76.4001 208.447 76.6929 208.434C77.9462 208.381 78.8077 207.516 79.5116 207.364C79.8567 207.315 80.1771 207.324 80.4408 207.456C80.7046 207.588 80.902 207.843 81.1908 207.679" stroke="#F24822" stroke-width="4" stroke-linecap="round" stroke-linejoin="round"/>
<path d="M31.4768 206.691C31.4588 206.691 31.4409 206.691 31.3278 206.8C31.2148 206.908 31.0071 207.126 31.1181 207.12C31.229 207.114 31.6647 206.879 33.8283 204.614C35.9919 202.35 39.8701 198.062 42.3025 195.452C45.5399 191.977 46.7246 190.966 47.6521 189.803C49.6027 187.356 51.4782 184.915 53.194 183.27C57.6332 179.012 60.7644 175.77 62.4708 174.379C63.1246 173.846 63.5081 173.253 63.8181 172.687C64.0974 172.094 64.3833 171.34 64.7406 170.432C64.9467 169.968 65.203 169.496 65.4671 169.01" stroke="#F849C1" stroke-width="4" stroke-linecap="round" stroke-linejoin="round"/>
<path d="M33.6462 209.849C33.6282 209.849 33.6103 209.849 33.4973 209.957C33.3842 210.066 33.1766 210.283 33.2875 210.278C33.3984 210.272 33.8342 210.037 35.9977 207.772C38.1613 205.507 42.0395 201.22 44.4719 198.609C47.7093 195.135 48.894 194.124 49.8215 192.961C51.7721 190.514 53.6476 188.073 55.3635 186.427C59.8026 182.17 62.9338 178.927 64.6402 177.536C65.2941 177.004 65.6775 176.411 65.9876 175.845C66.2669 175.252 66.5528 174.498 66.9101 173.59C67.1161 173.126 67.3725 172.654 67.6366 172.167" stroke="#F24822" stroke-width="4" stroke-linecap="round" stroke-linejoin="round"/>
<path d="M50.9888 165.944C50.9888 165.887 50.9042 165.547 50.8286 164.931C50.7913 164.626 50.9427 164.33 51.0622 164.353C51.5025 164.439 50.1834 168.429 47.8958 174.255C46.2958 178.33 44.914 180.477 43.6512 182.161C40.2481 186.7 38.0849 190.053 36.5032 192.561C35.268 194.521 33.1603 196.514 31.7385 199.048C31.2107 200.188 30.4007 202.04 29.8976 203.258C29.3944 204.476 29.2227 205.003 28.937 206.038" stroke="#F849C1" stroke-width="4" stroke-linecap="round" stroke-linejoin="round"/>
<path d="M53.158 169.101C53.158 169.044 53.0734 168.705 52.9978 168.088C52.9605 167.784 53.1119 167.488 53.2314 167.511C53.6717 167.596 52.3526 171.586 50.065 177.413C48.465 181.488 47.0832 183.634 45.8204 185.319C42.4173 189.858 40.2541 193.211 38.6724 195.719C37.4372 197.678 35.3295 199.672 33.9077 202.205C33.3799 203.345 32.5699 205.198 32.0668 206.416C31.5636 207.634 31.3919 208.161 31.1062 209.196" stroke="#F24822" stroke-width="4" stroke-linecap="round" stroke-linejoin="round"/>
<path d="M51.7886 164.459C51.8296 164.402 51.9814 163.976 52.2692 163.237C52.7937 161.89 54.1321 161.029 54.9955 160.356C55.3682 160.066 55.6538 159.941 55.9271 159.948C56.4898 159.964 57.144 160.299 57.8089 160.515C58.1611 161.091 58.3306 162.217 58.777 163.602C58.9404 163.91 59.1403 164.164 59.3463 164.427" stroke="#F849C1" stroke-width="4" stroke-linecap="round" stroke-linejoin="round"/>
<path d="M53.958 167.617C53.999 167.56 54.1509 167.133 54.4387 166.394C54.9631 165.048 56.3015 164.186 57.1649 163.514C57.5376 163.224 57.8232 163.098 58.0965 163.106C58.6593 163.122 59.3134 163.457 59.9784 163.673C60.3306 164.248 60.5001 165.375 60.9465 166.76C61.1098 167.067 61.3097 167.322 61.5157 167.585" stroke="#F24822" stroke-width="4" stroke-linecap="round" stroke-linejoin="round"/>
<path d="M51.1908 152.725C51.1549 152.668 50.957 152.392 50.7274 152.171C50.6773 152.196 50.7618 152.499 51.5513 154.124C52.3408 155.748 53.8326 158.686 55.3697 161.712" stroke="#F849C1" stroke-width="4" stroke-linecap="round" stroke-linejoin="round"/>
<path d="M53.36 155.882C53.3241 155.825 53.1262 155.55 52.8966 155.329C52.8464 155.354 52.931 155.657 53.7205 157.281C54.51 158.906 56.0018 161.843 57.5388 164.869" stroke="#F24822" stroke-width="4" stroke-linecap="round" stroke-linejoin="round"/>
</svg>
