<svg width="718" height="363" viewBox="0 0 718 363" fill="none" xmlns="http://www.w3.org/2000/svg">
<path d="M360.752 219.272L357.686 259.369L366.778 225.946L367.635 264.78L381.969 183.752L375.664 268.388L381.629 240.029L386.983 261.39" stroke="#FF00F2" stroke-width="1.72589" stroke-linecap="round"/>
<path d="M432.591 213.93L429.524 254.026L438.617 220.603L439.474 259.437L448.428 210.614L447.503 263.046L453.468 234.686L458.822 256.048" stroke="#FF00F2" stroke-width="1.72589" stroke-linecap="round"/>
<path d="M374.158 275.865L371.243 327.199L383.394 283.388L386.263 332.508L397.576 269.186L398.353 335.83L406.06 298.929L414.9 325.186" stroke="#FF00F2" stroke-width="1.72589" stroke-linecap="round"/>
<path d="M419.16 330.907L419.239 279.49L409.523 323.905L403.949 275.018L396.146 338.868L391.694 272.368L386.034 309.638L375.76 283.909" stroke="#FF00F2" stroke-width="1.72589" stroke-linecap="round"/>
<path d="M454.714 332.28L454.793 280.863L445.077 325.278L439.503 276.391L431.7 340.241L427.248 273.74L421.588 311.01L411.313 285.282" stroke="#FF00F2" stroke-width="1.72589" stroke-linecap="round"/>
<path d="M417.975 282.294L421.491 333.59L428.078 288.605L437.056 336.982L440.376 272.743L449.466 338.77L452.506 301.195L464.555 326.142" stroke="#FF00F2" stroke-width="1.72589" stroke-linecap="round"/>
<path d="M294.459 394.275L254.426 313.609L291.897 349.406C286.856 329.889 275.96 288.866 272.707 280.907C269.454 272.948 259.178 253.837 254.447 245.276L318.589 306.347" stroke="#DA0808" stroke-width="1.72589"/>
<path d="M290.385 394.509L254.648 311.85L290.186 349.567C286.178 329.813 277.453 288.274 274.623 280.155C271.792 272.036 262.535 252.411 258.26 243.613L319.104 307.971" stroke="#FF00F2" stroke-width="0.862947"/>
<path d="M339.52 318.937C324.867 303.343 294.313 269.771 289.319 260.237C283.077 248.319 258.85 212.615 255.53 210.444C252.21 208.274 241.003 185.273 238.395 182.292C235.787 179.312 218.057 146.215 215.886 140.057C214.15 135.13 213.424 129.698 213.278 127.598C223.759 134.147 245.701 147.921 249.618 150.627C254.515 154.011 281.706 161.763 285.85 161.556C289.995 161.35 322.249 172.23 325.515 173.089C328.128 173.777 329.982 172.668 330.583 172.028C329.697 169.201 327.256 162.454 324.576 158.077C321.227 152.607 310.509 118.262 309.59 105.45C308.671 92.638 306.189 56.5689 306.852 50.2586C307.514 43.9482 345.331 108.767 347.015 112.603C348.7 116.438 358.026 132.559 360.246 134.739C362.022 136.483 369.94 143.143 373.678 146.254C373.206 111.013 372.187 39.7535 371.888 36.642C371.515 32.7527 395.447 73.3678 397.52 78.0034C399.178 81.7118 414.945 111.752 422.622 126.309L440.862 150.262C447.839 134.107 462.415 100.344 464.901 94.5336C468.009 87.2705 497.147 43.2588 498.384 39.6935C499.621 36.1282 493.226 101.387 492.333 105.542C491.439 109.696 481.232 146.218 481.895 149.385C482.426 151.919 483.512 161.317 483.988 165.699C492.487 154.001 509.89 129.814 511.52 126.652C513.151 123.489 520.966 115.27 524.67 111.555C522.709 127.101 518.633 159.15 518.024 162.981C517.416 166.811 504.453 211.154 498.047 232.847L528.737 201.515C527.294 213.572 524.136 238.494 523.048 241.719C521.96 244.944 509.043 279.403 502.721 296.229" stroke="#FF00F2" stroke-width="4.31473" stroke-linecap="round"/>
<path d="M332.518 316.682C318.664 300.374 289.829 265.315 285.319 255.543C279.681 243.328 257.272 206.455 254.065 204.121C250.858 201.787 240.816 178.254 238.361 175.147C235.905 172.039 219.855 138.096 217.995 131.837C216.507 126.83 216.054 121.369 216.014 119.264C226.154 126.329 247.379 141.184 251.156 144.083C255.876 147.707 282.645 156.811 286.795 156.813C290.945 156.814 322.614 169.295 325.832 170.317C328.407 171.134 330.315 170.12 330.947 169.511C330.204 166.643 328.103 159.781 325.646 155.276C322.575 149.645 313.59 114.807 313.314 101.965C313.037 89.1229 312.364 52.9748 313.342 46.7056C314.319 40.4364 348.843 107.067 350.334 110.982C351.824 114.897 360.332 131.465 362.44 133.753C364.126 135.584 371.701 142.632 375.278 145.926C376.571 110.706 379.121 39.4846 378.979 36.3621C378.8 32.459 400.669 74.2213 402.507 78.9548C403.978 82.7416 418.221 113.534 425.159 128.456L442.177 153.293C449.954 137.507 466.202 104.516 468.976 98.8377C472.444 91.7393 503.748 49.2415 505.163 45.7426C506.577 42.2438 496.923 107.101 495.823 111.205C494.722 115.31 482.7 151.275 483.203 154.471C483.606 157.029 484.22 166.469 484.477 170.869C493.55 159.611 512.143 136.327 513.929 133.249C515.716 130.172 523.933 122.355 527.819 118.83C525.081 134.258 519.406 166.064 518.607 169.859C517.807 173.654 502.64 217.292 495.156 238.637L527.377 208.88C525.332 220.851 520.93 245.583 519.682 248.75C518.434 251.917 503.808 285.685 496.651 302.174" stroke="#DA0808" stroke-width="1.72589" stroke-linecap="round"/>
<path d="M386.264 228.478C381.259 221.415 369.404 223.045 364.102 224.743C358.097 226 349.709 238.115 350.324 245.261C350.938 252.406 361.717 260.729 364.605 261.887C367.493 263.046 376.494 261.823 380.84 260.472C385.186 259.121 390.552 248.961 391.289 246.162C392.025 243.362 392.521 237.307 386.264 228.478Z" stroke="#FF00F2" stroke-width="1.72589"/>
<path d="M387.4 225.437C381.927 217.715 368.963 219.497 363.165 221.353C356.599 222.728 347.426 235.975 348.097 243.787C348.769 251.599 360.556 260.698 363.714 261.965C366.871 263.231 376.714 261.894 381.467 260.417C386.219 258.94 392.088 247.831 392.894 244.77C393.699 241.71 394.241 235.09 387.4 225.437Z" stroke="#FF00F2" stroke-width="0.862947"/>
<path d="M447.805 221.324C440.989 219.93 433.274 222.456 430.269 223.894C425.206 230.244 426.582 242.079 430.84 249.783C435.098 257.488 441.163 259.084 446.83 258.779C452.497 258.474 458.37 252.836 461.272 250.906C464.174 248.976 466.982 241.335 466.078 234.911C465.175 228.488 456.325 223.067 447.805 221.324Z" stroke="#FF00F2" stroke-width="1.72589"/>
<path d="M449.003 218.065C441.663 216.562 433.356 219.283 430.12 220.831C424.669 227.672 426.151 240.423 430.738 248.725C435.324 257.026 441.855 258.746 447.958 258.418C454.06 258.09 460.384 252.017 463.509 249.938C466.634 247.858 469.657 239.626 468.683 232.706C467.709 225.785 458.179 219.944 449.003 218.065Z" stroke="#FF00F2" stroke-width="0.862947"/>
<path d="M392.356 275.474C382.397 278.44 371.268 287.75 366.949 292.034C355.161 331.532 376.758 333.623 381.654 337.006C386.551 340.389 404.603 343.442 418.171 341.924C431.739 340.406 455.855 335.577 461.193 331.594C466.531 327.611 465.322 315.521 464.128 309.82C462.935 304.118 458.534 294.68 443.069 282.93C427.605 271.18 404.804 271.765 392.356 275.474Z" stroke="#FF00F2" stroke-width="4.31473"/>
<path d="M399.732 271.853C389.368 272.607 376.497 279.303 371.356 282.557C351.343 318.592 371.985 325.282 376.038 329.639C380.091 333.997 397.063 340.864 410.64 342.302C424.217 343.739 448.807 344.215 454.877 341.474C460.947 338.733 462.369 326.666 462.43 320.842C462.492 315.017 460.226 304.853 447.652 290.049C435.079 275.246 412.687 270.911 399.732 271.853Z" stroke="#FF00F2" stroke-width="1.72589"/>
<path d="M379.621 327.292L381.81 307.217L398.832 327.458L410.119 279.249L427.986 318.268L437.737 292.202L456.051 319.666" stroke="#FF00F2" stroke-width="0.862947" stroke-linecap="round"/>
<path d="M377.514 323.946L381.603 304.17L396.622 325.939L412.444 279.022L426.518 319.565L438.705 294.544L454.323 323.626" stroke="#FF00F2" stroke-width="0.862947" stroke-linecap="round"/>
<path d="M134.934 322.533C141.159 315.919 146.494 307.993 150.433 299.818C152.289 295.968 153.658 291.951 155.377 288.06C155.736 287.247 156.221 294.916 156.312 295.977C156.895 302.722 157.642 309.445 158.985 316.086C159.353 317.906 161.774 323.898 160.722 325.739C160.447 326.22 154.923 322.673 154.575 322.499C148.165 319.294 141.321 316.722 134.6 314.249C134.179 314.094 129.237 312.931 130.391 311.576C132.966 308.554 141.121 308.095 144.554 307.367C153.008 305.577 162.11 304.775 170.208 301.622C171.703 301.04 174.706 298.844 171.678 301.321C157.671 312.781 138.301 316.546 125.581 329.881C125.368 330.105 120.09 336.092 120.003 335.961C119.938 335.864 121.008 334.247 121.105 333.957" stroke="#B752AF" stroke-width="6" stroke-linecap="round"/>
<path d="M151.168 299.083C149.875 304.255 145.331 308.81 141.849 312.578C136.752 318.094 131.262 323.22 126.182 328.746C125.098 329.926 123.965 331.096 123.009 332.387C122.586 332.958 121.773 334.834 121.773 334.124C121.773 332.557 124.868 330.665 125.915 329.748" stroke="#B752AF" stroke-width="6" stroke-linecap="round"/>
<path d="M148.763 311.71C148.864 310.907 150.604 309.869 151.168 309.305" stroke="#B752AF" stroke-width="6" stroke-linecap="round"/>
<path d="M180.767 66C172.625 78.3886 162.3 89.5063 152.55 100.62C135.594 119.946 117.111 136.698 97.0925 152.713C87.9787 160.004 77.5637 173.961 65.5113 176.372" stroke="#8F57FE" stroke-width="6" stroke-linecap="round"/>
<path d="M180.767 71.8604C176.25 73.9133 172.5 83.6828 169.697 87.3797C156.124 105.278 139.187 119.867 122.271 134.48C106.293 148.282 91.5316 163.712 75.1702 177.023C73.2722 178.567 67.0202 184.451 64.5346 183.209" stroke="#8F57FE" stroke-width="6" stroke-linecap="round"/>
<path d="M91.8833 105.07C94.5108 102.968 97.0424 106.322 98.829 108.108C118.585 127.864 135.711 149.911 154.34 170.674C161.291 178.421 169.241 185.342 176.046 193.193C177.046 194.347 174.382 190.95 173.929 190.046" stroke="#8F57FE" stroke-width="6" stroke-linecap="round"/>
<path d="M93.8367 100.186C109.856 116.205 121.704 135.967 136.976 152.767C149.836 166.913 192.332 205.518 178.813 191.999" stroke="#8F57FE" stroke-width="6" stroke-linecap="round"/>
<path d="M63.5578 255.487C53.5191 266.084 43.8123 275.772 32.3022 284.79C25.5892 290.049 19.7694 296.249 11.7906 299.441" stroke="#8F57FE" stroke-width="6" stroke-linecap="round"/>
<path d="M20.5813 254.511C26.8501 265.481 39.16 272.742 47.1703 282.51C48.6974 284.373 59.8331 298.282 58.6741 299.441" stroke="#8F57FE" stroke-width="6" stroke-linecap="round"/>
<path d="M65.5113 254.511C56.8669 268.712 40.9382 280.423 27.4185 289.673C19.2671 295.251 11.1187 300.865 3 306.278" stroke="#8F57FE" stroke-width="6" stroke-linecap="round"/>
<path d="M28.3952 252.557C29.3851 262.456 41.5746 273.244 47.7129 279.906C52.5326 285.137 57.453 290.287 60.4105 296.836C61.1044 298.372 61.1797 299.717 62.5811 300.417" stroke="#8F57FE" stroke-width="6" stroke-linecap="round"/>
<path d="M614.93 126.265C612.438 139.557 602.634 153.997 591.488 161.427" stroke="#57FEB3" stroke-width="6" stroke-linecap="round"/>
<path d="M591.488 133.102C596.817 133.102 601.453 139.168 605.597 141.892C608.801 143.999 621.242 152.411 624.697 150.683" stroke="#57FEB3" stroke-width="6" stroke-linecap="round"/>
<path d="M666.697 114.544C663.402 117.839 647.574 130.1 653.837 135.435C659.875 140.579 672.3 137.48 678.201 133.644C692.406 124.411 668.008 108.913 658.341 114.001C653.662 116.464 653.805 126.646 654.054 130.877C654.481 138.133 668.806 130.915 671.906 128.978C679.615 124.16 674.499 118.559 667.186 118.559C662.202 118.559 647.222 124.78 657.201 130.063C662.703 132.976 671.351 134.121 676.465 129.955C679.205 127.722 682.614 122.526 677.713 120.893C670.997 118.654 662.602 120.574 656.604 124.094C652.869 126.287 659.634 126.854 660.891 126.644C663.511 126.208 672.052 123.046 670.387 118.885C669.192 115.897 660.751 119.307 659.317 120.079C657.121 121.261 643.464 131.127 648.356 134.621C651.73 137.031 664.353 132.483 668.651 132.125" stroke="#57FEB3" stroke-width="6" stroke-linecap="round"/>
<path d="M571.953 188.776C598.028 194.84 627.364 188.99 650.852 176.621C663.118 170.161 672.921 159.327 683.844 150.9C687.079 148.405 688.626 140.695 692.092 138.962" stroke="#57FEB3" stroke-width="6" stroke-linecap="round"/>
<path d="M570 192.683C576.364 200.204 581.587 208.709 588.992 215.365C597.547 223.055 609.845 232.729 621.767 232.729C633.92 232.729 644.248 232.389 654.542 224.915C663.159 218.66 668.202 212.965 673.968 203.97C682.755 190.262 691.341 175.763 694.263 159.691C695.359 153.665 694.69 150.018 692.092 144.823" stroke="#57FEB3" stroke-width="6" stroke-linecap="round"/>
<path d="M604.186 196.59C605.697 206.414 612.847 215.371 616.775 224.318C617.127 225.121 618.743 230.713 618.891 229.528C619.468 224.912 621.491 220.472 622.744 216.016C624.607 209.394 626.052 202.624 628.062 196.047C629.873 190.121 632.349 202.898 632.566 203.807C634.246 210.863 634.823 221.146 638.86 227.357C640.51 229.896 648.236 216.002 648.682 215.202C654.023 205.629 657.525 195.201 661.379 184.978C662.077 183.127 663.132 178.094 664.581 176.404C666.017 174.728 664.716 180.817 664.744 183.024C664.827 189.804 663.974 200.578 667.674 206.683C669.255 209.291 672.486 199.322 672.558 199.086C674.845 191.607 677.365 184.293 678.418 176.512C679.446 168.915 678.09 171.202 678.635 176.838C679.985 190.783 694.143 184.463 703.813 182.916" stroke="#57FEB3" stroke-width="6" stroke-linecap="round"/>
<path d="M694.122 273C679.909 293.529 660.746 309.74 643.223 327.263C638.693 331.794 638.595 333.263 641.378 327.697" stroke="#57FEB3" stroke-width="6" stroke-linecap="round"/>
<path d="M694.122 273.977C691.504 277.717 694.107 288.384 693.579 293.132C692.546 302.43 692.399 312.085 691.083 321.294C690.688 324.057 688.364 319.241 688.044 318.798C684.751 314.238 679.766 310.997 675.075 308.054C666.501 302.674 657.325 298.531 647.998 294.651C641.03 291.752 642.689 292.516 636.386 289.93C634.978 289.353 630.941 288.731 632.262 287.977C633.66 287.177 643.668 289.124 644.525 289.17C661.554 290.097 678.709 289.632 695.75 289.388C701.755 289.301 719.707 288.734 713.765 289.605C707.112 290.58 700.501 291.286 694.013 293.186C677.494 298.023 664.568 309.148 649.083 316.085C645.149 317.848 642.355 317.332 642.355 321.837" stroke="#57FEB3" stroke-width="6" stroke-linecap="round"/>
<path d="M575.508 270.634C575.75 269.92 579.219 262.411 577.027 263.037C572.358 264.371 569.027 269.943 566.717 273.781C564.675 277.175 560.535 284.376 564.98 287.781C570.055 291.668 579.229 285.063 583.104 282.355C586.744 279.812 595.205 274.278 594.391 268.68C593.771 264.416 589.065 264.16 585.818 264.773C581.495 265.59 563.71 269.273 564.763 274.541" stroke="#57FEB3" stroke-width="6" stroke-linecap="round"/>
</svg>
