<svg width="184" height="189" viewBox="0 0 184 189" fill="none" xmlns="http://www.w3.org/2000/svg">
<circle cx="93" cy="94" r="88" fill="white" stroke="#757575" stroke-width="4" stroke-linecap="round"/>
<path d="M18.9847 49.8042C19.3845 49.1456 28.7347 38.8942 37.1532 29.647C40.5348 25.9326 45.6279 23.9618 49.3298 22.338C50.7808 21.7015 43.9663 25.499 39.0854 29.6482C36.2523 32.0565 33.2687 36.5522 29.6741 41.4828C22.7769 50.9434 14.1146 57.2576 13.5408 57.6754C11.2876 59.3159 17.6793 49.5092 22.6034 43.1437C26.6938 37.8559 35.4855 31.4482 41.8564 26.7542C43.6957 25.399 47.2274 24.0105 48.5452 23.2463C49.8631 22.4822 49.0417 22.6724 48.0297 23.204C43.0419 25.824 39.5615 30.3104 30.4841 42.0085C27.74 45.5448 26.0474 47.0666 25.0619 47.7229C21.2536 50.259 36.3225 33.7701 43.0538 27.3149C50.167 20.4935 60.1949 18.2029 61.8078 17.1981C64.1386 15.7461 42.1087 29.547 35.5258 33.837C34.693 34.3797 34.2689 34.983 34.2392 34.92C33.8853 34.1695 35.7956 32.7974 37.3085 31.2931C38.9989 29.6123 41.4992 27.9639 46.5982 24.9122C63.7188 14.6659 69.2334 12.3521 74.7071 10.3504C75.9222 9.90609 76.6901 9.7642 74.6609 10.8033C67.8786 14.2762 61.3685 17.3313 58.0421 19.3908C49.649 24.5873 44.9808 26.9368 44.2885 27.0896C43.1799 27.3343 50.1789 23.503 57.8352 19.5849C63.777 16.5441 72.4586 13.6454 81.9748 10.6455C88.7323 8.5153 101.605 8.79055 109.349 8.57978C109.637 8.57193 108.952 9.25391 108.283 9.61343C106.999 10.3037 105.295 10.5937 103.209 10.9711C102.068 11.1775 100.721 11.1583 103.209 11.1811C112.051 11.2621 119.394 11.3455 121.141 11.748C125.073 12.654 127.145 13.4773 128.569 13.902C130.005 14.33 131.382 16.2596 133.469 18.4252C134.517 19.5127 135.911 20.3476 137.293 21.2329C139.902 22.9037 142.894 23.2629 145.648 24.5674C148.517 26.5764 150.777 28.8418 152.898 31.1033C153.482 31.676 154.118 32.2379 154.832 33.447" stroke="#66D575" stroke-width="4" stroke-linecap="round" stroke-linejoin="round"/>
<path d="M79.7987 14.4083C79.7096 14.4083 80.1539 13.749 81.3201 12.5975C84.0512 9.90089 91.111 9.817 96.8225 8.89805C99.4006 8.48326 102.204 8.50896 104.772 8.61294C108.291 8.7554 110.709 10.3284 111.986 11.0136C112.275 11.1682 111.303 11.4643 110.176 11.5486C99.2512 12.3661 82.4547 11.4857 78.1932 12.2179C73.0093 13.1085 66.9965 15.08 63.549 16.5568C60.4425 17.8876 57.6325 19.2825 48.7722 21.9529C45.3044 22.9981 43.2057 23.5672 41.7876 24.16C40.4279 24.7283 39.1469 25.6298 37.8254 26.6837C35.1723 28.7995 33.7263 31.4543 31.8427 34.5046C29.4007 38.4589 26.9685 40.908 22.7004 46.2074C20.9226 48.4147 19.6315 49.7933 18.9989 51.117C17.6737 53.8901 16.8107 57.1046 15.9264 60.4412C14.9685 64.0552 14.2234 67.2948 13.2486 71.2012C12.4602 74.3604 11.5535 77.9069 10.522 83.8007C9.67434 88.6439 8.92302 92.2404 8.62136 95.4828C8.47609 97.0444 8.52133 99.5822 8.63554 101.865C8.65918 102.337 9.53579 94.6891 10.2602 83.5297C10.8578 74.3228 12.7555 69.3864 13.7134 66.4048C14.8371 62.9067 16.6317 59.5295 17.7169 56.602C18.8603 53.5179 20.1188 51.5627 20.3703 50.6524C20.4518 50.3573 19.4312 50.5606 18.6587 51.3352C14.2963 55.7091 12.837 64.5728 11.4056 69.9625C10.4571 73.5338 10.5043 77.1274 9.98283 80.2454C9.48086 83.2466 9.37102 86.2981 9.05605 90.0705C8.95625 91.2659 8.94 92.7236 9.24494 90.1905C10.3385 81.1065 11.5881 70.902 12.7862 65.0319C14.1209 58.4926 15.2166 54.2662 16.2246 52.2222C17.6138 49.4048 13.5358 58.4971 10.539 72.1432C9.27967 77.8775 9.58325 81.7972 9.33591 85.995C9.02753 91.2285 8.35578 94.2306 8.36244 103.532C8.3678 111.017 10.3237 116.497 11.7968 120.39C12.1015 121.195 11.8896 111.871 11.1626 98.8903C10.5495 87.9431 11.5005 78.8894 12.2875 72.2501C13.0179 66.0879 14.4306 62.5191 15.8956 59.1145C16.5507 57.5921 17.0916 56.1618 17.4867 54.7776C17.6848 54.0833 17.748 53.3714 17.4693 53.2789C17.1906 53.1864 16.5348 53.7261 15.9741 54.3781C13.6557 57.0738 11.3073 65.2333 8.83331 73.452C7.86157 76.6801 7.60854 88.6714 7.58519 104.705C7.57684 110.442 7.79742 111.309 7.93045 111.369C15.883 114.932 8.08895 86.9142 8.38685 84.3265C8.55498 82.866 8.79298 81.1105 8.94608 83.5129C9.51971 92.5145 9.47695 102.04 10.0344 107.425C10.5849 112.743 11.3554 116.133 12.0936 119.332C15.6196 134.611 19.8499 145.168 22.5796 149.256C26.1609 154.619 30.5679 159.551 33.543 163.691C34.0503 164.397 34.6721 164.888 35.2536 165.376C35.8351 165.864 36.4209 166.285 36.6876 166.139C36.9544 165.992 36.8843 165.267 36.6604 164.225C35.2571 157.695 31.6711 150.347 29.9721 147.405C28.4271 144.729 26.3289 143.295 25.0495 142.41C24.3977 141.959 23.6492 141.644 23.4599 141.78C21.3093 143.329 31.3023 152.112 36.1706 158.466C37.6127 160.348 38.8257 161.912 40.1589 163.043C44.1431 166.421 50.5852 167.899 53.8554 169.138C56.9697 170.318 59.2142 172.276 62.1105 174.108C65.3793 176.177 69.5375 177.313 72.6551 178.263C74.0833 178.698 75.9162 178.758 77.2664 178.563C77.6148 178.513 76.9803 177.873 76.3733 177.444C73.9527 175.73 70.4497 174.382 66.497 173.311C64.6994 172.824 62.7148 172.624 60.7414 172.143C56.9132 171.21 53.5561 168.392 49.3964 167.423C45.3926 166.489 42.0865 166.608 40.6655 166.074C39.9236 165.796 39.2509 165.24 38.6545 164.681C36.3635 162.537 34.3935 159.937 32.2601 157.341C31.0816 155.907 30.097 154.504 29.4998 154.059C27.6481 152.677 36.3487 162.335 40.8596 167.05C43.1553 169.45 46.9445 170.297 50.0107 171.273C53.172 172.279 57.4264 173.136 60.8032 174.096C63.9673 174.996 66.7225 177.831 69.9367 178.955C73.467 180.19 78.0322 180.233 81.8171 180.357C82.8034 180.39 83.9557 180.42 84.925 180.257C88.4419 179.664 92.0032 177.551 95.6676 177.117C99.0766 176.712 101.958 175.5 104.31 174.829C104.536 174.764 104.04 175.687 103.426 176.355C100.784 179.224 95.1411 181.285 89.4607 183.344C88.32 183.758 87.3298 183.832 86.4589 183.903C85.588 183.974 84.8367 183.947 84.2172 183.546C83.5978 183.145 83.133 182.371 83.4571 182.22C87.0977 180.522 92.2636 184.114 102.612 184.19C107.785 184.228 111.326 183.926 113.428 183.547C117.322 182.847 121.163 180.168 124.353 178.567C125.071 178.206 125.768 177.801 126.399 177.348C127.031 176.895 127.572 176.399 127.497 176.086C127.423 175.774 126.716 175.659 125.989 175.763C122.692 176.237 119.266 178.803 115.598 180.321C110.666 182.361 107.005 183.04 103.991 183.367C100.669 183.727 97.8903 184.99 97.221 185.429C97.0312 185.554 97.9588 185.89 99.2718 186.022C102.451 186.342 105.124 186.084 106.787 185.744C111.994 184.679 118.504 181.03 126.14 176.151C133.771 171.276 136.495 169.712 139.852 167.651C140.309 167.37 139.342 166.915 138.496 166.889C137.651 166.863 136.734 167.076 135.711 167.49C131.173 169.33 127.976 172.356 125.3 174.417C124.635 174.929 124.013 175.48 123.444 176.017C122.874 176.554 122.384 177.071 122.551 177.489C122.719 177.906 123.559 178.207 124.613 178.034C135.836 176.198 147.351 161.997 148.821 160.506C149.515 159.802 149.948 159.063 149.815 158.782C146.238 151.235 131.453 173.164 131.118 174.02C127.738 182.631 151.506 157.834 153.952 154.928C155.241 153.397 156.043 151.598 156.833 150.037C157.225 149.262 157.508 148.477 157.325 148.313C157.141 148.148 156.46 148.617 155.781 149.445C151.986 154.073 149.404 160.38 147.898 163.102C147.447 163.919 148.386 163.904 149.301 163.363C153.392 160.945 155.237 157.261 158.102 152.636C162.908 144.88 165.554 140.213 168.077 137.117C171.268 133.204 160.124 148.783 159.139 150.482C158.674 151.284 158.338 151.996 159.303 150.823C162.704 146.693 165.77 142.053 167.476 139.143C169.327 135.986 171.787 129.218 174.398 122.099C175.205 119.899 175.252 120.679 174.561 122.965C172.703 129.107 170.46 134.555 169.699 136.67C169.52 137.167 170.058 136.577 170.521 135.899C172.468 133.047 174.632 127.853 176.408 122.292C177.83 117.836 177.367 111.482 177.76 107.595C177.837 106.832 178.268 106.201 178.425 106.368C183.25 111.487 175.825 123.829 175.709 124.616C175.61 125.286 176.385 121.534 177.344 117.296C178.667 111.445 179.733 101.303 180.772 91.7623C180.976 89.891 180.375 97.6373 179.646 106.935C179.44 109.552 179.33 107.883 179.329 100.576C179.327 80.3658 179.171 67.8252 178.74 71.6616C178.396 74.7312 178.501 80.1393 178.465 82.097C178.426 84.1988 177.491 72.5589 175.987 65.4303C175.458 62.9217 174.228 60.782 173.106 58.7333C171.974 56.6665 170.365 55.0184 168.876 53.5978C166.299 51.1383 164.132 50.2544 162.998 49.4176C162.436 49.0029 162.24 48.2269 161.991 47.5131C161.741 46.7993 161.531 46.0737 161.703 45.9919C161.875 45.9101 162.435 46.4941 163.065 47.4764C166.088 52.1954 167.158 55.5717 167.748 56.9223C168.048 57.6074 168.288 58.3172 168.008 58.5159C167.729 58.7145 166.907 58.3871 166.112 57.7959C161.003 53.9997 156.805 44.5036 153.518 37.4865C152.548 35.4156 151.84 33.9857 151.492 33.3515C149.848 30.349 158.641 44.3781 161.278 48.9318C162.85 51.6451 155.23 37.4102 152.235 31.6989C151.832 30.9298 151.165 30.3144 151.191 30.3506C153.153 32.9896 155.402 37.0073 156.979 40.3704C157.639 41.8087 158.014 42.7025 159.308 45.4601" stroke="#66D575" stroke-width="4" stroke-linecap="round" stroke-linejoin="round"/>
<path d="M18.483 129.981C18.159 129.322 16.5042 126.019 14.858 121.148C13.7463 117.858 13.9686 114.45 13.5619 111.389C13.1423 108.231 12.5042 104.901 12.2103 101.494C11.8778 97.6414 11.5519 94.4749 11.3833 87.5697C11.2333 81.427 11.3617 74.8382 12.8718 66.1574C13.6105 61.911 14.9024 59.2479 16.1787 55.5345C17.3241 52.2019 21.2123 48.1623 24.4983 45.0455C27.4554 42.2407 29.1297 39.7241 31.1767 37.4671C33.5343 34.8677 35.3673 32.4707 37.5175 29.9305C39.7072 27.3438 42.5616 25.9294 45.4574 24.2197C48.1733 22.6163 51.4468 22.2461 55.3839 20.556C58.3983 19.2621 61.2496 17.355 65.9849 13.6584C67.1172 12.7745 67.9549 12.2561 68.7409 11.8497C71.7565 10.2906 78.7861 10.2144 83.6865 9.36317C87.8797 8.63477 98.2824 7.93245 104.387 8.27937C107.329 8.44658 110.273 9.54109 113.55 10.0072C116.943 10.4898 120.574 11.3471 123.981 12.277C125.968 12.8192 127.672 13.7118 128.998 14.505C132.107 16.3666 134.935 19.7743 137.496 21.8998C139.973 23.955 142.937 25.6736 146.43 28.0084C149.153 29.8293 151.82 31.8987 154.513 34.1886C157.423 36.6628 158.856 39.8585 160.696 42.5563C162.771 45.597 164.043 48.413 165.805 51.8462C167.852 55.8353 170.29 58.3188 171.671 61.6878C173.531 66.2257 173.622 71.1825 174.265 74.9938C174.786 78.0849 174.717 81.6972 174.999 85.4225C175.338 89.8988 175.778 98.1614 175.357 106.175C174.968 113.56 174.411 116.808 173.704 121.275C173.323 123.687 173.149 125.82 172.896 127.513C172.452 130.488 169.119 134.448 166.975 137.942C165.364 140.566 162.618 142.475 159.843 145.692C157.571 148.327 154.893 150.439 152.939 152.658C150.763 155.13 148.532 157.849 145.889 160.066C143.556 162.023 140.96 163.588 138.554 165.167C136.01 166.836 133.23 168.066 130.522 169.311C127.732 170.594 125.706 173.726 123.151 176.102C122.551 176.66 121.891 177.069 121.191 177.403C118.394 178.737 115.041 179.392 109.477 179.546C107.514 179.6 106.155 178.359 104.577 177.874C102.862 177.347 100.189 178.074 96.8363 178.727C92.2103 179.629 88.3083 179.396 84.5356 179.378C81.3588 179.363 78.8026 177.417 75.5858 176.847C72.3195 176.268 69.0439 175.117 65.9309 173.822C64.5425 173.245 63.1166 172.812 61.7529 172.211C58.9508 170.976 56.9617 168.437 53.9825 167.027C50.8309 165.536 47.8693 164.343 45.1376 162.707C41.4949 160.524 37.7559 157.038 35.156 154.77C32.7116 152.637 31.4249 149.729 29.3696 147.259C27.2492 144.711 25.3215 142.097 23.3406 139.759C21.0091 137.007 16.8716 136.076 14.2853 134.192C13.6789 133.75 13.3589 133.068 13.0218 132.342C12.4236 130.771 12.0655 129.034 11.94 127.18C11.9036 126.193 11.9227 125.114 12.309 122.875" stroke="#66D575" stroke-width="16" stroke-linecap="round" stroke-linejoin="round"/>
<path d="M14.1613 124.927C14.0912 124.975 14.0212 125.024 13.7018 124.815C13.3824 124.605 12.8157 124.136 12.4188 123.202C10.3591 118.356 10.4858 113.131 9.87402 109.665C9.31017 106.471 8.63864 103.437 8.61683 94.637C8.60251 88.8531 9.72681 85.5187 10.1566 82.581C10.625 79.3791 12.4052 73.4899 14.1576 67.4027C17.2067 56.8118 17.6469 53.5843 19.1841 50.1545C20.7501 46.6607 23.6851 44.5066 27.7 40.8397C30.6801 38.1179 34.0346 34.381 37.2739 30.8859C39.4885 28.4963 47.1772 25.8677 52.4953 24.065C56.2748 22.7839 59.5638 22.6582 62.3981 21.3965C65.3798 20.0692 70.8931 18.7261 76.1482 16.9158C81.4455 15.091 85.341 12.1761 87.161 11.8097C92.1236 10.8107 96.4928 12.5522 102.529 12.7958C103.956 12.8535 104.799 13.1214 105.541 13.4631C106.974 14.1228 108.059 15.2524 109.245 16.1316C112.574 18.5995 118.263 18.2158 122.093 20.204C124.957 21.6914 127.311 23.19 128.848 24.1948C131.871 26.1705 133.988 29.6497 136.862 31.7257C140.142 34.0949 145.692 40.1888 149.643 45.4402C151.316 48.1173 152.584 50.3418 153.258 51.9372C153.557 52.7804 153.767 53.6918 154.138 56.2666" stroke="#66D575" stroke-width="16" stroke-linecap="round" stroke-linejoin="round"/>
<path d="M135.307 24.7053C135.307 24.7584 135.657 25.4406 136.786 26.8442C141.143 32.2601 148.51 34.183 149.864 35.4374C150.548 36.0716 151.103 36.829 151.593 37.6364C154.143 41.843 155.215 51.3584 156.704 56.8128C158.892 64.8276 163.127 72.8695 164.346 79.467C165.337 84.8304 165.135 90.1271 165.065 93.5955C164.855 95.8693 164.481 97.5623 163.558 100.367C162.864 102.327 161.711 105.375 160.177 109.079" stroke="#66D575" stroke-width="16" stroke-linecap="round" stroke-linejoin="round"/>
<path d="M160.099 95.6445C159.959 97.3218 159.675 101.477 160.667 108.137C161 110.368 161.147 113.604 160.992 118.087C160.712 126.154 155.514 133.167 151.609 141.923C149.223 147.274 146.374 149.722 143.388 153.382C138.103 159.858 133.707 165.047 128.544 169.043C126.393 170.76 124.633 172.076 123.096 173.024C122.355 173.454 121.692 173.782 120.663 174.253" stroke="#66D575" stroke-width="16" stroke-linecap="round" stroke-linejoin="round"/>
<path d="M43.3529 63.024C40.1822 63.1619 34.0251 63.6772 30.2036 64.2754C29.0236 64.46 27.4039 64.6555 26.1951 64.7649C24.9864 64.8743 24.2351 64.8743 23.9881 64.4871C23.7412 64.1 24.0213 63.3257 24.5413 62.5154C28.079 57.0019 36.1833 52.1816 47.481 45.9188C53.7909 42.4209 64.7875 37.3971 71.6023 34.1382C80.8223 29.729 84.094 28.267 84.6526 27.8757C84.7916 27.7783 83.4029 28.3959 76.9973 32.4959C70.5916 36.596 58.8956 44.2902 51.4027 49.099C36.2548 58.8206 31.7137 62.0956 31.0302 63.0342C28.0587 67.1152 40.7847 56.3034 47.4605 52.7047C53.2551 49.5811 64.0752 44.0843 70.5801 40.81C77.085 37.5356 78.9823 36.7171 79.4345 36.5056C79.8866 36.2941 78.8361 36.7144 71.495 40.4617C64.1539 44.209 50.5541 51.2704 42.106 55.8351C30.6479 62.0262 26.8853 64.6061 25.0982 65.3827C24.2432 65.7542 23.4321 65.9292 23.1271 65.5939C22.8222 65.2587 23.0323 64.3693 23.4907 63.5241C27.3041 56.4927 39.8387 49.6531 47.9133 44.6519C69.5349 31.2599 73.8511 30.5138 75.2916 30.2393C75.802 30.1421 70.2129 33.2857 62.0262 37.8483C54.0117 42.3149 43.8661 47.6219 34.7305 51.4051C31.9024 52.5762 32.4712 51.5027 33.7001 50.3985C34.929 49.2943 36.7309 48.0068 42.1287 44.8924C47.5265 41.7779 56.4657 36.8756 64.7286 33.0007C72.9914 29.1258 80.307 26.4268 82.7864 25.9855C85.2657 25.5442 82.6871 27.4423 72.3781 33.6742C62.0692 39.9061 44.108 50.4142 34.1741 56.1328C24.2401 61.8514 22.8776 62.462 25.6679 60.5488C28.4583 58.6356 35.4428 54.1802 43.38 49.5267C51.3172 44.8732 59.9953 40.1567 67.4679 36.4151C87.6263 26.3216 90.7341 26.187 92.7112 25.7963C93.6268 25.6153 94.3826 25.5693 94.7219 25.8846C95.0612 26.1998 94.9657 26.9033 93.7099 28.321C90.3349 32.1311 85.0209 36.5543 80.1723 41.2229C77.9026 43.4083 75.8394 45.0287 67.554 51.0248C59.2687 57.0209 44.7775 67.2946 37.8058 72.3393C30.8341 77.384 31.821 76.8885 34.3573 75.286C41.0095 71.0828 47.923 66.5713 54.899 62.3122C59.109 59.7417 64.5618 56.1505 73.5649 51.0065C82.5681 45.8624 94.9263 39.2257 101.703 35.6298C108.48 32.0339 109.302 31.6799 110.078 31.4511C110.855 31.2223 111.561 31.1294 111.677 31.4222C113.564 36.1961 102.884 41.0008 90.8773 49.7026C79.8628 57.6855 58.6305 72.5981 46.6454 81.3047C32.3129 91.7166 28.2982 95.4645 24.4319 98.1744C22.5857 99.4685 20.8648 100.437 20.4985 100.769C20.0185 101.204 24.9063 98.7886 34.6889 92.4669C41.8493 87.8397 53.0797 79.743 63.6039 72.9968C74.1282 66.2507 83.5067 60.9502 90.6461 57.2219C97.7854 53.4936 102.401 51.4981 104.464 50.7754C106.527 50.0528 105.897 50.6634 104.445 51.7522C102.993 52.841 100.74 54.3896 93.2019 59.3972C85.6643 64.4049 72.9113 72.8247 59.7773 81.6065C46.6432 90.3884 33.5146 99.2772 27.4549 103.622C21.3952 107.966 22.8023 107.497 34.9336 100.431C47.0648 93.3646 69.8776 79.7151 83.7753 71.6504C101.783 61.2006 108.258 58.2668 111.622 56.3052C118.201 52.4697 126.32 50.7985 127.422 50.7577C128.209 50.7285 121.493 55.6141 111.773 62.4859C107.144 65.7581 103.294 68.818 96.6099 73.6132C89.9261 78.4084 80.5667 84.9035 74.3731 88.9995C68.1795 93.0954 65.4354 94.5953 69.7679 91.4988C74.1004 88.4022 85.5927 80.6638 95.6866 74.2018C105.78 67.7399 114.127 62.7889 119.882 59.5459C125.637 56.303 128.547 54.9181 129.88 54.6162C131.214 54.3142 130.883 55.1372 129.926 56.4527C127.573 59.6874 124.089 62.8661 115.191 70.2176C108.021 76.1413 95.2971 86.3164 85.997 94.0814C70.9777 106.622 64.8969 112.625 64.5891 113.591C64.4621 113.989 65.9494 113.919 66.8797 113.731C68.5946 113.384 72.1234 110.974 78.6543 106.644C82.3817 104.173 86.8025 100.929 95.3699 95.4607C103.937 89.9923 116.48 82.3424 123.798 77.9679C132.76 72.6104 135.51 71.5275 137.342 71.0185C138.245 70.7675 139.141 70.7218 139.269 71.1673C140.885 76.7875 128.406 82.6638 116.532 92.3505C107.34 99.8496 90.9182 111.585 80.8482 118.804C63.2983 131.385 60.0472 133.238 58.8041 134.605C58.1793 135.293 63.3854 132.109 77.4389 123.248C88.7754 116.1 109.001 104.135 119.777 97.6066C135.291 88.2081 142.674 81.3722 145.528 79.852C145.557 79.8368 144.701 80.3286 140.282 83.1737C135.863 86.0188 127.892 91.2485 115.789 98.6237C103.685 105.999 87.6915 115.361 77.9879 120.945C65.4255 128.174 59.7339 131.309 55.3776 134.069C52.8749 135.655 50.2707 136.487 47.1985 137.352C45.8293 137.737 44.7822 137.769 43.8497 137.76C42.9172 137.75 42.115 137.635 41.7972 137.175C41.4795 136.715 41.6705 135.915 42.0044 135.115C42.6858 133.484 43.9699 131.832 45.4509 129.922C47.0946 127.802 53.6959 121.569 66.0654 110.794C72.6876 105.026 80.6952 99.4571 87.1236 94.985C93.552 90.513 98.3336 87.5132 102.497 84.6891C110.179 79.4784 117.549 74.443 124.033 70.7722C127.47 68.8269 130.099 66.7608 131.402 65.6824C134.442 63.1667 124.346 70.7627 112.121 77.6435C100.989 83.9095 79.8085 95.736 67.9062 102.519C56.004 109.302 54.0112 110.665 50.6383 112.515C35.6034 120.762 30.1764 124.051 29.4838 124.444C28.5785 124.958 34.7012 121.029 43.8789 114.408C49.6412 110.252 57.9147 104.855 69.5536 97.7587C81.1926 90.6627 96.0149 82.1279 106.697 76.3463C117.379 70.5647 123.473 67.795 128.184 65.3594C140.829 58.8224 143.953 56.5569 144.85 56.0948C146.027 55.4886 140.547 57.6078 135.879 60.1204C132.944 61.7 129.058 64.2524 115.835 71.515C102.612 78.7775 80.219 90.7634 64.9779 99.0728C49.7368 107.382 42.3257 111.652 38.1099 114.108C33.8941 116.564 33.0982 117.077 34.8084 115.607C36.5186 114.137 40.759 110.669 50.8098 103.919C60.8606 97.1705 76.5934 87.2464 88.4864 80.3287C100.379 73.4111 107.956 69.8007 114.381 67.1201C125.69 62.4011 131.769 61.0581 132.856 61.3715C133.347 61.5132 133.192 62.5078 132.816 63.4C131.97 65.4072 129.769 67.5387 127.51 69.8097C125.635 71.6938 120.187 75.4312 110.792 81.9589C105.814 85.4174 100.544 89.3626 95.7711 92.6714C90.9983 95.9803 86.9171 98.5819 81.8858 102.221C76.8546 105.859 70.997 110.456 68.4824 112.871C65.9679 115.286 66.9739 115.379 68.2561 115.192C71.1118 114.776 73.6723 113.606 75.7858 112.637C78.0109 111.617 84.0705 107.903 98.7133 99.5168C108.312 94.0194 122.626 86.5559 130.524 82.4188C138.421 78.2818 139.548 77.8394 140.549 77.5163C141.55 77.1932 142.39 77.003 142.342 77.3165C142.113 78.819 138.14 81.0838 133.478 84.969C130.992 87.0401 128.37 89.4382 117.168 97.6594C105.967 105.881 86.2931 119.884 75.8652 127.357C65.4373 134.83 64.8516 135.347 64.935 135.554C65.0184 135.761 65.7888 135.642 67.405 134.866C69.0211 134.089 71.4597 132.66 83.5047 124.911C95.5497 117.162 117.127 103.137 129.392 95.3119C143.836 86.0972 147.584 84.4686 149.214 83.9929C149.584 83.8851 149.023 84.9199 148.267 85.7884C147.51 86.657 146.574 87.5507 137.837 94.0616C129.1 100.573 112.591 112.673 102.762 119.741C86.6487 131.328 83.5287 133.194 82.2651 134.365C81.5879 134.993 80.9379 135.793 80.9977 136.367C81.0575 136.941 81.8725 137.29 87.8857 133.964C93.8989 130.638 105.086 123.625 115.293 117.455C125.5 111.285 134.388 106.17 141.405 102.411C153.151 96.1199 159.216 93.8282 160.356 93.8309C161.43 93.8334 154.474 100.379 140.027 112.25C131.018 119.653 117.959 129.05 110.846 134.392C102.751 140.471 100.845 142.076 97.2523 144.408C85.7646 151.863 82.8233 153.779 81.0345 155.698C80.699 156.058 83.7465 154.269 92.6302 148.857C100.029 144.35 113.713 136.972 122.642 131.838C135.55 124.415 140.684 121.071 143.097 120.045C145.17 119.163 147.068 118.886 148.077 118.954C148.902 119.01 143.698 122.611 136.292 127.532C132.449 130.087 128.626 133.042 119.599 138.798C110.573 144.554 96.5084 153.093 88.3939 158.103C73.5176 167.287 66.6011 171.531 65.4689 172.618C64.8615 173.201 64.3302 173.987 64.4967 174.55C64.6632 175.112 65.5801 175.461 76.6279 170.142C87.6757 164.822 108.827 153.823 120.951 147.382C135.636 139.582 138.983 137.351 140.735 136.521C141.565 136.128 142.296 135.833 135.752 140.027C129.208 144.222 115.373 152.925 107.577 157.888C99.7814 162.851 98.4443 163.811 98.389 164.202C98.3338 164.593 99.6008 164.385 106.678 160.922C113.755 157.459 126.603 150.747 134.349 146.833C144.259 141.826 148.034 140.693 149.802 140.522C150.254 140.478 149.616 141.522 149.03 142.192C146.793 144.75 137.485 149.65 122.585 157.181C108.195 164.456 99.3519 166.697 97.2444 167.257C91.205 168.859 87.1397 168.649 85.3399 168.518C84.4497 168.454 83.6356 168.127 83.0501 167.547C82.4646 166.968 82.1399 166.079 81.9822 165.245C81.8245 164.41 81.8436 163.658 82.0763 162.731C82.5919 160.676 83.6149 158.935 84.5028 157.509C86.6654 154.035 90.754 150.137 98.2187 143.529C103.34 138.996 111.452 132.391 118.701 126.859C131.897 116.789 140.14 111.86 141.925 110.517C142.255 110.269 140.939 110.467 132.762 114.695C124.584 118.923 109.463 127.064 98.0949 132.875C86.7268 138.686 79.5704 141.92 74.1615 144.232C65.3719 147.989 57.0476 151.49 48.3013 155.631C44.3014 157.525 41.0511 158.693 39.6431 158.712C38.235 158.731 38.7316 157.487 39.6656 156.143C41.7081 153.204 45.3712 150.346 56.0028 142.767C64.5417 136.679 79.7629 126.467 89.3009 120.107C98.8389 113.748 102.309 111.66 105.749 109.411C112.579 104.947 121.106 99.3048 132.454 92.2318C145.785 83.923 154.371 77.1566 157.355 74.7855C158.575 73.8156 159.301 73.4497 159.159 73.3264C159.016 73.2032 158.01 73.3669 143.281 80.6764C128.552 87.9859 100.13 102.436 82.1137 111.383C64.0976 120.329 57.3486 123.333 52.8977 125.208C46.5563 127.88 43.7654 128.598 42.2773 128.915C41.5207 129.076 40.7382 129.117 40.4335 128.698C40.1289 128.279 40.3199 127.367 40.8767 126.38C42.1061 124.2 44.8167 121.977 48.7523 118.674C54.3532 113.973 59.943 109.341 67.9471 102.93C73.6546 98.3587 83.2605 91.8293 91.3626 86.5444C99.4648 81.2595 105.914 77.6004 111.3 74.8947C125.71 67.6551 128.657 66.6808 129.937 65.6041C130.553 65.0863 131.033 64.5495 130.971 64.024C130.908 63.4985 130.271 62.9809 119.228 66.9838C108.184 70.9868 86.7531 79.526 73.4748 84.9803C55.6235 92.313 49.7465 95.2371 44.5877 96.9594C34.6762 100.269 26.9596 102.159 24.7119 102.301C23.7323 102.363 23.0755 101.979 22.9955 101.483C22.7922 100.224 30.0112 93.7635 42.7413 82.3092C49.2498 76.4529 56.5537 71.3061 63.9996 66.3228C71.4456 61.3395 78.9904 56.8796 83.5711 54.2304C95.5537 47.3003 108.729 43.3656 112.868 41.9118C115.327 41.0485 117.549 40.9157 118.133 41.1071C118.413 41.1988 116.96 41.949 106.264 47.2119C95.5678 52.4748 75.2382 62.399 65.2014 67.288C55.1647 72.177 56.037 71.7301 58.6416 70.1283C61.2461 68.5265 65.5565 65.7833 70.8364 62.6689C76.1162 59.5546 82.2349 56.1521 90.595 52.2756C98.9552 48.3991 109.372 44.1516 115.311 41.8108C121.25 39.4701 122.396 39.1648 121.194 40.2043C119.992 41.2439 116.407 43.6375 112.714 46.1037" stroke="#66D575" stroke-width="8" stroke-linecap="round" stroke-linejoin="round"/>
<path d="M37.526 65.1558C37.3414 65.085 37.1568 65.0142 36.721 64.8362C36.2853 64.6581 35.604 64.375 35.3804 63.8088C35.1568 63.2426 35.4114 62.4019 35.8833 61.7321C36.3551 61.0624 37.0364 60.5889 37.9508 60.0774C39.953 58.9573 48.4243 56.271 66.8395 51.3441C77.9207 48.3793 92.7803 45.4615 101.269 43.7477C111.455 41.6912 117.004 41.6926 123.218 41.7524C130.939 41.8266 138.855 44.188 142.217 44.3987C142.938 44.4439 137.862 43.598 132.67 42.5781C128.284 41.7167 120.222 41.5548 106.089 42.0935C97.9176 42.405 87.7855 43.995 80.7746 45.0344C64.9403 47.3819 59.9346 49.7197 54.3848 52.559C50.0954 54.7535 47.0585 56.976 45.4201 58.2964C41.6762 61.3135 38.424 66.211 35.271 70.3566C34.9306 70.8041 34.4769 69.8324 34.5554 69.0467C34.6339 68.261 35.0796 67.4646 35.6021 66.6915C36.6458 65.1472 37.855 63.9276 39.2958 62.7096C41.3223 60.9965 45.7913 58.8638 52.3704 56.0753C59.6009 53.0107 68.9218 50.7407 79.249 48.7503C84.3032 47.7762 89.0605 47.3262 97.1769 46.9195C105.293 46.5128 116.646 46.2783 122.984 46.215C130.303 46.1419 132.37 46.6198 134.78 47.245C136.143 47.5986 137.75 48.1754 138.173 48.5132C138.595 48.851 137.774 48.9705 136.79 48.8905C131.919 48.494 125.138 47.5028 113.134 48.3365C104.812 48.9145 92.0576 50.9267 82.6351 52.4197C73.2126 53.9127 67.5333 55.1117 61.0803 56.9019C47.468 60.6781 39.0373 64.0371 36.882 65.1919C35.3347 66.0209 34.3623 67.2125 33.7949 67.6426C32.9764 68.2632 44.4737 64.7081 62.4747 59.884C71.6953 57.4129 81.3225 55.8075 89.4644 54.6073C103.974 52.4683 113.413 52.4093 118.023 52.5228C122.832 52.6412 130.813 55.3503 136.65 56.8624C139.646 57.3121 143.072 57.7617 145.927 58.2184C147.114 58.4671 147.77 58.7502 147.443 59.3906" stroke="#1E1E1E" stroke-width="12" stroke-linecap="round" stroke-linejoin="round"/>
<path d="M65.0969 98.2724C64.6258 98.2724 63.6572 98.2989 63.0159 98.2905C62.9244 98.2893 64.0172 98.1582 71.6396 96.8183C79.262 95.4784 93.5622 92.8989 101.881 91.4993C112.075 89.7841 118.566 89.768 123.381 89.701C123.695 89.6966 119.683 89.6782 113.16 90.3219C106.636 90.9657 97.7227 92.2532 89.0273 93.8213C72.0643 96.8803 62.9433 99.3687 61.6812 100.148C61.0724 100.523 60.8203 101.254 61.0159 101.52C61.2115 101.786 61.9374 101.667 62.7442 101.371C67.5025 99.6251 78.3652 95.1926 91.6722 91.4588C103.431 88.1595 113.546 87.8781 120.346 87.7793C123.937 87.7271 125.984 88.2099 127.853 88.7997C128.698 89.0664 129.199 89.624 129.055 89.8302C127.532 91.9994 117.26 89.0374 103.587 88.9425C92.8936 88.8683 85.4736 91.2301 80.325 92.7196C76.1053 93.9404 69.7346 95.9892 61.0006 98.745C52.8393 101.32 48.5938 104.126 48.0246 104.663C47.4362 105.218 53.7844 101.963 65.4524 98.3248C72.5838 96.101 82.5196 94.3102 91.7799 92.9313C101.04 91.5524 109.413 90.9463 115.496 90.6207C121.579 90.2952 125.119 90.2686 126.567 90.4076C128.015 90.5466 127.264 90.8519 126.409 91.1043C125.554 91.3567 124.618 91.5469 122.438 91.7429" stroke="#1E1E1E" stroke-width="12" stroke-linecap="round" stroke-linejoin="round"/>
<path d="M56.3569 108.65C56.2168 108.703 56.9214 108.213 58.7414 107.229C59.7465 106.686 61.0707 106.365 69.3895 104.437C77.7083 102.508 93.0208 99.0616 101.59 97.202C111.497 95.0523 116.326 94.8638 119.695 94.6427C116.098 94.5323 111.272 94.6465 108.787 94.9561C107.455 95.1242 105.978 95.3145 102.758 95.8591" stroke="#1E1E1E" stroke-width="12" stroke-linecap="round" stroke-linejoin="round"/>
<path d="M75.9013 145.4C75.7103 145.4 75.5193 145.4 75.0707 145.342C73.9183 145.195 85.5776 142.445 104.907 138.439C112.981 136.766 116.332 136.828 120.468 137.096C124.338 137.347 126.983 138.458 127.801 138.635C128.721 138.834 121.403 138.361 111.342 138.795C99.3424 139.312 90.0649 141.599 83.9685 143.334C80.5619 144.304 76.7132 146.078 75.1993 146.947C73.6855 147.817 74.6723 147.888 75.5436 147.842C77.1522 147.759 78.7099 147.23 83.0392 145.913C92.7342 142.962 102.518 140.006 108.956 138.397C119.631 135.729 127.099 136.162 128.769 136.326C129.099 136.358 128.211 136.817 119.686 137.643C111.16 138.468 94.9817 139.782 86.0043 140.588C75.7273 141.51 73.7345 142.175 72.3139 142.781C71.5635 143.101 70.7978 143.546 70.9388 143.751C71.0798 143.957 72.1622 143.934 79.8476 141.824C87.533 139.713 101.789 135.514 110.199 133.163C120.687 130.231 124.321 129.929 126.099 129.985C125.866 130.633 116.538 133.253 100.645 136.825C93.4305 138.265 87.9422 138.946 81.3036 139.715" stroke="#1E1E1E" stroke-width="12" stroke-linecap="round" stroke-linejoin="round"/>
</svg>
